<?xml version="1.0" encoding="utf-8"?>
<svg xmlns="http://www.w3.org/2000/svg" width="50" height="50" viewBox="0 0 50 50">
  <g id="Groupe_3265" data-name="Groupe 3265" transform="translate(-1197 -470)">
    <g id="Groupe_1765" data-name="Groupe 1765" transform="translate(1206.978 481.792)">
      <path id="Tracé_6067" data-name="Tracé 6067" d="M988.255,516.089h0a.612.612,0,1,0,.794-.932l-2.632-2.241,2.632-2.241a.612.612,0,1,0-.794-.932l-3.179,2.707a.613.613,0,0,0,0,.932Z" transform="translate(-976.79 -496.894)" fill="#0ce3c6"/>
      <path id="Tracé_6068" data-name="Tracé 6068" d="M1023.941,515.573a.608.608,0,0,0,.144.446h0a.612.612,0,0,0,.863.069l3.179-2.707a.612.612,0,0,0,0-.932l-3.179-2.707a.612.612,0,0,0-.794.932l2.631,2.241-2.631,2.241A.608.608,0,0,0,1023.941,515.573Z" transform="translate(-1006.413 -496.893)" fill="#0ce3c6"/>
      <path id="Tracé_6069" data-name="Tracé 6069" d="M1006.8,512.1a.608.608,0,0,0,.127.014.615.615,0,0,0,.6-.486l1.982-9.408a.612.612,0,0,0-1.2-.252l-1.982,9.407a.612.612,0,0,0,.473.725Z" transform="translate(-993.052 -490.744)" fill="#0ce3c6"/>
      <path id="Tracé_6070" data-name="Tracé 6070" d="M978.08,457.092H954.92a3.424,3.424,0,0,0-3.42,3.42v19.658a3.424,3.424,0,0,0,3.42,3.42H978.08a3.424,3.424,0,0,0,3.42-3.42V460.512A3.424,3.424,0,0,0,978.08,457.092Zm2.2,23.077a2.2,2.2,0,0,1-2.2,2.2H954.92a2.2,2.2,0,0,1-2.2-2.2V465.2h27.551Zm0-16.193H952.725v-3.465a2.2,2.2,0,0,1,2.2-2.2H978.08a2.2,2.2,0,0,1,2.2,2.2Z" transform="translate(-951.5 -457.092)" fill="#0ce3c6"/>
      <path id="Tracé_6071" data-name="Tracé 6071" d="M981.445,467.039a1.676,1.676,0,1,0,1.676,1.676A1.677,1.677,0,0,0,981.445,467.039Zm0,2.127a.451.451,0,1,1,.451-.451A.452.452,0,0,1,981.445,469.166Z" transform="translate(-972.93 -464.632)" fill="#0ce3c6"/>
      <path id="Tracé_6072" data-name="Tracé 6072" d="M961.7,466.977a1.676,1.676,0,1,0,1.676,1.676A1.677,1.677,0,0,0,961.7,466.977Zm0,2.127a.451.451,0,1,1,.451-.451A.452.452,0,0,1,961.7,469.1Z" transform="translate(-957.963 -464.585)" fill="#0ce3c6"/>
      <path id="Tracé_6073" data-name="Tracé 6073" d="M1001.191,467.1a1.676,1.676,0,1,0,1.676,1.675A1.677,1.677,0,0,0,1001.191,467.1Zm0,2.127a.451.451,0,1,1,.452-.451A.451.451,0,0,1,1001.191,469.228Z" transform="translate(-987.899 -464.679)" fill="#0ce3c6"/>
    </g>
  </g>
</svg>
