<svg xmlns="http://www.w3.org/2000/svg" width="316.583" height="199.936" viewBox="0 0 316.583 199.936">
  <path id="Tracé_7230" data-name="Tracé 7230" d="M1715.365,1571.311c-2.609-1.6-4.443-4.13-7.167-5.682a53.5,53.5,0,0,0-9.288-3.876c-.216-.075-.175-.431.068-.409a32.168,32.168,0,0,1,9.875,2.858c2.767,1.211,6.3,2.632,8.244,5A1.38,1.38,0,0,1,1715.365,1571.311Zm4.162-5.427c-.955-3.124-4.638-4.406-7.471-5.544a23.279,23.279,0,0,0-11.807-1.693c-.385.047-.283.619.068.648a28,28,0,0,1,10.863,2.959c2.582,1.345,4.1,4.219,6.871,5.019A1.176,1.176,0,0,0,1719.527,1565.884Zm.181-6.525c-4.749-3.552-12.94-5.469-18.662-3.526a.15.15,0,0,0,.031.295c3.121.32,6.039.417,9.07,1.386,2.976.952,5.289,2.923,7.722,4.782C1719.642,1563.653,1721.488,1560.69,1719.708,1559.359Zm1.865-4.115c-5.638-3.333-14.924-5.6-21.179-2.9-.241.1-.1.421.107.449,3.178.425,6.327.2,9.511.766,3.684.657,6.784,2.388,10.005,4.172C1721.662,1558.636,1723.2,1556.209,1721.573,1555.244Zm-9.242-8.148a20.422,20.422,0,0,0-10.519,2.263.21.21,0,0,0,.149.387,26.86,26.86,0,0,1,9.992-.384c2.512.514,4.827,2.709,7.339,1.747a1.043,1.043,0,0,0,.652-1.473C1718.8,1546.895,1714.9,1547.149,1712.331,1547.1Zm5.514-3.546c-2.388-1.633-5.826-.787-8.569-.55a25.3,25.3,0,0,0-8.091,2.19c-.229.1-.072.425.15.387a54.872,54.872,0,0,1,9.045-.83c2.475-.011,4.779,1.2,7.184.543A.966.966,0,0,0,1717.844,1543.549Zm-2.308-5.317c-2.164-1.521-5.579-.408-7.936.236a13.634,13.634,0,0,0-7.117,4.24.09.09,0,0,0,.1.135,58.769,58.769,0,0,1,6.582-2.38c2.695-.677,5.551.626,8.048-.22A1.118,1.118,0,0,0,1715.536,1538.232Zm-1.083-5.366c-2.3-1.217-4.979.063-7.338.739a21.46,21.46,0,0,0-7.649,4.022c-.112.091,0,.306.138.254a54.79,54.79,0,0,1,7.068-2.131c2.474-.558,5.532.323,7.721-.925A1.145,1.145,0,0,0,1714.453,1532.866Zm-54.531-8.468a5.507,5.507,0,0,0-1.292-1.689,11.5,11.5,0,0,1-2.026-3.218c-.932-2.037-.489-4.267-1.2-6.266a.3.3,0,0,0-.545-.088c-2.112,3.044.916,11.056,4.535,11.9A.453.453,0,0,0,1659.922,1524.4Zm29.776,69.411a27.658,27.658,0,0,0-6.212-18.961c-.3-.366-.938.092-.672.487a23.918,23.918,0,0,1,3.963,17.988C1686.365,1595.5,1689.614,1595.944,1689.7,1593.809Zm-4.64-20.482c3.511,5.486,5.986,11.379,6.448,17.93a1.547,1.547,0,1,0,3.063-.32,30.127,30.127,0,0,0-9.271-17.784C1685.179,1573.047,1684.961,1573.175,1685.058,1573.327Zm2.177-1.572c-.312-.128-.556.314-.336.54,2.551,2.619,4.955,5.055,6.7,8.322,1.644,3.075,1.7,6.445,2.956,9.576.6,1.481,2.519.586,2.694-.642C1700.206,1582.815,1693.115,1574.158,1687.235,1571.755Zm16.59,15.452c-.441-7.013-6.99-14.9-13.894-16.294a.3.3,0,0,0-.247.539,33.634,33.634,0,0,1,7.345,6.022c2.537,2.981,3.218,6.358,4.2,10C1701.606,1588.857,1703.921,1588.737,1703.824,1587.207Zm3.744-3.052c.092-7.8-8.891-14.073-15.816-14.967-.271-.035-.333.4-.078.467a19.4,19.4,0,0,1,8.972,5.49c2.623,2.772,3.206,6.208,4.62,9.559C1705.753,1585.855,1707.554,1585.313,1707.568,1584.155Zm2.058-3.547a.937.937,0,0,0,1.417-.757c-.008-3.421-4.319-7.027-6.693-9.179a13.5,13.5,0,0,0-10.172-3.7.06.06,0,0,0,0,.119c4.281.586,7.665,3.113,10.354,6.353C1706.314,1575.592,1707.088,1579.333,1709.626,1580.607Zm3.727-4.9a.812.812,0,0,0,1.044-.746c-.058-3.179-4.077-5.59-6.462-7.226-2.978-2.042-6.611-3.778-10.26-3.944a.06.06,0,0,0-.033.11,68.309,68.309,0,0,1,8.471,4.88,27.818,27.818,0,0,1,4.05,3.962C1711.257,1573.981,1711.762,1575.158,1713.353,1575.707Zm-2.084-46.647c-2.03-1.074-4.555.149-6.625.8a15.907,15.907,0,0,0-6.822,4.155.24.24,0,0,0,.278.384,51.129,51.129,0,0,1,7-2.663c2-.57,4.394.053,6.12-1.074A.937.937,0,0,0,1711.269,1529.06Zm-8.8-2.756c-2.813,1.005-4.605,2.809-6.556,4.992a.21.21,0,0,0,.287.305,17.717,17.717,0,0,1,6.814-3.054c2.053-.537,4.621.216,6.413-.938a.965.965,0,0,0,.239-1.495C1707.705,1524.431,1704.658,1525.52,1702.465,1526.3Zm2.2-4.486c-4.941-.421-10.087,3.5-12.618,7.424a.12.12,0,0,0,.184.151,25.7,25.7,0,0,1,5.535-3.729c2.255-1.158,4.726-1.154,7.115-1.784A1.051,1.051,0,0,0,1704.66,1521.817Zm-4.863-2.373c-1.949-.861-4.907.867-6.584,1.861a13.743,13.743,0,0,0-4.84,5.348c-.109.2.162.454.321.263a18.239,18.239,0,0,1,5.288-4.2,14.255,14.255,0,0,1,3.343-1.283,6.676,6.676,0,0,0,2.729-.884C1700.493,1520.218,1700.2,1519.62,1699.8,1519.444Zm-20.2,49.483a.556.556,0,0,0-.49.262.553.553,0,0,1-.312.209.151.151,0,0,0,.067.281c.317.018.089-.048.311.189a2.415,2.415,0,0,0,.513.308,2.557,2.557,0,0,1,.751,1.266c.42,1.052,2.126.358,1.832-.708A2.542,2.542,0,0,0,1679.6,1568.928Zm2.5-1.977c-.352.126-.544.654-.141.87a23.071,23.071,0,0,1,2.171,1.411c.914.634,1.988-.706,1.221-1.487A2.892,2.892,0,0,0,1682.1,1566.951Zm4.1-2.542a.361.361,0,0,0-.2.662,10.075,10.075,0,0,0,3.339,1.9.959.959,0,0,0,1.1-.41C1691.373,1564.617,1687.135,1564.449,1686.2,1564.409Zm3.181-1.911a22.915,22.915,0,0,0,2.592.378c.8.037,1.713.215,2.3-.433a.616.616,0,0,0,.026-.845c-.481-.607-1.17-.54-1.894-.562a22.864,22.864,0,0,0-2.982.208A.628.628,0,0,0,1689.382,1562.5Zm4.011-5.9c-1.591.367-2.328,1.5-3.544,2.465-.307.242.159.728.409.435,1.537-1.8,4.411-.653,6.393-1.235a.575.575,0,0,0,.279-.941C1696.025,1556.259,1694.649,1556.309,1693.393,1556.6Zm-2.158-5.276a10.828,10.828,0,0,1,3.669-1.981c.958-.3,2.226-.217,2.93-1a.578.578,0,0,0-.221-.956c-1.122-.513-2.542.468-3.486,1.037a16.765,16.765,0,0,0-3.219,2.55A.239.239,0,0,0,1691.234,1551.322Zm-.66-4.845c.933,0,1.566-.9,2.31-1.38a13.806,13.806,0,0,1,3.5-1.38.24.24,0,0,0-.05-.471,7.367,7.367,0,0,0-3.692.665c-.947.386-2.4.96-2.5,2.1A.449.449,0,0,0,1690.574,1546.477Zm-.7-3.754a7.246,7.246,0,0,1,3.49-2.791c1.08-.411,2.705-.213,3.533-1.04a.6.6,0,0,0,.026-.845c-1.2-1.122-3.269-.018-4.391.762a7.832,7.832,0,0,0-2.873,3.815C1689.617,1542.756,1689.806,1542.833,1689.879,1542.723Zm-3.256-2.17a.729.729,0,0,0,1.007-.231c.833-1.581,1.773-3.785,3.871-3.774a.15.15,0,0,0,.084-.276c-2.35-1.3-4.5,1.535-5.273,3.446A.727.727,0,0,0,1686.623,1540.553Zm-2.683-2.986a15.173,15.173,0,0,1,4.242-4.743c1.03-.833-.4-2.372-1.413-1.5a9.881,9.881,0,0,0-3.152,6.1C1683.583,1537.6,1683.841,1537.764,1683.94,1537.567Zm1.316-9c-1.253-.108-2.472,1.069-3.079,2.075a8.733,8.733,0,0,0-1.163,4.178.21.21,0,0,0,.408.068,6.7,6.7,0,0,1,1.962-3.254,10.662,10.662,0,0,0,2.311-2.243A.545.545,0,0,0,1685.256,1528.571ZM1657.184,1527c-.667-1.194-2.274-1.97-3.273-2.924a8.864,8.864,0,0,1-2.706-4.989c-.051-.3-.526-.243-.53.056a9.51,9.51,0,0,0,1.677,5.482c.88,1.281,2.636,3.251,4.317,3.214A.574.574,0,0,0,1657.184,1527Zm-.966,3.455a2.744,2.744,0,0,0-1.542-.419,6.528,6.528,0,0,1-2.756-.945,8.111,8.111,0,0,1-3.476-4.192c-.022-.06-.117-.059-.118.012a6.388,6.388,0,0,0,2.44,5.225c1.3,1,4.043,2.551,5.541,1.215A.575.575,0,0,0,1656.219,1530.457Zm-1.257,4.635a.666.666,0,0,0-.1-1.036c-1.209-.66-2.641-.437-3.93-.993a6.477,6.477,0,0,1-3.617-3.234c-.106-.266-.487-.081-.443.171a6.927,6.927,0,0,0,2.823,4.8C1650.995,1535.776,1653.751,1536.441,1654.962,1535.092Zm-5.785,2.585a9.65,9.65,0,0,1-3.991-2.271.3.3,0,0,0-.48.348,7.658,7.658,0,0,0,3.48,3.591c1.322.539,3.528,1.3,4.717.177a.635.635,0,0,0-.1-.989C1651.831,1537.842,1650.319,1538.049,1649.177,1537.677Zm4.387,5.438a.756.756,0,0,0-.413-1.11c-1.108-.444-2.419-.123-3.586-.147a8.219,8.219,0,0,1-4.606-1.452c-.446-.307-.86.308-.564.687C1646.131,1543.32,1651.337,1546.363,1653.564,1543.115Zm-4.72,6.1c1.578.253,3.807.209,4.742-1.306a.817.817,0,0,0-.446-1.2c-1.131-.406-2.534-.005-3.711.09a11.654,11.654,0,0,1-4.708-.737.421.421,0,0,0-.428.687A7.642,7.642,0,0,0,1648.845,1549.216Zm1.224,5.139c1.519.233,4.113.152,4.668-1.573a.793.793,0,0,0-.33-.888c-1.073-.792-2.811-.151-4.032.051-1.551.257-3.157-.2-4.691.1a.15.15,0,0,0-.1.216C1646.565,1553.728,1648.437,1554.1,1650.069,1554.354Zm-2.195,4.307c2.376.664,6.1.635,7.24-1.978.162-.372-.253-.647-.57-.606a11.148,11.148,0,0,0-2.636.85,6.812,6.812,0,0,1-3.593.305C1647.395,1557.072,1646.922,1558.395,1647.874,1558.661Zm7.68.645a9.842,9.842,0,0,1-5.266,2.505c-.905.11-.737,1.623.166,1.59a9.168,9.168,0,0,0,6.455-2.656A.989.989,0,0,0,1655.554,1559.307Zm1.7,5.007c-.517.291-.758.949-1.062,1.445a3.318,3.318,0,0,1-2.177,1.424c-.52.109-.446.973.1.942a4.777,4.777,0,0,0,2.8-1.1c.669-.532,1.468-1.669.988-2.521A.482.482,0,0,0,1657.257,1564.314Zm4.208,1.645c-.789.188-1.266.952-1.8,1.522a24.883,24.883,0,0,0-1.8,2.427c-.385.524.421,1.169.87.715q.995-1.006,1.99-2.011a4.064,4.064,0,0,0,1.331-2.174A.482.482,0,0,0,1661.466,1565.959Zm3.908,3.276a.421.421,0,0,0-.606-.269c-1.155.733-1.093,2.541-2.692,2.733-.484.058-.366.8.087.825C1663.716,1572.615,1665.723,1570.883,1665.374,1569.235Zm2.789,3.59c.931-.885,1.634-2.314.765-3.487a.3.3,0,0,0-.5.117c-.233,1.088-.013,2.183-.457,3.248C1667.919,1572.817,1668.081,1572.9,1668.163,1572.825Zm4.136,1.556a10.715,10.715,0,0,0,1.078-2.528,2.583,2.583,0,0,0-.5-2.381.392.392,0,0,0-.712.071,5.452,5.452,0,0,0-.3,2.058,5.363,5.363,0,0,1-.369,2.411A.45.45,0,0,0,1672.3,1574.38Zm4.667-3.643c-.22-.221-.636-.368-.754-.655-.2-.482-1.02.07-.505.475.165.129-.147,1.1-.185,1.254a2.58,2.58,0,0,0,.05,1.289.726.726,0,0,0,1.04.46,1.759,1.759,0,0,0,.794-1.96A1.959,1.959,0,0,0,1676.966,1570.737Zm-15.5-51.927c-2.856-2.659-3.3-6.458-3.207-10.179a.36.36,0,0,0-.7-.117c-1.1,4.08.266,8.014,1.892,11.755C1660.178,1521.948,1662.837,1520.087,1661.466,1518.81Zm3.01-4.036c-3.4-3.044-4.136-6.812-4.36-11.188a.15.15,0,0,0-.292-.049c-1.425,4.278.075,9.179,2.251,12.975C1663.209,1518.491,1666.033,1516.168,1664.476,1514.775Zm2.919-3.7a38.993,38.993,0,0,1-4.708-11.9.09.09,0,0,0-.177.018,22.41,22.41,0,0,0,3.046,12.886C1666.214,1513.261,1668.106,1512.22,1667.395,1511.079Zm1.331-2.492a1.029,1.029,0,0,0,1.711-.4c.444-1.962-.656-3.416-1.477-5.187-1.147-2.475-2.229-4.977-3.4-7.443-.076-.159-.308-.054-.276.107.47,2.409.944,4.81,1.507,7.2C1667.249,1504.815,1667.142,1507.216,1668.726,1508.586Zm3.749-3.191c.756.735,2.31.1,1.93-1.046-.57-1.724-1.849-3.044-2.6-4.693-.868-1.912-.866-4.284-1.889-6.053a.151.151,0,0,0-.274.027c-.721,1.721-.02,4.185.387,5.939C1670.491,1501.55,1670.976,1503.937,1672.475,1505.4Zm4.811-3.628a.878.878,0,0,0,1.3-.939c-.269-1.753-1.833-3.139-2.663-4.7a28.575,28.575,0,0,1-2.117-6.838c-.05-.212-.323-.151-.354.037a14.749,14.749,0,0,0,.6,6.736C1674.607,1497.98,1675.377,1500.862,1677.286,1501.768Zm5.3-4.279c-1.64-3.36-3.753-6.065-4.133-9.944a.15.15,0,0,0-.292-.048c-1.394,3.738.54,8.123,2.888,11.1C1681.754,1499.489,1683.046,1498.424,1682.59,1497.489Zm3.748-.105a.571.571,0,0,0,.868-.464c-.043-2.033-1.436-3.823-2.223-5.676a57.075,57.075,0,0,1-2.632-8.062c-.041-.159-.3-.142-.295.031a33.614,33.614,0,0,0,1.177,7.679C1683.832,1493.041,1684.479,1496.012,1686.338,1497.384Zm-6.637,32.009a5.355,5.355,0,0,0-2.721,3.763.839.839,0,0,0,.591.827.905.905,0,0,0,.446.014.858.858,0,0,0,.639-.789,5.343,5.343,0,0,1,.329-1.82,4.135,4.135,0,0,1,1.168-1.37C1680.5,1529.737,1680.079,1529.179,1679.7,1529.392Zm-3.3-.415c-1.047.945-3.17,3.285-2,4.711a.48.48,0,0,0,.676.021c.564-.524.517-1.155.546-1.876a5.222,5.222,0,0,1,1.006-2.668C1676.724,1529.021,1676.523,1528.865,1676.4,1528.978Zm-32.984,63.535c4.814-4.891,9.086-10.626,11.479-17.094.163-.439-.51-.631-.686-.212-2.651,6.354-6.556,11.505-12.6,14.809C1639.585,1591.121,1641.844,1594.108,1643.415,1592.513Zm3.829,2.19c2.75-.738,3.731-4.442,5.072-6.728a46.345,46.345,0,0,0,4.323-10.614.09.09,0,0,0-.172-.053,75.629,75.629,0,0,1-5.382,9.9c-1.421,2.26-4.5,4.089-4.653,6.84A.663.663,0,0,0,1647.244,1594.7Zm6.013,1.843c2.684-5.75,5-11.914,5.673-18.257.039-.378-.533-.451-.643-.107-1.909,5.98-3.775,11.706-6.853,17.223C1650.745,1596.636,1652.683,1597.776,1653.257,1596.546Zm4.123,1.493a32.2,32.2,0,0,0,2.771-18.261c-.01-.07-.113-.052-.117.012a46.283,46.283,0,0,1-4.527,17.075C1654.908,1598.138,1656.762,1599.326,1657.38,1598.039Zm6.532-17.657q-.707,5.646-1.917,11.213c-.552,2.557-1.557,4.937-1.169,7.545.1.657.981.675,1.3.211,1.49-2.136,1.542-4.881,1.807-7.433a75.832,75.832,0,0,0,.213-11.529A.12.12,0,0,0,1663.912,1580.382Zm2.315.548c-.288,2.685-.059,5.441-.112,8.145-.063,3.182-.429,6.353-.441,9.535a1.076,1.076,0,0,0,2.15.066c.54-5.513.284-12.436-1.362-17.771A.12.12,0,0,0,1666.228,1580.93Zm3.384,1.547a96.38,96.38,0,0,1,.392,15.309,1.076,1.076,0,0,0,2.15.066,36.967,36.967,0,0,0-2.252-15.446A.149.149,0,0,0,1669.612,1582.477Zm3.322-.832c1.635,5.066,2.1,10.068,2.59,15.337.118,1.276,2.114,1.383,2.031.062-.337-5.361-2.258-10.61-4.566-15.42A.03.03,0,0,0,1672.934,1581.645Zm2.942-.875c2.012,4.918,2.635,9.653,3.094,14.9.091,1.045,1.642,1.157,1.672.051.143-5.267-1.813-10.642-4.5-15.091A.15.15,0,0,0,1675.875,1580.77Zm8.609,14.109a37,37,0,0,0-4.459-16.043c-.054-.1-.2-.019-.158.086a30.426,30.426,0,0,1,1.81,15.871C1681.443,1596.578,1684.545,1596.71,1684.484,1594.879Zm-58.822-13.4c6.785-.6,12.739-4.959,16.6-10.383.081-.114-.085-.239-.184-.15-4.916,4.43-10.41,6.293-16.689,7.883C1623.963,1579.19,1624.111,1581.617,1625.662,1581.481Zm3.782,3.973.4.229a1.611,1.611,0,0,0,1.628.05,33.708,33.708,0,0,0,7.1-5.524,65.27,65.27,0,0,0,5.808-7.737c.105-.165-.139-.311-.253-.158-2.521,3.385-5.373,5.441-8.82,7.774a25.968,25.968,0,0,1-4.563,2.492c-1.2.5-1.517.822-1.723,2.087A.871.871,0,0,0,1629.444,1585.453Zm5,3.021a49.5,49.5,0,0,0,12.713-14.023c.062-.1-.082-.185-.152-.1a47.863,47.863,0,0,1-13.986,12.15C1631.508,1587.392,1633,1589.535,1634.448,1588.474Zm4.192,3.483a52.685,52.685,0,0,0,10.21-14.365.149.149,0,0,0-.253-.158,61.631,61.631,0,0,1-12.332,12C1634.5,1590.745,1637.016,1593.562,1638.64,1591.957Zm-33.819-16.573a3.034,3.034,0,0,1-.939,4.612c-1.495.729-3.835-.017-4.123-1.821a2.585,2.585,0,0,1,.018-.866.483.483,0,0,1-.293-.736,5.542,5.542,0,0,1,2.68-1.976A2.092,2.092,0,0,1,1604.821,1575.385Zm-1.769,1.4a7.247,7.247,0,0,1-1.669.516c.024.549.27,1.014.918,1.023C1603.218,1578.334,1603.7,1577.292,1603.052,1576.786Zm-11.5,27.693a4.181,4.181,0,0,1-4.54,3.539c-1.879-.175-3.586-1.554-2.963-3.583-.177-.6.4-1.315.571-1.935a1.242,1.242,0,0,1,1.223-.876q2.127.125,4.246.246C1591.206,1601.938,1591.679,1603.543,1591.549,1604.479Zm-2.3-.308c-.858-.017-1.72-.03-2.582-.047-.044.025-.092.045-.136.07a2.877,2.877,0,0,1-.562.606.731.731,0,0,0,.6,1.083C1587.739,1606.155,1589.437,1605.4,1589.25,1604.172Zm23.344-8.933a4.144,4.144,0,0,1-1.647,2.97c-1.5,1.234-4.443,1.815-5.522-.3-.644-1.26-.521-3.252.975-3.864a.713.713,0,0,1,.429-.023,5.081,5.081,0,0,1,3.888-1.263A2.424,2.424,0,0,1,1612.593,1595.239Zm-2.692-.373a1.112,1.112,0,0,0-.76-.587c-.762-.136-1.361.491-1.98.938a.981.981,0,0,0,.021,1.42c.6.543,1.685-.174,2.091-.625C1609.439,1595.832,1610.063,1595.1,1609.9,1594.867Zm-27.785-3.913a2.639,2.639,0,0,1-1.583-1.993,1.079,1.079,0,0,1-.585-.662c-.463-1.787.809-3.057,2.275-3.837a5.061,5.061,0,0,1,4.578-.256,1.483,1.483,0,0,1,1.009,1.413,6.216,6.216,0,0,1-1.521,4.47A3.779,3.779,0,0,1,1582.116,1590.953Zm.109-2.843a1.013,1.013,0,0,0,1.314.544,2.237,2.237,0,0,0,1.343-1.969,3.582,3.582,0,0,0-1.457.12,1.625,1.625,0,0,0-.315.134,1.212,1.212,0,0,0-.116.068c-.056.032-.113.071-.165.107a1.443,1.443,0,0,0-.147.116.685.685,0,0,0-.1.084c-.029.026-.058.055-.082.081s-.062.063-.091.1c.094-.076-.134.443-.165.574C1582.242,1588.08,1582.234,1588.091,1582.225,1588.11Zm-14.526,23.44a3.305,3.305,0,0,1-4.1,3.163,3.35,3.35,0,0,1-2.182-1.436,3.265,3.265,0,0,1-.426-2.309,2.1,2.1,0,0,1,.526-1.626,3.645,3.645,0,0,1,2.4-1.292A3.357,3.357,0,0,1,1567.7,1611.55Zm-2.115-.064c-.012-.895-.67-2.117-1.734-1.784a2.3,2.3,0,0,0-1.3,1.093,4.823,4.823,0,0,1-.42.556c.32.745.75,1.461,1.551,1.521C1564.551,1612.936,1565.6,1612.517,1565.585,1611.485Zm-6.173-17.6a2.53,2.53,0,0,1,.292-2.922,1.275,1.275,0,0,1,.618-.342,3.848,3.848,0,0,1,5.11.442c1.253,1.644,1.257,4.19-.863,5.133C1562.588,1597.076,1560.259,1595.7,1559.412,1593.886Zm4.738.149a1.572,1.572,0,0,0-1.079-2.245,6.438,6.438,0,0,0-2.529.4C1560.342,1593.464,1563.271,1595.552,1564.15,1594.035Zm-75.4-22.037a3.935,3.935,0,0,0-2.55.284,5.518,5.518,0,0,0-1.978.958.849.849,0,0,0,.132,1.322,5.333,5.333,0,0,0,2.084.541,3.963,3.963,0,0,0,2.6-.208A1.59,1.59,0,0,0,1488.749,1572Zm57.391,38.424a3.57,3.57,0,0,1-4.169,3.229,2.72,2.72,0,0,1-2.31-2.131,1.046,1.046,0,0,1-.409-.606,3.478,3.478,0,1,1,6.888-.492Zm-2.212-.07c-.006-.723-.7-1.773-1.563-1.448-.8.3-.926,1.044-.955,1.785a1.007,1.007,0,0,1-.249.635,3.834,3.834,0,0,0,.868.263C1542.718,1611.708,1543.94,1611.193,1543.929,1610.353Zm-3.2-19.143a1.467,1.467,0,0,1,.136-1.527c.3-.555.488-1.146,1.108-1.4a3.3,3.3,0,0,1,2.561.074,3.1,3.1,0,0,1,1.628,4.32,3.056,3.056,0,0,1-4.415,1.159A2.523,2.523,0,0,1,1540.727,1591.209Zm1.165.438c.459.966,1.417,1.7,2.329.745a1.284,1.284,0,0,0-1.124-2.2A2.113,2.113,0,0,1,1541.891,1591.648Zm-16.573,9.709a2.737,2.737,0,0,1-1.369,2.162c-.856.511-1.737-.21-2.4-.729a5.836,5.836,0,0,1-1.989-2.786,1.471,1.471,0,0,1-1.057-.343,1.989,1.989,0,0,1,.14-2.984c.959-.949,2.164-.544,3.175.018C1523.563,1597.663,1525.493,1599.14,1525.318,1601.357Zm-3.116-1.55a6.892,6.892,0,0,0-1.408-.81c0,.012,0,.008-.009.019-.067.086-.117.145-.158.2a1.112,1.112,0,0,1-.125.215,7.031,7.031,0,0,0,2.632,2.207C1523.494,1601.037,1522.686,1600.117,1522.2,1599.806Zm3.15-13.905a1.956,1.956,0,0,0,1.938-2.386,3,3,0,0,0-2.451-2.252,8.821,8.821,0,0,0-2.738-.721.548.548,0,0,0-.539.662,6.436,6.436,0,0,0,.983,2.368C1523.273,1584.8,1523.724,1585.837,1525.353,1585.9Zm-42.846,15.7a48.691,48.691,0,0,0-.173-6.205c-.009-.125-.2-.178-.235-.036a49.911,49.911,0,0,0-1.206,6.194C1480.788,1602.584,1482.44,1602.645,1482.506,1601.6Zm4.235.871a26.942,26.942,0,0,0-1.053-3.262,10.761,10.761,0,0,1-.2-3.688c.034-.325-.416-.346-.527-.088-.954,2.251-1.625,5.9.1,7.946C1485.772,1604.22,1486.843,1603.359,1486.741,1602.474Zm2.767.9a.636.636,0,0,0,.792-.749c-.1-.934-.967-1.745-1.374-2.6a10.484,10.484,0,0,1-.832-3.953c0-.085-.121-.135-.165-.052a5.73,5.73,0,0,0-.632,3.785C1487.471,1601.023,1488.181,1603.053,1489.508,1603.372Zm4.587-2.922c-1.146-1.463-2.311-2.947-3.339-4.5-.1-.157-.4-.131-.39.095a9.882,9.882,0,0,0,2.162,5.877C1493.384,1603.018,1494.94,1601.535,1494.1,1600.45Zm.39-2.38c.643.666,1.432,1.841,2.482,1.616a.438.438,0,0,0,.321-.394c.149-.995-1.039-1.706-1.688-2.271a15.4,15.4,0,0,0-2.734-1.984c-.268-.151-.649.139-.463.437A15.47,15.47,0,0,0,1494.485,1598.07Zm3.233-1.448c.712.471,2.351,1.889,3.093.7.683-1.085-.969-1.838-1.667-2.223a10.886,10.886,0,0,0-3.951-1.555.359.359,0,0,0-.325.53A9.715,9.715,0,0,0,1497.719,1596.622Zm.634-4.221a6.108,6.108,0,0,0,.687,1.127,3.171,3.171,0,0,0,2.543,1.091,1.05,1.05,0,0,0,.34-2.045c-.647-.176-1.285-.383-1.923-.578a4.558,4.558,0,0,1-.852-.343c-.2-.109-.4-.049-.607-.127a.153.153,0,0,0-.194.141C1498.35,1591.947,1498.231,1592.135,1498.352,1592.4Zm4.068-1.222c1.158-.133.744-1.964-.433-1.781a2.855,2.855,0,0,1-2.295-.319c-.232-.157-.493.124-.381.356A3.021,3.021,0,0,0,1502.42,1591.18Zm-1.873-4.1c.939.511,1.957,1.147,2.841.218a.485.485,0,0,0,.022-.675c-.827-.979-1.881-.409-2.852.046A.239.239,0,0,0,1500.547,1587.075Zm1.791-4.144a2.77,2.77,0,0,0-1.022.763.639.639,0,0,0,.248,1.056,2.631,2.631,0,0,0,1.247.147,1.073,1.073,0,0,0,1.079-1.012.847.847,0,0,0-.129-.536A1.076,1.076,0,0,0,1502.338,1582.932Zm-1.12-1.855a2.1,2.1,0,0,0,1.663.078.45.45,0,0,0,.025-.861,2.105,2.105,0,0,0-1.666-.023A.422.422,0,0,0,1501.218,1581.077Zm-23.618,20.555a1.231,1.231,0,0,0,.971.156,1.286,1.286,0,0,0,.964-1.19c.193-1.921.408-3.814.486-5.745a.152.152,0,0,0-.254-.111,11.528,11.528,0,0,0-2.707,5.441A1.291,1.291,0,0,0,1477.6,1601.631Zm-2.527-1.724c.352-.874.481-1.788.91-2.646a11.444,11.444,0,0,1,1.614-2.381.329.329,0,0,0-.382-.527c-1.916,1.028-3.79,2.986-4.076,5.232C1472.992,1600.763,1474.685,1600.869,1475.073,1599.908Zm-4.606-2.349a.769.769,0,0,0,.9.4c.614-.129.8-.768,1-1.262a12.071,12.071,0,0,1,2.27-3.048.059.059,0,0,0-.037-.1,3.624,3.624,0,0,0-2.8.932C1471.082,1595.105,1469.927,1596.564,1470.467,1597.558Zm-2.3-5.131c-1.157.747-.14,2.647,1.029,1.888a26.346,26.346,0,0,0,2.729-2.023.179.179,0,0,0-.069-.3A4.308,4.308,0,0,0,1468.169,1592.427Zm1.337-2.7c.1-.053.033-.173-.061-.162-.145.015-.826-.1-1.039-.121a12.474,12.474,0,0,0-1.425.041c-1.8.047-.793,2.708.444,1.856l1.229-.845C1468.958,1590.284,1469.2,1589.912,1469.506,1589.727ZM1467,1586c.467-.074.033-.247.6.042.193.1.488-.1.337-.316a2.546,2.546,0,0,0-1.59-1.309c-1.676-.405-1.408,2.44.172,1.712A1.3,1.3,0,0,1,1467,1586Zm.1-4.363a3.713,3.713,0,0,0,1.63.729.423.423,0,0,0,.492-.6,3.691,3.691,0,0,0-1.042-1.446A.855.855,0,1,0,1467.1,1581.64Zm4.017-15.011a.7.7,0,0,0,.222.961.864.864,0,0,0,.274.1c.383.037.637-.271.994-.314a.447.447,0,0,0,.342-.42C1472.922,1565.894,1471.621,1565.876,1471.12,1566.629Zm4.533-3.757a.665.665,0,0,0-.66.81c.194.909,1.174,1.943,2.171,1.56a.718.718,0,0,0,.522-.647C1477.8,1563.536,1476.6,1562.82,1475.653,1562.872Zm5.6-.576a.456.456,0,0,0-.221.746c.594.651,1.155,1.11,2.03.677a.577.577,0,0,0,.226-.772C1482.861,1562.079,1482.092,1562.144,1481.251,1562.3Zm7.219-.866a3.683,3.683,0,0,0-.952-.213.88.88,0,0,0-.666,1.47,3.723,3.723,0,0,0,.754.626C1488.86,1564.126,1489.922,1561.966,1488.471,1561.43Zm-20.578,15.342c.508-.123,1.258.378,1.765.472a.331.331,0,0,0,.425-.3c.027-.628-.381-.9-.913-1.124s-1.145.387-1.407.772A.122.122,0,0,0,1467.893,1576.771Zm1.546-5.188a1.8,1.8,0,0,0,1.8-.051.45.45,0,0,0,.024-.772,1.8,1.8,0,0,0-1.794-.159A.514.514,0,0,0,1469.439,1571.584Zm144.544-55.5c5.115,7.489,14.057,11.574,22.823,12.62.034,0,.042-.05.01-.059-8.776-2.323-14.91-7.446-20.912-13.952C1615,1513.718,1613.2,1514.942,1613.983,1516.084Zm2.169-8.245c4.313,6.013,12.258,10.3,18.97,13.017.188.076.328-.23.148-.323a56.321,56.321,0,0,1-8.986-5.774c-3.139-2.46-5.319-5.638-8.165-8.344C1617.166,1505.508,1615.3,1506.655,1616.152,1507.84Zm3.431-8.562c-.448-.344-.9.185-.854.615.364,3.237,4.01,6.515,6.4,8.472a27.074,27.074,0,0,0,12.187,5.858.15.15,0,0,0,.088-.286,36.675,36.675,0,0,1-11.252-6.817C1623.578,1504.816,1622.24,1501.322,1619.582,1499.278Zm1.877-3.888a25.8,25.8,0,0,0,16.019,12.631c.219.059.394-.271.173-.377a31.91,31.91,0,0,1-14.145-13.368A1.166,1.166,0,0,0,1621.459,1495.39Zm5.064-8.129a.844.844,0,0,0-1.534.153c-.833,3.24,1.929,6.323,4.123,8.393,3.58,3.378,8.448,5.121,12.535,7.77.2.129.365-.163.19-.3-3.227-2.6-6.867-4.628-9.99-7.356a17.211,17.211,0,0,1-3.5-4.32C1627.54,1490.213,1627.371,1488.616,1626.524,1487.261Zm4.151-7.2a.571.571,0,0,0-.956.221c-.71,3.073,2.154,6.965,3.951,9.259a20.959,20.959,0,0,0,9.317,6.468c.284.1.495-.347.222-.485a23.047,23.047,0,0,1-10.806-11.412C1631.758,1482.7,1631.669,1481.257,1630.675,1480.062Zm3.922-5.952c-.047,3.129,2.308,6.416,3.921,8.983a33.2,33.2,0,0,0,7.205,7.845.15.15,0,0,0,.218-.2,61.411,61.411,0,0,1-5.894-8.473c-1.626-2.726-2.248-6.185-4.211-8.619A.722.722,0,0,0,1634.6,1474.11Zm6.958-4.709c-.53-.666-1.427.021-1.322.716.4,2.62,2.146,5.161,3.416,7.458,1.308,2.367,2.59,5.012,4.784,6.669.238.18.558-.094.494-.356-.64-2.6-2.37-4.868-3.622-7.214C1644.042,1474.306,1643.219,1471.5,1641.554,1469.4Zm6.534-4.745a.635.635,0,0,0-1.151.115c-.816,2.074.358,4.8,1.153,6.768a21.748,21.748,0,0,0,4.815,7.729c.286.274.785-.05.576-.417a44.63,44.63,0,0,1-3.573-7.049C1649.1,1469.533,1649.365,1466.643,1648.088,1464.656Zm7.244,2.731c-.709-2.027-.521-4.235-1.25-6.206a.483.483,0,0,0-.922-.028c-1.574,4.532,2.5,10.3,5.63,13.18a.15.15,0,0,0,.218-.2A20.334,20.334,0,0,1,1655.332,1467.387Zm7.676-5.225c-.472-1.976-.128-4.27-1.143-6.029a.635.635,0,0,0-1.151.115c-.832,1.913.157,4.388.727,6.3a24.122,24.122,0,0,0,3.669,6.96.209.209,0,0,0,.367-.2A33.172,33.172,0,0,1,1663.008,1462.162Zm-19.274,54.157a.271.271,0,0,0-.458.248,11.242,11.242,0,0,0,.915,2.5,5.349,5.349,0,0,0,1.653,2.258.423.423,0,0,0,.641-.341,4.575,4.575,0,0,0-.885-2.265A12.524,12.524,0,0,0,1643.734,1516.319Zm1.659-5.532a5.619,5.619,0,0,0,3.237,5.48c.281.118.509-.288.306-.49a9.94,9.94,0,0,1-3.012-5.046A.27.27,0,0,0,1645.394,1510.787Zm6.917-1.08c-.488-2.495-2.4-4.559-4-6.428-.093-.109-.307,0-.254.138.852,2.3,1.711,4.976,3.644,6.62A.361.361,0,0,0,1652.311,1509.707Zm3.359-6.977c-.516-1.123-1.253-2.1-1.769-3.227a17.061,17.061,0,0,1-1.261-3.82c-.014-.07-.111-.052-.118.012-.295,2.645.367,5.875,2.77,7.392A.27.27,0,0,0,1655.67,1502.73Zm2.349-13.094c.709,2.63.531,5.664,2.323,7.9a.392.392,0,0,0,.672-.254c.12-2.843-1.843-5.2-2.817-7.716C1658.156,1489.465,1657.991,1489.533,1658.019,1489.636Zm5.254-4.513c-.058-.257-.5-.224-.472.049.18,1.912.558,5,2.261,6.214.256.182.534-.095.493-.356a9.79,9.79,0,0,0-1.177-2.622A14.65,14.65,0,0,1,1663.272,1485.123Zm6.172-7.462c-.626,2.729-.554,6.575,1.763,8.545.262.223.8.052.661-.358-.427-1.271-1.093-2.435-1.53-3.71a10.522,10.522,0,0,1-.427-4.4A.24.24,0,0,0,1669.445,1477.661Zm5.164-4.187c.162,2.52.326,6.008,2.01,8.024.241.287.629.05.672-.254a8.857,8.857,0,0,0-.835-4.049,26.017,26.017,0,0,0-1.678-3.761C1674.737,1473.36,1674.6,1473.382,1674.608,1473.474Zm5.419-4.365c-.079,2.214.065,5.483,2.065,6.905a.421.421,0,0,0,.64-.342,11.355,11.355,0,0,0-1.078-3.119c-.436-1.169-.983-2.27-1.332-3.474A.15.15,0,0,0,1680.027,1469.109Zm4.78-3.709a.15.15,0,0,0-.294.031c-.213,2.12-.127,6.033,2.21,7.053a.511.511,0,0,0,.657-.47,6.292,6.292,0,0,0-1.037-2.712A23.234,23.234,0,0,1,1684.808,1465.4Zm4.985-3a3.925,3.925,0,0,0,1.673,4.233.421.421,0,0,0,.589-.554,7.1,7.1,0,0,1-.769-3.634C1691.4,1461.476,1689.943,1461.477,1689.793,1462.4Zm-76.456,61.3c6.673,5.1,13.72,8.326,22.12,9.148a.15.15,0,0,0,.048-.292,43.891,43.891,0,0,1-20.739-10.6A1.131,1.131,0,1,0,1613.336,1523.7Zm9.216,9.38c-3.075-1.455-5.964-4.5-9.21-5.239a.6.6,0,0,0-.7.857c1.255,2.818,5.12,4.609,7.878,5.7a33.205,33.205,0,0,0,12.881,2.448c.1,0,.132-.155.029-.175A47.036,47.036,0,0,1,1622.553,1533.079Zm-10.039,3.743c5.261,4.218,13.449,7.325,20.143,5,.073-.026.1-.156.005-.173-7.144-1.215-13-2.224-18.847-6.908C1612.581,1533.755,1611.3,1535.846,1612.514,1536.821Zm-.147,5.958c4.889,4.372,13.444,4.911,19.535,3.625a.09.09,0,0,0-.019-.177,46.858,46.858,0,0,1-10.3-1.154c-3.034-.714-5.654-2.406-8.606-3.275C1612.438,1541.639,1611.9,1542.363,1612.367,1542.779Zm.638,5.765c2.024,1.62,5.042,1.654,7.563,1.887a30.156,30.156,0,0,0,9.978-.783.15.15,0,0,0-.031-.295c-2.873-.087-5.794-.308-8.656-.595s-5.832-1.628-8.695-1.194C1612.65,1547.643,1612.686,1548.287,1613.006,1548.544Zm1.193,5.31a29.286,29.286,0,0,0,18.134-1.218.179.179,0,0,0-.084-.348,44.539,44.539,0,0,1-17.468-.319C1613.56,1551.73,1612.95,1553.519,1614.2,1553.853Zm2.242,4.115c4.791,2.537,12.36.068,16.544-2.67.08-.052.039-.2-.064-.166a53.919,53.919,0,0,1-7.513,1.658c-2.959.437-5.893-.47-8.773-.019A.662.662,0,0,0,1616.44,1557.968Zm.863,5.057c5.979.475,12.214-1.913,17.314-4.844a.09.09,0,0,0-.086-.158c-5.687,2.374-11.116,2.7-17.171,3.149A.927.927,0,0,0,1617.3,1563.026Zm1.13,4.81c5.965.257,11.193-2.562,15.617-6.248.105-.088-.022-.258-.139-.192-4.891,2.765-10.248,3.519-15.7,4.261C1616.937,1565.828,1617.227,1567.783,1618.433,1567.835Zm.332,3.2c2.741.843,6.046-.463,8.646-1.391,2.914-1.039,4.888-2.845,7.243-4.754.08-.064-.017-.2-.1-.144a38.845,38.845,0,0,1-8.583,3.385c-2.41.749-5.059.55-7.333,1.589A.723.723,0,0,0,1618.766,1571.031Zm3.335,3.876c2.614.205,5.238-1.44,7.646-2.346,2.479-.932,4.867-1.913,7.25-3.066.1-.047.031-.18-.064-.166-2.939.447-5.784,1.091-8.672,1.8-2.3.566-4.872.716-6.747,2.228C1620.865,1573.881,1621.381,1574.85,1622.1,1574.907Zm46.362-122.6a.587.587,0,0,0-.7-.123c-1.788.771-1.173,3.671-.85,5.209a12.342,12.342,0,0,0,3.517,6.374c.092.082.258-.01.188-.132a12.9,12.9,0,0,1-2.093-6.384C1668.484,1455.652,1669.551,1453.629,1668.463,1452.311Zm7.181-3.615a1.5,1.5,0,0,0-.322-.059,1.237,1.237,0,0,0-1.274,1.161,16.021,16.021,0,0,0,1.277,8.328c.319.776,1.664.286,1.386-.51a12.965,12.965,0,0,1-.286-7.383A1.248,1.248,0,0,0,1675.644,1448.7Zm8.243-2.73a1,1,0,0,0-1.084-.342,1.11,1.11,0,0,0-.825.752,13.254,13.254,0,0,0,.061,6.193.977.977,0,0,0,1.9-.431,10.482,10.482,0,0,1,.184-5.061A1.138,1.138,0,0,0,1683.887,1445.966Zm4.448-1.8a9.49,9.49,0,0,0,.069,5.715c.269.863,1.629.582,1.388-.314a6.977,6.977,0,0,1,.463-4.775C1690.751,1443.6,1688.749,1442.923,1688.335,1444.167Zm6.435,4.225c.265-.807.64-1.553.911-2.356.246-.728.6-1.555-.033-2.184a.561.561,0,0,0-.541-.17c-.824.273-.943.957-1.053,1.739-.132.932-.144,1.858-.284,2.788C1693.682,1448.8,1694.595,1448.927,1694.771,1448.392Zm-3.668,46.882c-1.931-5.186-3.939-10.348-5.924-15.514-.068-.176-.358-.066-.308.113,1.491,5.347,2.96,10.7,4.507,16.035A.923.923,0,1,0,1691.1,1495.274Zm4.655-1.248a50.494,50.494,0,0,0-4.671-16.634c-.359-.777-1.517-.162-1.173.614a44.386,44.386,0,0,1,3.655,16.213A1.1,1.1,0,1,0,1695.757,1494.026Zm3.249-.5c.26.579,1,.369,1.215-.1,1.184-2.591.109-6.415-.438-9.1a47.6,47.6,0,0,0-3.593-10.485c-.372-.8-1.54-.167-1.2.63a44.4,44.4,0,0,1,2.971,10.268C1698.427,1487.572,1697.832,1490.9,1699.006,1493.521Zm7.479-1.275a38.581,38.581,0,0,0-6.054-23.966c-.292-.463-1.042-.087-.762.4a37.018,37.018,0,0,1,4.469,23.457C1703.957,1493.634,1706.346,1493.757,1706.485,1492.246Zm5.083.868a.687.687,0,0,0,1.17.055c2.09-2.775.169-8.767-.548-11.857a47.452,47.452,0,0,0-5.548-13.476c-.283-.473-1.041-.084-.762.4a40.643,40.643,0,0,1,4.684,12.384,39.4,39.4,0,0,1,.579,6.961C1711.188,1489.5,1710.585,1491.4,1711.568,1493.114Zm-15.4-29.684c.7.588,1.57-.41,1.225-1.116a12.23,12.23,0,0,0-.868-1.278,3.8,3.8,0,0,1-.566-1.825.266.266,0,0,0-.516-.094C1694.915,1460.544,1694.938,1462.4,1696.167,1463.43Zm4.977-3.467a.956.956,0,0,0,1.171-.1.984.984,0,0,0,.063-1.358,3.694,3.694,0,0,1-.9-2.75.831.831,0,0,0-1.613-.3A4.331,4.331,0,0,0,1701.144,1459.963Zm14.011,29.3c.218,1.588,2.344,1.473,2.9.209.789-1.8.494-4.322.354-6.235a25.457,25.457,0,0,0-1.221-6.7c-1.387-3.9-3.013-7.932-6.2-10.711-.095-.083-.211.067-.14.157a20.738,20.738,0,0,1,4.207,11.276c.17,2.056.363,4.1.359,6.167C1715.412,1485.337,1714.9,1487.373,1715.155,1489.26Zm6.7.562a1.147,1.147,0,0,0,2.286.164c.13-1.9-.135-3.815-.175-5.722a54.589,54.589,0,0,0-.46-6.087,21.6,21.6,0,0,0-3.855-10.12c-.086-.116-.287.016-.211.139a22.556,22.556,0,0,1,2.934,10.207,47.913,47.913,0,0,1,.052,5.75C1722.35,1486.069,1721.908,1487.92,1721.85,1489.823Zm7.609-.163c1.009-2.61.908-5.644.656-8.38a16.59,16.59,0,0,0-2.61-8.1c-.071-.1-.229.011-.175.116,2.322,4.511,1.933,11.042.026,15.62C1726.8,1490.241,1728.941,1491,1729.459,1489.659Zm7.44,1.36c1.72-5.164.456-11.217-1.308-16.2-.042-.12-.213-.045-.2.068.619,4.939,1.309,10.639-.734,15.338C1734.05,1491.625,1736.412,1492.482,1736.9,1491.019Zm4.736,1.92a.5.5,0,0,0,.841.061,4.714,4.714,0,0,0,.841-2.786c.172-1.3.338-2.6.425-3.9a13.108,13.108,0,0,0-1.343-6.5c-.122-.253-.47-.064-.381.187.886,2.506.555,4.953.129,7.505C1741.874,1489.143,1740.852,1491.366,1741.635,1492.939Zm7.558-4.211a20.776,20.776,0,0,0-.647-6.729c-.011-.055-.087-.036-.083.017.157,2.4-.527,4.876-.882,7.237-.3,1.992-1.107,4.45-.34,6.374.2.505.867.345,1.054-.061a8.082,8.082,0,0,0,.459-2.948C1748.857,1491.318,1749.043,1490.024,1749.193,1488.728Zm3.29,8.189a.45.45,0,0,0,.8.165c1.653-2.336,1.482-6.552.217-9.016a.107.107,0,0,0-.2.068,18.737,18.737,0,0,1-.231,4.57A14.425,14.425,0,0,0,1752.483,1496.917Zm-47.788-42.617c-.187-.152-.451.145-.281.314a8.868,8.868,0,0,1,1.949,2.654c.376.838.367,1.914,1.126,2.507a.556.556,0,0,0,.833-.271c.341-.956-.435-1.817-.994-2.53A17.023,17.023,0,0,0,1704.695,1454.3Zm6.725,1.288a12.345,12.345,0,0,1,3.708,4.821.738.738,0,0,0,.814.4c1.659-.533-.8-3.165-1.292-3.634a8.225,8.225,0,0,0-3.077-1.889A.171.171,0,0,0,1711.42,1455.588Zm48.155,41.178c-.061,1.385-.838,2.744.128,3.921a.8.8,0,0,0,.966.2c1.482-.93,1.051-2.72.765-4.233a11.99,11.99,0,0,0-2.232-4.877c-.169-.227-.475.024-.386.256A11.553,11.553,0,0,1,1759.575,1496.766Zm9.256,15.649c-2.851-3.95-6.943-5.839-11.588-6.791l0,.007a11.554,11.554,0,0,0,.9,1.762c.762,1.206,1.612,2.331,2.446,3.486.871,1.207,4.2,5.537,5.193,2.353.06-.191.391-.184.408.029.306,3.7-3.741,1.968-5.54.918a16.113,16.113,0,0,1-4.9-4.32c-.246-.329-.484-.674-.71-1.027a6.752,6.752,0,0,1-.969.338h0c-3.193,1.693-7.58,1.5-10.77.4-2.146-.742-6.475-2.983-8.146-5.7h0a4.259,4.259,0,0,1-.664-1.922,4.255,4.255,0,0,0,.663,1.923,14.423,14.423,0,0,1-11.482,5c-3.82-.23-8.768-1.254-11.239-4.338v0a7.036,7.036,0,0,1-.65-.973,7.112,7.112,0,0,0,.649.976,14.656,14.656,0,0,1-4.019,6.029c-.36.322-.76.665-1.192,1.01,16.208,12.977,24.112,35.6,19.358,55.835a38.758,38.758,0,0,1-7.821,15.136,56.9,56.9,0,0,1-6.989,7.219,9.934,9.934,0,0,0-1.334,1.534c-8.959,7.827-20.032,13.433-31.287,15.017a55.268,55.268,0,0,1-24.664.6c-12.562-2.5-27.005-8.048-36.191-17.934a7.051,7.051,0,0,1,1.462,3.04c1.434,7.637-5.152,11.888-12.007,12.616-3.906.411-6.986.852-8.493-3.313-.054.133-.109.27-.17.4.372,1,.681,2,0,2.927-.009.011-.02.014-.029.026a8.394,8.394,0,0,1-4.532,7.073c-4.756,2.68-12.214,4.193-15.524-.82-.283.547-.581,1.071-.821,1.544-.9,1.768-1.918,3.985-3.533,5.2a.505.505,0,0,1-.562.027,12,12,0,0,1-4.339,2.928c-6.575,2.543-14.279-.855-15.724-7.932-.018-.087-.017-.172-.032-.258a9.31,9.31,0,0,1-8.229,6.729c-6.529.392-15.316-4.046-14.429-11.618a7.785,7.785,0,0,1,.232-1.009,8.054,8.054,0,0,1-.7.746,5.14,5.14,0,0,1-1.737,1.454c-7.524,4-16.044-2.921-17.8-10.587a8.733,8.733,0,0,1-4.666,3.295c-.862.193-1.939.265-2.466-.317-6.383,6.394-14.42,9.713-24.052,7.288-10.69-2.687-21.827-9.868-21.157-22.373a39.6,39.6,0,0,1,3.768-15.565c4.9-25.059,48.987-14.794,64.132-7.889,15.827,7.211,36.92,21.43,52.93,6.594,9.3-8.616,13.308-22.719,22.367-31.17a107.451,107.451,0,0,1,6.615-40.744c4.91-13.123,11.971-22.455,22.229-31.9,5.083-4.686,9.682-10.6,15.493-14.22a164.817,164.817,0,0,1,22.805-12.15c1.076-.455,2.166-.887,3.256-1.3l.009,0a53.475,53.475,0,0,1,10.864-3.729,78.041,78.041,0,0,1,27.162-.959c14.723,2.1,33.051,2.386,43.483,14.755a.255.255,0,0,1-.385.333c-5.34-5.742-13.305-8.262-20.824-9.674a98.837,98.837,0,0,0-23.032-1.442c-4.2.213-8.451-.046-12.665.056a91.136,91.136,0,0,0-12.885,1.2q-.665.112-1.325.231c-1.472.262-2.928.551-4.371.883,1.444-.332,2.9-.62,4.371-.881-1.4.466-2.815.918-4.276,1.326a74.908,74.908,0,0,0-13.93,5.76c-12.288,6.755-24.159,14.733-33.258,25.557a99.467,99.467,0,0,0-18.1,32.586,102.968,102.968,0,0,0-4.272,18.243c-.434,3.1-.706,6.214-.874,9.341a95.408,95.408,0,0,0,1.859,24.525c3.437,16.552,9.383,30.7,25.361,38.557,18.576,9.138,38.124,9.729,57.284,2.011,8.045-3.238,15.652-7.961,21.176-14.644,13.936-16.869,11.737-46.147-5.788-59.812a28.506,28.506,0,0,0-15.079-5.992c-.161.24-.333.475-.51.71a4.51,4.51,0,0,1,2.771-.284.721.721,0,0,1,.278,1.2c-1.456,1.368-3.791,1.618-5.469,2.772a19.616,19.616,0,0,0-5.286,5.137c-.145.221-.528.063-.428-.2a17.033,17.033,0,0,1,1.67-3.307,14.6,14.6,0,0,1-4.305,1.364.13.13,0,0,1,0,.1c-.373.893-.841,1.749-1.27,2.615-.171.34-.7.018-.507-.317.456-.786.894-1.59,1.395-2.347a11.037,11.037,0,0,1-2.229.027c-.016.01-.017.026-.03.041a2.7,2.7,0,0,0-.973,2.457c.031.476-.628.454-.767.081a4.582,4.582,0,0,1-.046-2.922,9.037,9.037,0,0,1-2.386-1.1c0,.007,0,.016-.006.023-.091.166-.177.328-.268.486,1.323,4.49-.487,9.235-2.745,13.185-.16.283-.332.584-.509.889a8.707,8.707,0,0,1,7.737-.659c4.322,1.669,8.985,7.722,10.523,11.971a13.753,13.753,0,0,1,.74,6.552,8.367,8.367,0,0,1,2.781-1.562c.951-.265,2.134-.7,3.046-.194a.483.483,0,0,1,.075.754c-.779.586-1.873.482-2.8.776a19.741,19.741,0,0,0-3.086,1.113.307.307,0,0,1-.176.018,13.71,13.71,0,0,1-8.178,9.779c-3.621,1.841-7.528,2.411-11.613,2.695a21.577,21.577,0,0,1-9.465-7.208c-9.474-14.174-2.131-31.587,8.232-42.97a62.064,62.064,0,0,1,12.123-10.335,38.358,38.358,0,0,1,12.677-7.739,29.708,29.708,0,0,1,6.523-1.473,62.176,62.176,0,0,1,6.733-1.888,70.872,70.872,0,0,1,22.157-1.428,44.191,44.191,0,0,1,6.573,1.1c-.109-.006-.218-.007-.327-.007.109,0,.218,0,.327.009a22.754,22.754,0,0,1,4.056.881c2.257.567,4.508,1.186,6.7,1.96a36.038,36.038,0,0,1,6.857,2.83,25.67,25.67,0,0,1,5.145,1.69,23.273,23.273,0,0,1,10.276,9.036C1769.209,1512.4,1768.944,1512.572,1768.831,1512.416ZM1663.5,1548.743a10.617,10.617,0,0,1,1.381,2.405,15.4,15.4,0,0,0-.424-3.6c-.372-1.409-1.3-2.794-1.8-4.209a2.073,2.073,0,0,1-.375-.184,17.032,17.032,0,0,0-.11,3.554,22.565,22.565,0,0,0,2.052,8.052,39.242,39.242,0,0,0-1.032-5.853C1663.16,1548.743,1663.382,1548.6,1663.5,1548.743Zm9.909,14.459a37.747,37.747,0,0,0-4.456-2.877c-.906-.424-1.651-.714-2.274-1.037a8.967,8.967,0,0,0,4.434,2.915.948.948,0,0,0,.888,1.022C1672.469,1563.23,1672.94,1563.222,1673.407,1563.2Zm-5.973-21.5c-2.221.513-3.467.625-2.084,2.79a21.856,21.856,0,0,1,1.769,3.384,12.489,12.489,0,0,1,.752,5.787c-.431,3.665,2.415,3.731,4.949,5.525,1.6,1.135,3.08,1.969,3.995,3.617a16.583,16.583,0,0,0,4.513-1.589c4.26-2.575,7.137-6.6,4.108-11.71C1681.419,1542.735,1675.117,1539.922,1667.434,1541.7Zm5.5-18.345a46.923,46.923,0,0,0-4.341,5.544,51.737,51.737,0,0,0-4.7,8.5c1.15-1.673,2.7-3.083,3.927-4.736.1-.131.333-.043.269.124-.4,1.038-.7,2.107-1.005,3.162a10.541,10.541,0,0,0,1.85-2.213C1670.94,1530.46,1672.63,1527.158,1672.932,1523.358Zm10.162-4.258c.114-.039.227-.082.341-.125-.17.065-.343.126-.515.186C1682.978,1519.141,1683.038,1519.123,1683.094,1519.1Zm7.732-8.829a.013.013,0,0,0,0-.012,7.166,7.166,0,0,0-.424-1.668,2.3,2.3,0,0,0-.453-.8,1.074,1.074,0,0,0-.279-.214c-.66-.352-1.448.106-2.048.554-2.243,1.678-6.237,4.062-7.612,6.542-.968,1.742-.258,2.03.9,1.757h0a15.114,15.114,0,0,0,3.613-1.62c.109-.064.2-.125.282-.179.246-.161.436.2.278.385a18.149,18.149,0,0,1-6.6,5.133c.293-.026.591-.064.9-.113.282-.042.569-.1.852-.154a.086.086,0,0,0,.026,0c.052-.01.1-.023.157-.034-.048.01-.1.023-.145.032l.173-.037.22-.046c.029-.006.057-.014.085-.021-.111.025-.222.049-.334.072.142-.029.285-.062.428-.095s.261-.06.392-.095h0l.042-.011,0,0c.06-.014.125-.031.189-.048l.124-.033.042-.011.031-.008.163-.043.022-.007h0c.168-.048.336-.1.5-.155l.134-.042.028-.008c.315-.1.631-.209.945-.327l.026-.01c.259-.1.517-.2.768-.306.123-.052.243-.107.363-.163a.172.172,0,0,0,.04-.017l.18-.083c3.013-1.405,5.594-3.608,5.977-6.56A6.18,6.18,0,0,0,1690.826,1510.272Zm-19.813-68.617c-3.894,1.548-7.507,3.666-11.344,5.314h0C1663.505,1445.322,1667.12,1443.2,1671.013,1441.655Zm-65.756,128.795c-.158-.032-.3-.044-.443-.068a16.494,16.494,0,0,0-1.884.955,9.987,9.987,0,0,0-3.382,3.336c-.713,1.281-1.986,4.164-1,5.622,1,1.483,3.336,1.991,5.011,1.638,3.276-.7,7.022-3.936,5.755-7.735a5.8,5.8,0,0,0-1.117-1.924.826.826,0,0,1-.195-.066,3.117,3.117,0,0,1-1.069-1.035A5.028,5.028,0,0,0,1605.257,1570.45Zm-95.425,24.045a5.172,5.172,0,0,0-.071-1.026,11.915,11.915,0,0,1-1.6,3.046c-.652.881-1.336,1.717-2.039,2.529.1-.057.189-.114.282-.171q.714-.479,1.386-1.015C1508.7,1597.009,1509.789,1595.842,1509.833,1594.5Zm-.535-15.974c-.462-.08-.927-.184-1.387-.292a7.017,7.017,0,0,1,.47,2.37c.06.1.125.19.186.29a1.322,1.322,0,0,1,.283.09c4.216,2.164,4.216-4.214,1.982-6.236a17.713,17.713,0,0,0-4.008-2.681,11.033,11.033,0,0,0-4.94-1.463,6.559,6.559,0,0,0-1.38.214,6.967,6.967,0,0,1,2.453,1.245,16.912,16.912,0,0,1,1.827,1.583c2.378.355,4.5,1.154,5.741,3.381C1511.02,1577.907,1510.145,1578.67,1509.3,1578.522Zm3.144,12a24.518,24.518,0,0,0-1.844-2.463c.005.175,0,.35,0,.525a5.6,5.6,0,0,1,1.708,2.105c.032-.022.053-.056.086-.077C1512.412,1590.582,1512.425,1590.552,1512.442,1590.521Zm-2.026-5.586a10.193,10.193,0,0,1,3.626,2.007c.274.241.638.537.977.871.035-.01.064-.031.1-.041.085-.194.161-.384.231-.582a19.466,19.466,0,0,0-2.819-2.821,5.659,5.659,0,0,1-.993.17l-.71.329c-.1.048-.192-.108-.084-.156s.219-.1.331-.152a6.87,6.87,0,0,1-1.015-.053,16,16,0,0,1,.469,2.517,6.526,6.526,0,0,1,3.139,1.836c.022-.041.047-.083.073-.124a6.26,6.26,0,0,0-.608-.932,15.371,15.371,0,0,0-2.836-2.6A.15.15,0,0,1,1510.416,1584.935Zm12.448,10.337c-2.812-1.565-5.351-1.606-8.42-1.635-.027.061-.034.126-.069.191a.992.992,0,0,1-.416.428,10.315,10.315,0,0,0,3.067,7.689c2.121,2.109,5.964,4.749,9.165,3.542C1531.245,1603.578,1525.314,1596.638,1522.864,1595.273Zm-3.7-14.725a8.318,8.318,0,0,0,6.141,7.414c3.568.76,4.784-4.019,3.22-6.477-1.5-2.354-4.15-3.346-5.811-5.406a3.07,3.07,0,0,0-.516.115A4.656,4.656,0,0,0,1519.162,1580.548Zm15.867,16.056a16.748,16.748,0,0,0-.9-2.118,1.161,1.161,0,0,1-1.053-.424,22.674,22.674,0,0,1-2.287-3.094,1.4,1.4,0,0,1-.732.157,7.665,7.665,0,0,1-5.953.949,14.144,14.144,0,0,1,3.723,2.84c1.765,1.941,3.893,5.582,4.04,8.785.033-.037.066-.07.1-.107a1.4,1.4,0,0,1-.136-.482c-.169-1.976.206-3.747-.781-5.606a19.9,19.9,0,0,0-2.927-3.942.029.029,0,0,1,.037-.044,10.118,10.118,0,0,1,3.951,4.046c.452.818.954,1.635,1.373,2.483-.056-3.307-2.031-5.711-4.479-7.889-.078-.066.03-.193.113-.137A29.887,29.887,0,0,1,1535.03,1596.6Zm9.292,8.959c-2.917-.595-5.563.084-8.385.229-1.54,1.534-1.973,3.714.314,5.832,2.7,2.5,8.177,5.212,11.684,2.692C1552.893,1610.75,1548.722,1606.463,1544.322,1605.563Zm-7.24-15.755a5.724,5.724,0,0,0,2.811,4.433c2.2,1.309,5.708,2.6,8.085.889,3.341-2.4-.649-8.253-3.333-9.659a4.1,4.1,0,0,0-1.048-.378C1540.674,1584.447,1536.8,1586.555,1537.082,1589.808Zm15.374,15.923q-.238-.271-.5-.528l-.006-.005Q1552.215,1605.458,1552.456,1605.731Zm.378.464c.042-.071.082-.145.128-.212-.047.066-.086.14-.13.21Zm.158-.255c-.07-.037-.138-.078-.206-.119.068.041.136.083.205.12Zm.891-2.294c-.107-.1-.214-.2-.344-.307-.724-.608-1.5-1.094-2.26-1.646a21.494,21.494,0,0,0-3.4-2.111,9.2,9.2,0,0,1-1.7.3,11.869,11.869,0,0,1-3.451-.287,1.489,1.489,0,0,1-.691.327,15.746,15.746,0,0,0-2.546.689c-.3.108-.665.223-1.008.371-.028.142-.074.276-.113.417a6.347,6.347,0,0,1,1.463.249c4.114-.511,8.917.741,11.741,3.208a11.267,11.267,0,0,0-1.914-1.627,19.4,19.4,0,0,0-7.317-2.466c-.154-.024-.214-.269-.034-.293a12.96,12.96,0,0,1,7.448,1.226,11.735,11.735,0,0,1,3.98,2.707C1553.791,1604.154,1553.837,1603.9,1553.882,1603.646Zm.223-2.308c0-.147.009-.3.013-.446a12.593,12.593,0,0,0-3.379-2.747,7.6,7.6,0,0,1-1.849,1.093,10.935,10.935,0,0,1,3.285,1.024C1552.756,1600.575,1553.448,1600.925,1554.1,1601.339Zm.414-3.37a8.3,8.3,0,0,1-.469-1.142.888.888,0,0,1-.106.021,3.254,3.254,0,0,1-1.6-.521,7.463,7.463,0,0,1-1.046,1.318,10.316,10.316,0,0,1,2.972,1.344,7.278,7.278,0,0,1,.142-.8A1.415,1.415,0,0,1,1554.519,1597.969Zm7.735.609c2.89.236,10.153-.838,8.541-5.569a7.6,7.6,0,0,0-3.54-3.7c-1.323-.8-2.35-2.04-3.9-2.232-.133.02-.273.016-.4.047-1.847.437-4.023,1.24-5.09,2.956C1555.332,1594.151,1557.461,1598.184,1562.255,1598.577Zm12.765,3.666c-.1-.289-.2-.583-.293-.872a23.512,23.512,0,0,0-2.7-.451,10.919,10.919,0,0,0-1.248.07c-.246.154-.484.319-.744.456.241.072.473.147.684.217a17.583,17.583,0,0,1,4.229,2A12.3,12.3,0,0,1,1575.02,1602.243Zm-7.81,3.9c-2.7-.486-5.011.092-7.462.542-2.625,2.321-2.933,6.7,1.025,8.744,2.89,1.491,6.963,1.844,9.5-.633C1573.448,1611.7,1571.531,1606.918,1567.21,1606.139Zm7.946-.157c-.048-.252-.085-.5-.11-.737-.045-.38-.056-.746-.074-1.116a12.189,12.189,0,0,0-3.7-1.3,11.93,11.93,0,0,1,3.475,2.628C1574.9,1605.63,1575.018,1605.807,1575.156,1605.982Zm2.541-23.894a16.063,16.063,0,0,1,8.055-5.017,7.55,7.55,0,0,1,1.9-.154,6.322,6.322,0,0,0-1.451-.178,15.3,15.3,0,0,0-7.36,1.982.151.151,0,0,1-.177-.239,14.5,14.5,0,0,1,7.353-3.514,23.983,23.983,0,0,1,3.285-.364.5.5,0,0,0-.037-.045c-.2-.24.006-.657.337-.54a9.009,9.009,0,0,1,4.432,3.385c.058.073.115.158.173.239a10.653,10.653,0,0,1,.638-2.436c1.085-2.784,5.652-7.768,9.389-7.4a5.394,5.394,0,0,1,1,.076c-.158-.231-.312-.465-.451-.69-.778.147-1.546.045-2.423.229a10.6,10.6,0,0,0-3.264,1.1c-2.019,1.212-3.007,3.03-4.579,4.656-.206.214-.483-.035-.443-.277.422-2.39,2.818-4.514,4.643-5.939a15.071,15.071,0,0,1,4.243-2.533c-.445-.651-.9-1.3-1.376-1.939a.209.209,0,0,1,.3-.286c.331.275.674.531,1.005.795-.105-.208-.222-.412-.326-.625a.332.332,0,0,1,.463-.437,11.224,11.224,0,0,1,3.222,2.493,106.115,106.115,0,0,1-3.269-16.139c-1.641,2.578-3.357,5.109-4.918,7.653-3.371,5.5-6.929,11.346-11.735,15.752-8.756,8.033-19.518,11.965-31.434,9.171-15.269-3.584-27.591-13.689-42.464-18.216-11.457-3.484-26.773-6.5-37.952-1.506-11.866,12.534-17.584,36.327,4.437,42.109,8.588,2.254,15.788,1.453,22.2-5.18,6.066-6.279,7.135-15.307,1.588-22.357a5.557,5.557,0,0,0-1.252-1.24,3.328,3.328,0,0,0-3.592,0c-1.529,1.006-4.014,5.523-2.862,7.228,1.744,2.589,4.638-.852,4.625,3.2a.241.241,0,0,1-.449.107,1.3,1.3,0,0,0-1.1-.606.157.157,0,0,0-.026-.029c-1.156-1.005-2.635-.84-4.021-.447a2.283,2.283,0,0,0-1.677,1.278,2.195,2.195,0,0,0-.042.9c.146,1.268,1.341,2.5,1.414,3.613.01.156-.076,2.192-.6,1.366-.1-.153-.208-.319-.319-.484a8.272,8.272,0,0,1-2.916,1.271,9.124,9.124,0,0,1-4.741.045c-.28-.066-.177-.453.077-.47a15.365,15.365,0,0,0,5.154-1.114c.566-.256,1.107-.618,1.671-.894-.1-.157-.2-.318-.3-.483a7.34,7.34,0,0,1-6.967.806.089.089,0,0,1,.029-.173,13.142,13.142,0,0,0,4.1-.443,20.089,20.089,0,0,0,2.4-1.109c-.038-.088-.06-.178-.09-.265a2.245,2.245,0,0,1-.25-.107,1.436,1.436,0,0,1-.313-.3,7.7,7.7,0,0,1-5.61.152,1.205,1.205,0,0,0,.149-.291,7.917,7.917,0,0,0,3.485-.333,5.218,5.218,0,0,0,1.47-.71c-1.382-1.492-4.937-2.13-6.91-1.806-3.778.62-4.655,5.993-8.416,6.116a.447.447,0,0,1-.415-.579c.042-.115.106-.224.155-.333-.011-.016-.026-.025-.037-.041a19.434,19.434,0,0,1-2.62-8.8c-.008-.133.219-.155.234-.022a18.931,18.931,0,0,0,2.837,8.049c.315-.553.657-1.1.971-1.655a15.357,15.357,0,0,1-1.254-2.111,31.753,31.753,0,0,1-1.584-3.287c-.044-.1.1-.189.156-.085a28.78,28.78,0,0,0,1.881,3.122c.356.5.815.986,1.222,1.491a10.193,10.193,0,0,0,.358-1.111c-.265-.466-.5-.957-.714-1.412q-.787-1.659-1.578-3.322c-.07-.144.135-.319.239-.173l2.393,3.294c.065.093.133.194.2.287a2.013,2.013,0,0,1,.333-.393,7.988,7.988,0,0,0-1.12-4,1.946,1.946,0,0,1-.609-.983,21.355,21.355,0,0,0-1.71-2.148c-1.361-1.51.334-2.29.761-3.517.6-1.712-.012-3.18,1.315-4.8,1.01-1.238,3.22-2.742,4.844-2.235a32.985,32.985,0,0,0-4.664,3.59c.04.119.053.24.1.359a3.941,3.941,0,0,1,1.187-.866c.807-.328,1.6-.645,2.375-1.048a18.327,18.327,0,0,1,4.425-1.633.15.15,0,0,1,.069.292,14.531,14.531,0,0,0-4.726,2.005,19.288,19.288,0,0,0-1.721,1.847c-.282.26-.54.545-.808.818.176.255.353.5.542.722,1.953-2.806,6.3-4.307,9.395-4.787,2.937-.461,5.978.063,7.815,2.036l1.683-2.9c.415-.12.841-.236,1.267-.352l.15-.042c.221-.053.445-.1.666-.153l.012-.023c.162-.037.323-.071.489-.109.267-.051.531-.126.8-.18-.043.137-.093.271-.139.408,3.542-1.068,7.979.7,10.912,2.6a.15.15,0,0,1-.158.255,11.736,11.736,0,0,0-5.982-1.591c-1.676.089-3.306.526-4.977.662a.846.846,0,0,1-.428-.071c-.088.26-.169.519-.265.778.092-.041.184-.087.275-.124,3.776-1.479,8.906.122,12.026,2.427a13.2,13.2,0,0,1,3.562,3.791c.479-.568.958-1.135,1.394-1.718a21.494,21.494,0,0,1,2.69-3.2.151.151,0,0,1,.244.154,24.927,24.927,0,0,1-1.518,4.668c.085-.131.143-.26.236-.391a9.86,9.86,0,0,1,4.283-3.328c.522-.224,1.133.456.624.867a11.24,11.24,0,0,0-2.246,2.49c2.146-.5,4.64-.269,6.034,1.073a11.47,11.47,0,0,1,6.443,10c.482-.42.957-.848,1.406-1.3a12.008,12.008,0,0,0-1.589-3.817,22.314,22.314,0,0,0-3.325-3.23c-.093-.083.013-.232.12-.2,2.189.675,4.43,3.063,5.577,5.424a5.7,5.7,0,0,0-4.359-5.033c-.218-.066-.169-.445.069-.408a7.509,7.509,0,0,1,5.824,4.345c.115-.18.237-.352.345-.54.09-.154.3-.033.269.124-.079.376-.177.748-.277,1.124.021.048.046.088.066.14a5.143,5.143,0,0,1,.408,1.943,19.752,19.752,0,0,1,2.6-2.5.18.18,0,0,1,.246.262,19.259,19.259,0,0,0-1.832,2.245c4.048-1.915,9.54-.375,12.24,3.263.159.219.309.452.463.682a3.822,3.822,0,0,0-1.155-2.968,11.365,11.365,0,0,0-6.062-2.311.089.089,0,0,1,.006-.178c3.274.04,7.829,1.442,9.488,4.434a11.516,11.516,0,0,1,1.651-2.208.389.389,0,0,1,.635.4,19.494,19.494,0,0,0-1.295,5.423,9.38,9.38,0,0,1,6.863-5.049c.392-.064.973-.155,1.626-.223a4.932,4.932,0,0,1,3.932-.332,8.173,8.173,0,0,0-7.333.592c-.145.085-.307-.134-.173-.243a9.746,9.746,0,0,1,8.171-1.823,11.7,11.7,0,0,1,4.149,1.631,5.671,5.671,0,0,1,.259-1.015.3.3,0,0,1,.578.017c.671,2.036.625,4.929,2.075,6.592-1.023-1.173.283-4.151,1.512-6.247A15.289,15.289,0,0,1,1577.7,1582.089Zm-86.177-7.316c4.932-2.771-1.635-4.818-3.43-4.394a31.336,31.336,0,0,0-3.418.994,9.5,9.5,0,0,0-4.573,3.094C1483.829,1575.8,1488.121,1576.681,1491.52,1574.773Zm-2.366,4.625c-2.385-.507-9.952-.453-8.594,3.809a7.639,7.639,0,0,1,2.944-1.825,8.134,8.134,0,0,1,6.975-1.148A1.82,1.82,0,0,0,1489.154,1579.4Zm108.033,18.051c-1.114-.285-2.1-1.252-3.206-1.613a7.382,7.382,0,0,0-4.492-.034h.01a7.362,7.362,0,0,1,4.481.036C1595.083,1596.2,1596.073,1597.166,1597.187,1597.449Zm.059.117-.055-.116h0C1597.208,1597.489,1597.227,1597.527,1597.246,1597.566Zm-4.986-4.175a13.387,13.387,0,0,1-1.995,1.75,8.846,8.846,0,0,1,4.448-.929C1593.892,1593.954,1593.077,1593.659,1592.26,1593.391Zm2.447-1.141c-.246-.387-.481-.781-.7-1.179a14.762,14.762,0,0,1-.953,1.393C1593.6,1592.386,1594.155,1592.312,1594.707,1592.25Zm2.437-7.567a7.076,7.076,0,0,1-1.762-1.778,8.29,8.29,0,0,1,.329,1.9A4.04,4.04,0,0,1,1597.144,1584.683Zm-8.958,6.505c2.2-2,5.576-8.774.43-10.023-3.49-.845-6.884,1.666-9.814,3.461a5.943,5.943,0,0,0-.547,1.5c-.426,1.838-1.065,5.214.68,6.661C1581.513,1594.923,1586.035,1593.147,1588.186,1591.188Zm4.619,9.117c-3.2-1.991-7.228-.172-9.912,1.947a.741.741,0,0,1-1.1-.264c-1.116,1.609-1.471,3.493.234,5.311,2.9,3.086,5.789,2.676,9.38.74C1594.237,1606.516,1596.553,1602.638,1592.805,1600.306Zm3.13-2.522c.241.214.463.437.674.665-.21-.229-.432-.451-.672-.666a7.85,7.85,0,0,0-4.654-2.021A7.844,7.844,0,0,1,1595.935,1597.784Zm1.327,1.442c0-.029,0-.057,0-.087,0,.029,0,.057,0,.085Zm9.939-11.511c.156-.011.311-.01.471-.017a8.971,8.971,0,0,1,2.44-.671,6.2,6.2,0,0,1,1.362-.511,5.762,5.762,0,0,0-.782-.118,12.8,12.8,0,0,0-6.725,1.267.149.149,0,0,1-.145-.261,15.271,15.271,0,0,1,6.688-2.75,10.729,10.729,0,0,1,2.752-.145,12.68,12.68,0,0,0-4.1-.358,11.354,11.354,0,0,1-5.977,2.137,10.176,10.176,0,0,1-5.05-1.014.673.673,0,0,1-.21.906,6.64,6.64,0,0,0-.785.69,5.106,5.106,0,0,1,3.546-.435.151.151,0,0,1-.009.287,5.208,5.208,0,0,0-3.358,3.877,1.427,1.427,0,0,1-.546.731c.013.04.022.079.036.119a13.88,13.88,0,0,1,1.811-1.8,11.9,11.9,0,0,1,4.8-2.238c.193-.052.317.247.129.33a11.57,11.57,0,0,0-4.2,3.507,8.2,8.2,0,0,0-1.283,2.1,5.207,5.207,0,0,1-.33.751,8.642,8.642,0,0,0,.963,1.683,8.381,8.381,0,0,1,1.359-3.515C1601.7,1589.917,1604.22,1587.909,1607.2,1587.715Zm1.7.678a15.283,15.283,0,0,0-4.653,2.44,6.538,6.538,0,0,0-1.824,1.612c-1.2,1.763-.4,5.112.9,6.6a5.92,5.92,0,0,0,.505.487c.051.131.1.262.157.39.1,0,.21-.008.311-.01a5.862,5.862,0,0,0,5.644.406,9.644,9.644,0,0,0,4.385-1.53C1620.041,1594.883,1615.127,1586.8,1608.9,1588.393Zm128.033-88.617a2.737,2.737,0,0,0-.338-.11A2.737,2.737,0,0,1,1736.929,1499.776Zm6.8,1.351a.814.814,0,0,1,.215-.647A.807.807,0,0,0,1743.732,1501.127Zm.363.611a1.154,1.154,0,0,0-.078.211,1.136,1.136,0,0,1,.079-.21Zm.5-1.63h0c-.052.019-.1.041-.154.062C1744.491,1500.148,1744.542,1500.126,1744.594,1500.108Zm-3.61,1.868c1.086.271,2.157.573,3.219.917v0C1743.142,1502.547,1742.071,1502.245,1740.985,1501.976Zm6.694,6.169a12.182,12.182,0,0,0,3.081-.277A12.216,12.216,0,0,1,1747.679,1508.145Zm5.247-1h0l-.163.066Zm-17.353-9.646a20.581,20.581,0,0,0,2.292.637c.515.129,1.027.273,1.54.411-.513-.139-1.025-.283-1.541-.413A20.639,20.639,0,0,1,1735.573,1497.495Zm-.24,2.163a1.019,1.019,0,0,1,.343-.109A1.011,1.011,0,0,0,1735.333,1499.657Zm-23.684-.17c.02-.015.037-.032.056-.046C1711.686,1499.455,1711.669,1499.473,1711.65,1499.488Zm-1.638,1.35c-.038-.018-.08-.032-.118-.045a27.981,27.981,0,0,0-4.065-.209c-2.293.28-4.558.607-6.819,1.071a17.419,17.419,0,0,0-4.563,2.632,9.374,9.374,0,0,0,3.539.319,17.371,17.371,0,0,0,5.952-1.757c.168-.088.382.118.26.282-2.169,2.848-6.854,4.949-10.613,4.053a2.388,2.388,0,0,0,.011.292c.062,1.87.907,2.819,2.167,3.15a4.532,4.532,0,0,0,2.063.644,8.175,8.175,0,0,0,2.246.009c.137-.019.275-.047.413-.074,1.708-1.218,3.972-1.74,5.543-3.273A14.168,14.168,0,0,0,1710.012,1500.838Zm3.258-.785a1.8,1.8,0,0,0-.011-.214h0a1.758,1.758,0,0,1,.012.213,13.95,13.95,0,0,1-.4,3.021A13.836,13.836,0,0,0,1713.27,1500.053Zm21.271,1.076v0a6.116,6.116,0,0,1,1.346-.2l-.006,0a6.153,6.153,0,0,0-1.339.2,3.247,3.247,0,0,1,.118-.448l.5.1-.5-.1c.022-.064.05-.128.075-.191-.026.064-.054.128-.076.192a50.816,50.816,0,0,0-6.145-.966,99.177,99.177,0,0,0-14.49.069l-.029-.028.028.028h0c2.786,2.994,7.4,4.041,11.309,4.183,2.541.092,4.536-1.114,6.825-2A22.242,22.242,0,0,1,1734.541,1501.129Zm-.054.7v0Zm2.59-.673.167.03-.167-.031a.175.175,0,0,1-.019.107,15.824,15.824,0,0,1-1.719,2.4,15.668,15.668,0,0,0,1.72-2.4A.174.174,0,0,0,1737.077,1501.158Zm.409.614a.019.019,0,0,0-.021.021.02.02,0,1,1,.039,0A.019.019,0,0,0,1737.486,1501.772Zm1.561-.239c.177.227.356.451.542.668-.185-.217-.363-.441-.54-.667h0c-.124-.025-.25-.048-.375-.072C1738.8,1501.485,1738.922,1501.507,1739.046,1501.533Zm5.64,4.152a16.544,16.544,0,0,0,1.746.62,16.519,16.519,0,0,1-1.748-.621q-.621-.263-1.218-.571Q1744.064,1505.42,1744.686,1505.685Zm2.017.7.025.007Zm2.276,3.068a11.2,11.2,0,0,1-4.421-1.2.247.247,0,0,1-.031-.41.247.247,0,0,0,.031.411A11.206,11.206,0,0,0,1748.979,1509.457Zm-28.84-53.473c.495,1.35,1.077,2.656,1.6,3.992.555,1.407.452,3.2,1.16,4.471a.409.409,0,0,0,.742-.043c.609-1.219-.108-2.736-.624-3.9a43.487,43.487,0,0,0-2.692-4.615A.106.106,0,0,0,1720.138,1455.984Zm6.244,3.84a19.635,19.635,0,0,1,1.647,3.307c.385.906.455,2.424,1.347,2.973a.384.384,0,0,0,.531-.1c.566-1.069-.371-2.41-.891-3.36a11.078,11.078,0,0,0-2.549-2.916C1726.407,1459.678,1726.346,1459.77,1726.383,1459.824Zm9.4,6.941c.231.914.171,2.117.943,2.74a.47.47,0,0,0,.649-.121c.623-.863.009-2.159-.4-3.022a12.466,12.466,0,0,0-2.435-3.328c-.128-.13-.387.012-.281.186A12.67,12.67,0,0,1,1735.778,1466.765Zm5.758,2.208c.3,1.586.264,3.553,1.276,4.864a.449.449,0,0,0,.782-.26c.185-1.849-.739-4.176-1.2-5.977a11.832,11.832,0,0,0-2.6-4.855c-.124-.142-.385.018-.281.186A17.143,17.143,0,0,1,1741.536,1468.973Zm8.761,9.061a25.78,25.78,0,0,0-1.53-5.961,11.656,11.656,0,0,0-2.79-4.915c-.171-.174-.453.064-.289.25a10.947,10.947,0,0,1,2.421,5.9c.265,1.655.316,3.646,1.481,4.956C1749.8,1478.508,1750.313,1478.4,1750.3,1478.034Zm3.751-.779a17.783,17.783,0,0,0,.546,3.565c.139.385.694.279.82-.048.986-2.555-.639-5.4-2.193-7.392-.151-.194-.455.019-.351.232A12.7,12.7,0,0,1,1754.049,1477.254Zm-53.11-31.864c.036.331.162.641.168.974a.444.444,0,0,0,.282.431c.023-.005.037,0,.042.019s.018.017.028.025a.051.051,0,0,0,.011.01.069.069,0,0,0,.032.008.068.068,0,0,0,.04,0,.076.076,0,0,0,.009-.007c.01-.006.022-.008.031-.021s.016-.019.032-.014a.446.446,0,0,0,.34-.386c.043-.329.2-.62.27-.943.061-.27.1-.545.146-.82a1.78,1.78,0,0,0,.26-1.448.958.958,0,0,0-1.828-.132,1.833,1.833,0,0,0,.088,1.508C1700.9,1444.859,1700.909,1445.127,1700.938,1445.391Zm7.858-.535c.23-.832.46-1.662.649-2.505a.713.713,0,1,0-1.386-.1c.095.864.232,1.72.369,2.578A.192.192,0,0,0,1708.8,1444.855Zm6.714-.157c.109.141.306-.014.246-.163a13.639,13.639,0,0,1-.84-2.909.8.8,0,0,0-.728-.642.776.776,0,0,0-.718.346.8.8,0,0,0,.055.977q.481.531.979,1.048A16.305,16.305,0,0,1,1715.51,1444.7Zm8.174.948c.015.042.082.047.084-.005a5.68,5.68,0,0,0-.679-3.3.922.922,0,0,0-1.408-.286.912.912,0,0,0,.081,1.435A3.754,3.754,0,0,1,1723.684,1445.647Zm7.268,1.568a7.984,7.984,0,0,0-1.256-5.569,1.02,1.02,0,0,0-1.325-.451.8.8,0,0,0-.38.329,1,1,0,0,0,.068,1.207,11.555,11.555,0,0,1,2.262,4.524A.32.32,0,0,0,1730.952,1447.215Zm7.006,1.6c.023.189.343.171.336-.021a11.458,11.458,0,0,0-.733-3.818c-.435-1.114-1.215-2.663-2.56-2.73a.539.539,0,0,0-.558.633c.132,1.082,1.212,1.741,1.9,2.5A6.281,6.281,0,0,1,1737.958,1448.811Zm3.056-3.534a10.907,10.907,0,0,1,1.7,2.116,22.171,22.171,0,0,1,2.026,4.775c.076.211.383.115.4-.078a11.632,11.632,0,0,0-1.063-5.368c-.561-1.408-1.687-3.87-3.471-3.69a.668.668,0,0,0-.516.774A2.05,2.05,0,0,0,1741.014,1445.277Zm11.9,11.911c.21-2.824-1.738-6.984-4.943-7.181a.493.493,0,0,0-.4.806,17.238,17.238,0,0,0,2.759,2.511,8.481,8.481,0,0,1,2.378,3.877A.107.107,0,0,0,1752.917,1457.188Z" transform="matrix(0.999, 0.035, -0.035, 0.999, -1401.488, -1482.278)" fill="#0ce3c6"/>
</svg>
