<svg xmlns="http://www.w3.org/2000/svg" width="310.168" height="176.857" viewBox="0 0 310.168 176.857">
  <path id="Tracé_7229" data-name="Tracé 7229" d="M-1215.042,580.185a1.05,1.05,0,0,0,.766,1.217.281.281,0,0,1,.066.51,2.249,2.249,0,0,1-3.308-1.726C-1217.945,578.071-1214.553,578.161-1215.042,580.185Zm47.557,6.938a.228.228,0,0,0,.23.394c2.183-1.035,4.386-2.038,6.543-3.127,1.843-.931,4.076-1.818,5.531-3.3a.46.46,0,0,0-.444-.763c-2.052.45-3.928,1.9-5.745,2.933C-1163.46,584.451-1165.456,585.835-1167.485,587.123Zm-3.852-2.166a.23.23,0,0,0,.222.381c1.968-.394,3.733-1.561,5.506-2.464,1.531-.779,3.724-1.372,4.585-2.933a.5.5,0,0,0-.427-.744c-1.781-.086-3.452,1.483-4.919,2.376C-1168.063,582.606-1169.973,583.493-1171.337,584.958Zm-5.333-2.138c-.109.064-.035.258.088.208q2.535-1.026,5.066-2.059c1.382-.565,2.817-.935,3.828-2.078a.346.346,0,0,0-.242-.585c-1.531.1-2.677.977-3.978,1.733Q-1174.291,581.425-1176.669,582.82Zm-4.185-1.126c1.265-.339,2.554-.632,3.793-1.055a.267.267,0,0,0-.142-.513c-1.285.253-2.548.643-3.813.982A.3.3,0,0,0-1180.854,581.693Zm-26.212,16.916a4.013,4.013,0,0,1,3.763,4.42,2.435,2.435,0,0,1-.776,1.457.342.342,0,0,1-.2.466,3.97,3.97,0,0,1-4.541-2.279C-1209.6,601.151-1209.085,598.71-1207.066,598.609Zm-.536,3.549a3.373,3.373,0,0,0,1.052,1.49.443.443,0,0,1,.2-.227,1.351,1.351,0,0,0,.569-2.071C-1206.529,600.1-1208.116,600.714-1207.6,602.158Zm11.168-15.811c3.585-1.025,4.476,3,3.984,5.629a.684.684,0,0,1-.49.49,3.035,3.035,0,0,1-2.139-.268.662.662,0,0,1-.441.184C-1198.115,592.34-1199.242,587.15-1196.434,586.347Zm.308,2.455c.082.886.708,1.474,1.045,2.2a1.815,1.815,0,0,0,1.251.2,4.649,4.649,0,0,0-.2-1.682,1.886,1.886,0,0,0-.827-1.132Q-1195.591,587.832-1196.126,588.8Zm-11.71-18.855a.127.127,0,0,1,0,.253,16.938,16.938,0,0,0-4.71.944c-.17.064-.339.14-.508.211a9.968,9.968,0,0,1,1.692.892c.9,0,1.811.132,2.716.1a23.468,23.468,0,0,0,4.015-.482.127.127,0,0,1,.067.244,19.5,19.5,0,0,1-5.758.956c.123.108.268.188.386.3a15.624,15.624,0,0,1,1.634,1.886,11,11,0,0,1,6.5-.283.331.331,0,0,1-.088.647c-1.178.082-2.355-.055-3.536.075-.779.086-1.547.261-2.321.361a13.264,13.264,0,0,1,1.214,2.346,17.966,17.966,0,0,1,4.106.462.178.178,0,0,1,0,.355,26.519,26.519,0,0,1-3.693.5,9.215,9.215,0,0,1,.281,2.041,26.476,26.476,0,0,1,2.939.283.255.255,0,0,1,0,.489,26.208,26.208,0,0,1-2.986.282,7.3,7.3,0,0,1-.773,2.562,21.2,21.2,0,0,1,3.238.38.332.332,0,0,1,0,.636,17.065,17.065,0,0,1-4.141.372,9.025,9.025,0,0,1-.8.849,6.716,6.716,0,0,1-.669.526c.1.008.213.022.316.027,1.366.062,3.326-.224,4.619.286.446.176,1.055.62.384.947a.053.053,0,0,1-.062-.008l-.133-.106c-.019-.015,0-.052.025-.043-1.184-.477-3.495.071-4.832.138-4.469.226-7.925.28-11.449-2.834-3.1-2.738-5.478-7.92-3.434-11.92,1.766-3.457,5.4-4.532,8.8-3.8A17.862,17.862,0,0,1-1207.836,569.947Zm-12.914,10.182c1,2.659,3.308,4.218,4.579,6.623,3.25,1.236,7.376.408,7.4-3.929a9.221,9.221,0,0,0-4.926-7.933C-1217.675,572.765-1222.635,575.113-1220.75,580.129Zm90.948,20.092c-.2.088-.055.4.147.347,3.684-.956,7.359-1.927,11.021-2.962,2.823-.8,6.244-1.07,8.276-3.316a.614.614,0,0,0-.269-1.017c-3.008-.513-5.787,1.31-8.531,2.433C-1122.726,597.167-1126.265,598.684-1129.8,600.221Zm12.026-9.43c-2.776.555-5.557,2.077-8.108,3.057-3.346,1.285-6.634,2.707-9.908,4.164-.323.144-.089.641.234.556,3.9-1.021,7.775-2.124,11.621-3.347,2.988-.951,6.36-1.453,8.8-3.484.482-.4.067-1.157-.484-1.169-.285-.006-.572.024-.859.045A1.6,1.6,0,0,1-1117.775,590.791Zm-22.151,5.548c6.229-2.13,13.416-3.682,19.184-6.88l-2.62-1.248c-5.753,1.764-11.437,5.043-16.857,7.432C-1140.615,595.818-1140.331,596.477-1139.927,596.339Zm-3.968-2.138c-.158.07-.045.331.118.278q6.251-2.049,12.494-4.123a55.4,55.4,0,0,0,7.189-2.494q-1.319-.627-2.644-1.232c-1.75.695-3.455,1.567-5.144,2.306Q-1137.891,591.561-1143.895,594.2Zm-3.144-1.342c-.151.079-.045.34.117.278q5.193-2,10.383-4c2.579-1,5.389-1.823,7.614-3.484-.691-.3-1.382-.6-2.079-.888a52.033,52.033,0,0,0-6.129,2.966C-1140.46,589.387-1143.738,591.15-1147.039,592.858Zm-8.559.734c-.193.14-.082.521.176.417,6.4-2.576,12.5-6.276,18.543-9.606.859-.474.091-1.788-.768-1.313C-1143.661,586.4-1150.028,589.57-1155.6,593.592Zm5.141-7.534-8.389,5.358a.114.114,0,0,0,.115.2l8.819-4.621c2.553-1.338,5.563-2.431,7.658-4.43a.574.574,0,0,0-.555-.954C-1145.583,582.435-1148.028,584.507-1150.457,586.058Zm-5.22-1.336-6.958,5.045c-.312.226-.041.724.307.526l7.431-4.237c2.183-1.245,4.842-2.419,6.366-4.459.3-.406-.194-.871-.6-.782C-1151.534,581.338-1153.71,583.3-1155.676,584.722Zm29.944,88.309a4.915,4.915,0,0,1-2.6-4.8c.52-3.991,4.732-7.036,8.574-4.668a5.688,5.688,0,0,1,.289,9.361,4.85,4.85,0,0,1-3.626.725A5.259,5.259,0,0,1-1125.732,673.031Zm4.014-1.558a2.5,2.5,0,0,0,.721-.533c1.168-1.245,1.342-3.691-.381-4.607-1.792-.954-4.152.064-3.964,2.32C-1125.167,670.75-1123.4,671.181-1121.718,671.473Zm-39.241-25.865a6.273,6.273,0,0,1,8.036,2.366,4.815,4.815,0,0,1-3.471,6.964,4.536,4.536,0,0,1-4.321-1.845c-.374-.495-1.414-1.1-1.414-1.792a2.559,2.559,0,0,1,.089-.453C-1163.668,649.593-1162.879,646.586-1160.959,645.608Zm1.936,2.289c-.744.059-1.712.259-1.615,1.228a3.317,3.317,0,0,0,.406,1.531.393.393,0,0,1,.02.422,1.254,1.254,0,0,0,.364.154c.665.117,1.334.2,2,.3,1.406.2,1.831-.641,1.684-1.918S-1157.938,647.811-1159.024,647.9Zm-29.267-27.011c.854-.5,2.855-.142,3.733.212a4.235,4.235,0,0,1,2.653,2.613,3.788,3.788,0,0,1-3.3,5.066,3.661,3.661,0,0,1-2.892-1.978c-.032-.057-.046-.1-.077-.159C-1190.168,625.9-1190,621.885-1188.29,620.885Zm.682,2.713c-.156.931.3,1.719.249,2.63.949.849,2.193,1.247,2.715.192a1.959,1.959,0,0,0-.56-2.633,3.214,3.214,0,0,0-1.582-.936C-1187.452,622.754-1187.487,622.875-1187.609,623.6Zm19.019-23.371c.8,1.261,1.725,3.438.793,4.872a3.777,3.777,0,0,1-3.563,1.782,4.921,4.921,0,0,1-3.562-1.882,2.307,2.307,0,0,1-.231-.457,2.459,2.459,0,0,1-1.06-.9,3.432,3.432,0,0,1-.222-3.82C-1174.774,596.709-1170.2,597.709-1168.589,600.227Zm-5.2,1.137c-.874.615-.046,1.637.43,2.225a.531.531,0,0,1,.106.329c1.49.631,3.341.345,1.978-1.592C-1171.768,601.628-1172.9,600.74-1173.79,601.364Zm24.206,16.3a5.164,5.164,0,0,1,7.85,1.216c.922,1.353,1.723,3.3,1.262,4.971-.344,1.238-1.24,2.671-2.652,2.883a5.5,5.5,0,0,1-5.237-2.3c-.016,0-.023.019-.041.02C-1151.69,624.654-1151.345,619.195-1149.584,617.663Zm1.214,1.869c-1.335,1.661.046,2.774.36,4.408,0,.021-.012.033-.011.054.958,1.11,2.2,1.97,3.641,1.443,2.2-.805,2.016-3.256.785-4.914C-1144.643,619.109-1146.946,617.758-1148.37,619.532Zm-23.416,24.037c-3.712,12.412,23.622,23.254,24.542,8.292,0-.059-.083-.066-.1-.014-1.857,6-8.815,5.526-13.677,4.01-5.7-1.777-9.968-7.446-9.04-13.408,2.649-4.495,9.047-3.512,13.956-1.9,5.2,1.708,11.164,9.285,8.387,14.872a.162.162,0,1,0,.3.125c2.853-7.734-3.045-14.192-10-16.512C-1161.585,637.647-1171.848,637.5-1171.786,643.569Zm39.827,14.167a13.605,13.605,0,0,1,9.876-1.4,11.5,11.5,0,0,1,7.393,5.907c1.97,3.41,5.789,16.4-4.037,14.339a.076.076,0,0,0-.041.147,6.057,6.057,0,0,0,7.686-5.36c.482-5.436-2.34-11.679-7.034-14.533-8.328-5.065-25.171,2.1-16.239,12.489a.153.153,0,0,0,.254-.148C-1135.354,665.049-1136.53,660.5-1131.96,657.736Zm-21.355-45.444c5.476-4.262,12.4-.821,15.834,4.481,2.9,4.481,2.643,8.547.316,11.889-.655,2.308-2.87,4.678-5.35,4.855-3.284.234-6.586-2.744-8.815-4.944C-1155.167,624.784-1158.806,616.564-1153.315,612.292Zm.572.572c-4.219,4.709-2.267,11.235,1.836,15.287,1.772,1.749,4.466,4.675,7.218,4.386a5.709,5.709,0,0,0,3.542-1.582c3.169-3.368,4.859-7.653,1.944-12.258C-1140.66,614.814-1148.065,607.642-1152.744,612.863Zm-28.6,22.855c.287-.034.3-.485,0-.456-7.535.727-13.849-11.793-12.471-18.222.856-3.992,6.367-1.684,8.116-.714a14.672,14.672,0,0,1,4.349,4.473c2.57,3.73,5.139,13.079-2.069,13.931a.127.127,0,0,0,0,.254c5.72.529,6.5-5.614,5.629-9.9a13.763,13.763,0,0,0-12.677-11.2C-1200.254,613.244-1190.837,636.857-1181.345,635.719Zm7.441-41.516a15.766,15.766,0,0,1,7.309,5.434c1.781,2.314,5.207,10.756-.609,11.181a.076.076,0,0,0,0,.152c4.971.635,4.63-5.289,3.635-8.479-1.5-4.8-5.747-7.359-10.307-8.386A.051.051,0,0,0-1173.9,594.2Zm141.872-40.586c-1.086-1.1-1.841-2.482-3.016-3.48-.215-.183-.611-.016-.508.3.528,1.6,1.964,2.568,3.37,3.383A.127.127,0,0,0-1032.031,553.617Zm1.71-1.66c-1.037-1.471-1.957-3.04-3.57-3.949a.408.408,0,0,0-.555.555c.863,1.634,2.41,2.6,3.847,3.671C-1030.436,552.355-1030.207,552.118-1030.321,551.957Zm1.52-1.994a18.279,18.279,0,0,0-3.3-3.251c-.163-.106-.4.112-.277.277a18.38,18.38,0,0,0,3.474,3.081A.076.076,0,0,0-1028.8,549.963Zm55.121-16.846a.46.46,0,0,0-.834.109c-.164.837-.05,1.648-.259,2.488-.128.514.634.877.88.371A2.987,2.987,0,0,0-973.68,533.117Zm-13.212-1.49c-.277,1.455.6,3.006,1.284,4.259a.178.178,0,0,0,.324-.137c-.444-1.367-.393-2.923-1.006-4.2A.332.332,0,0,0-986.892,531.626Zm-.991,5.421a.153.153,0,0,0,.283-.076,9.062,9.062,0,0,0-.253-2.648,7.657,7.657,0,0,0-.934-3.181c-.159-.217-.593-.253-.649.085a6.013,6.013,0,0,0,.421,2.748A11.4,11.4,0,0,0-987.883,537.047Zm-3.254-4.317a.409.409,0,0,0-.756.2,10.568,10.568,0,0,0,.942,4.138.406.406,0,0,0,.782-.216A10.5,10.5,0,0,0-991.137,532.73Zm-1.522,4.946c-.326-1.752-.474-3.951-1.571-5.41a.46.46,0,0,0-.851.23c-.123,1.828.953,3.745,1.64,5.4A.406.406,0,0,0-992.659,537.676Zm-4.27-4a.255.255,0,0,0-.5.067,5.3,5.3,0,0,0,1.192,3.8c.094.135.334.057.278-.117C-996.353,536.2-996.509,534.9-996.928,533.68Zm-1.392,3.45a3.893,3.893,0,0,0-.715-2.856.537.537,0,0,0-.973.127,2.361,2.361,0,0,0,1.439,2.871A.2.2,0,0,0-998.32,537.13Zm-17.974,1.945.053.055a8.721,8.721,0,0,0,1.187,1.6c.154.162.366-.012.339-.2a8,8,0,0,0-1.844-4.119c-.26-.288-.648.025-.593.345a7.083,7.083,0,0,0,.859,2.286C-1016.29,539.058-1016.3,539.066-1016.294,539.075Zm4.3.708c-.4-1.7-.67-3.862-1.975-5.123a.511.511,0,0,0-.865.359c.06,1.829,1.468,3.476,2.47,4.922A.2.2,0,0,0-1012,539.783Zm10.679,3.382a5.817,5.817,0,0,0,.048-2.622.383.383,0,0,0-.733,0,5.821,5.821,0,0,0,.049,2.622A.332.332,0,0,0-1001.319,543.165Zm1.989-.9a.127.127,0,0,0,.254,0,12.208,12.208,0,0,0,.044-2.887.178.178,0,0,0-.342,0A12.24,12.24,0,0,0-999.33,542.266Zm2.415-2.531-.536,1.146c-.226.482.53.759.649.273q.152-.621.3-1.243C-996.438,539.669-996.8,539.493-996.915,539.736Zm23.683,1.834a4.3,4.3,0,0,0-.025-2.251.409.409,0,0,0-.782,0,4.3,4.3,0,0,0-.025,2.251A.434.434,0,0,0-973.232,541.57Zm-3.515-.439a.356.356,0,0,0,.7-.094,5.992,5.992,0,0,0-.452-2.17c-.115-.258-.448-.091-.472.128A5.758,5.758,0,0,0-976.747,541.131Zm-2.763-2.506a3.584,3.584,0,0,1-.273,1.993.1.1,0,0,0,.175.1,2.194,2.194,0,0,0,.4-2.136C-979.262,538.427-979.524,538.447-979.51,538.625Zm-2.372,1.647a.128.128,0,0,0,.244,0,1.645,1.645,0,0,0,.1-1.311.229.229,0,0,0-.44,0A1.643,1.643,0,0,0-981.883,540.272Zm-3.3.778a.178.178,0,0,0,.355,0,7.268,7.268,0,0,0,.018-2.082.2.2,0,0,0-.391,0A7.291,7.291,0,0,0-985.183,541.049Zm-3.372-.406a.3.3,0,0,0,.608,0,10.122,10.122,0,0,0-.035-2.1.281.281,0,0,0-.538,0A10.1,10.1,0,0,0-988.555,540.644Zm-2.492-.026-.428-.8c-.016-.029-.057,0-.044.026l.384.824C-991.107,540.728-991.015,540.676-991.047,540.618Zm-2.123.431a2.618,2.618,0,0,0-.159-.865.2.2,0,0,0-.391,0,2.633,2.633,0,0,0-.159.865C-993.913,541.507-993.134,541.507-993.169,541.049Zm-43.618,30.182a4.32,4.32,0,0,0-3.881.087.179.179,0,0,0,0,.307,4.32,4.32,0,0,0,3.881.087A.282.282,0,0,0-1036.787,571.232Zm-1.115-2.7c-1.014-.521-2.093-.092-3.128.273a.205.205,0,0,0-.049.371c1.049.745,2.518,1.006,3.3-.158A.355.355,0,0,0-1037.9,568.529Zm1.063-3.146c-1.287-.442-2.931.253-4.219.549a.281.281,0,0,0,0,.538c1.351.435,3.356.745,4.386-.451A.386.386,0,0,0-1036.839,565.383Zm-.489-2.049a4.377,4.377,0,0,0-2.579.644c-.3.141-.12.546.153.567a4.355,4.355,0,0,0,2.656-.361C-1036.655,563.957-1036.917,563.378-1037.328,563.335Zm9.087,11.457a14.5,14.5,0,0,1-5.356-4.183c-.038-.051-.122-.006-.088.051a9.923,9.923,0,0,0,5.268,4.548A.229.229,0,0,0-1028.241,574.792Zm-1.672-5.06c-.858-1.023-1.853-1.939-2.791-2.887-.277-.28-.714.159-.431.43.964.923,1.9,1.9,2.935,2.743A.2.2,0,0,0-1029.913,569.732Zm1.091-2.874c.267.357.868.033.613-.358l-1.99-3.049a5.394,5.394,0,0,0-1.659-2,.282.282,0,0,0-.41.315,5.226,5.226,0,0,0,1.256,2.157Zm-5.313,22.674a14.739,14.739,0,0,0-4.127,2.425c-.1.079-.047.29.1.232a14.844,14.844,0,0,0,4.251-2.275A.23.23,0,0,0-1034.134,589.532Zm-1.148-2.637-.094-.2a.373.373,0,0,0-.328-.189,1.122,1.122,0,0,0-1.05.591,5.139,5.139,0,0,1-1.889,1.687.2.2,0,0,0,.1.378,3.79,3.79,0,0,0,3.141-1.348A.8.8,0,0,0-1035.283,586.895Zm-.857-2.341c.054-.274-.185-.617-.5-.5-1.136.427-1.781,1.6-2.825,2.251a.2.2,0,0,0,.156.37C-1038.072,586.428-1036.411,585.948-1036.14,584.554Zm-1.2-2.061a4.165,4.165,0,0,0-2.907,1.484.1.1,0,0,0,.072.173,4.159,4.159,0,0,0,3.068-1.095A.332.332,0,0,0-1037.337,582.492Zm-.809-1.422c.259-.354-.226-.723-.555-.555a4.04,4.04,0,0,0-1.555,1.535c-.158.227.139.448.347.347A4.039,4.039,0,0,0-1038.145,581.071Zm8.946,3.922c.219.014.323-.332.115-.425-.69-.308-1.412-.489-2.121-.752-1.014-.377-1.858-1.161-2.91-1.372a.025.025,0,0,0-.028.037C-1033.358,583.906-1030.767,584.9-1029.2,584.992Zm-.676-3.107a16.511,16.511,0,0,0-4.393-2.872c-.074-.04-.158.059-.092.119a16.585,16.585,0,0,0,4.117,3.231A.306.306,0,0,0-1029.875,581.886Zm.831-4.256c-1.573-1.175-3.465-1.611-4.987-2.969a.076.076,0,0,0-.107.108c1.147,1.482,2.917,3.384,4.941,3.428A.307.307,0,0,0-1029.044,577.629Zm.592,9.057a2.35,2.35,0,0,1-2.6-.395c-.2-.2-.562.064-.4.307a1.981,1.981,0,0,0,3.221.469C-1028.083,586.913-1028.227,586.6-1028.453,586.687Zm69.77-49.184c-.069,1.191-.417,2.356-.462,3.547a.1.1,0,0,0,.173.072c1.528-1.292,2.528-4.135,1.538-5.981a.459.459,0,0,0-.788,0A6.346,6.346,0,0,0-958.683,537.5Zm-2.1-3.6c-.755,1.733-.388,3.78-1.082,5.565-.028.071.079.13.127.074,1.313-1.51,2.8-3.574,1.831-5.639A.51.51,0,0,0-960.783,533.9Zm-3.657,4.706a.2.2,0,0,0,.339.2c1.4-1.36,2.546-3.336,1.7-5.276a.434.434,0,0,0-.744,0C-964.041,535.029-964.027,536.934-964.44,538.607Zm-1.951-.56a5.826,5.826,0,0,0,1.36-5.234.486.486,0,0,0-.88-.115,9.39,9.39,0,0,0-.913,5.17A.256.256,0,0,0-966.391,538.046Zm-1.993-6.029a.409.409,0,0,0-.782,0,41.025,41.025,0,0,0-.655,5.371c-.024.219.276.251.378.1A6.038,6.038,0,0,0-968.383,532.017Zm-2.06-.515a.433.433,0,0,0-.744,0c-.751,1.522-.542,3.472-.769,5.134-.012.086.1.189.17.1C-970.653,535.3-969.619,533.3-970.444,531.5Zm1.917,9.142a13.772,13.772,0,0,0,.025,2.028.127.127,0,0,0,.254,0,13.789,13.789,0,0,0,.025-2.028A.152.152,0,0,0-968.527,540.644Zm-2.434,1.875a1.718,1.718,0,0,0,.385-1.936c-.093-.286-.576-.253-.548.074a2.018,2.018,0,0,1-.354,1.462C-971.654,542.44-971.22,542.8-970.961,542.519Zm22.574,47.88a20.95,20.95,0,0,0-5.122-5.443,1.127,1.127,0,0,0-1.089-.288c-.479.189-.664.266-.781.781a1.125,1.125,0,0,0,.287,1.089,21.628,21.628,0,0,0,6.361,4.308C-948.473,590.947-948.261,590.611-948.387,590.4Zm-.367-5.682a23.99,23.99,0,0,0-4.469-4.284,1.07,1.07,0,0,0-1.115,0,1.083,1.083,0,0,0-.508.66,1.125,1.125,0,0,0,.508,1.247,23.368,23.368,0,0,0,5.436,2.631C-948.747,585.029-948.664,584.821-948.754,584.716Zm-1.981-8.037c-1.025-.67-2.573-1-3.543-.15a.654.654,0,0,0,.131,1.016,6.74,6.74,0,0,0,2.281.668,7.247,7.247,0,0,1,2.986,1.924c.108.13.277-.015.254-.148A4.12,4.12,0,0,0-950.735,576.679Zm1.859-2.7a26.767,26.767,0,0,0-5.638-3.067,1.3,1.3,0,0,0-1.25.331l-.22.174a.75.75,0,0,0-.2.74q.042.168.085.335a1.284,1.284,0,0,0,.9.9,26.24,26.24,0,0,0,6.244.873A.153.153,0,0,0-948.875,573.984Zm-.8-4.7a21.266,21.266,0,0,0-3.729-2.4c-1.148-.613-2.574-1.428-3.854-.941a1.007,1.007,0,0,0-.591,1.452c.683,1.3,2.141,1.428,3.447,1.854a15.554,15.554,0,0,0,4.457.68A.383.383,0,0,0-949.675,569.284Zm-2.914-5.761a29.839,29.839,0,0,0-6.948-2.177c-1.053-.265-1.494,1.4-.445,1.613a30.128,30.128,0,0,0,7.259,1.06A.268.268,0,0,0-952.589,563.524Zm-3.919-5.7a18.266,18.266,0,0,0-5.98-.879.989.989,0,0,0,0,1.978,18.267,18.267,0,0,0,5.98-.879A.115.115,0,0,0-956.508,557.822Zm-3.255-3.335a23.174,23.174,0,0,0-5.437-.477c-1.485.106-1.428,2.472,0,2.281a23.847,23.847,0,0,0,5.437-1.585C-959.669,554.671-959.638,554.508-959.762,554.487Zm-2.725-3.663c-1.815.066-4.1.283-5.581,1.4a.345.345,0,0,0,.173.638c1.856.123,3.892-.953,5.447-1.9A.076.076,0,0,0-962.487,550.824Zm-4.246-3.088a.115.115,0,0,0-.111-.191c-1.564.214-4.037.361-4.789,1.985a.578.578,0,0,0,.341.838C-969.46,550.764-967.9,548.923-966.733,547.736Zm-3.213-2.154a.267.267,0,0,0-.322-.418c-1.545.818-4.1,1.56-4.691,3.353a.536.536,0,0,0,.513.674C-972.574,549.11-971.142,546.836-969.946,545.582Zm-3.7-1.6c.143-.2-.126-.413-.312-.312-1.593.863-4.388,1.857-4.835,3.811a.652.652,0,0,0,.623.818C-976.074,548.1-974.784,545.539-973.648,543.984Zm-7.819,4.057c1.932-.981,3.186-3.5,2.119-5.506a.5.5,0,0,0-.9.118,5.278,5.278,0,0,1-2.5,3.2,1.275,1.275,0,0,0-.628,1.095,1.138,1.138,0,0,0,.371.9A1.287,1.287,0,0,0-981.468,548.042Zm-4.8-3.209a1.591,1.591,0,0,0-.641,1.913.653.653,0,0,0,.795.452c.939-.219,1.126-.554,1.4-1.458.359-1.172.812-2.313,1.24-3.462.041-.109-.115-.19-.191-.111C-984.517,543.065-985.345,544-986.267,544.833Zm-3.886,2.453a.654.654,0,0,0,.95.386c1.554-.834,2-3.678,2.387-5.274a.573.573,0,0,0-1.042-.44C-988.8,543.344-990.584,545.541-990.154,547.286Zm-1.458-3.928a.038.038,0,0,0-.07-.029c-.939,1.348-3.137,3.235-2.654,5.024a.539.539,0,0,0,.782.318C-991.909,547.839-991.989,544.96-991.612,543.359Zm-3.534.419a.038.038,0,0,0-.069-.03c-.8,1.246-1.544,2.52-2.3,3.791-.6,1-1.369,1.7-.891,2.856.1.242.362.49.655.372,1.069-.435,1.086-.954,1.369-2.07C-995.969,547.057-995.519,545.429-995.146,543.778Zm-4.193,2.213a46.983,46.983,0,0,0-3.522,6.284c-.373.962,1.248,1.644,1.668.7a47.01,47.01,0,0,0,1.993-6.929A.076.076,0,0,0-999.339,545.991Zm-3.6,2.235a.115.115,0,0,0-.208-.088c-.644.992-1.321,1.966-1.877,3.01-.521.978-1.238,1.864-1.185,3a.462.462,0,0,0,.779.323,4.682,4.682,0,0,0,1.255-2.322C-1003.687,550.859-1003.318,549.55-1002.941,548.227Zm-5.618,3.7a14.686,14.686,0,0,0-2.124,6.007c-.121,1.31,1.909,1.513,2.241.3a14.63,14.63,0,0,0,.091-6.283A.115.115,0,0,0-1008.56,551.924Zm-4.451,3.16a.268.268,0,0,0-.486.064,10.867,10.867,0,0,0-.267,3.076c0,1.152-.2,2,.61,2.861a.653.653,0,0,0,1.016-.131c.534-.866.321-1.379.117-2.365A13.065,13.065,0,0,0-1013.01,555.084Zm-3.131,3.9c-.238,1.711-1.1,3.983.14,5.409a.726.726,0,0,0,1.135-.146c.891-1.644-.453-3.668-1.055-5.263C-1015.956,558.891-1016.125,558.859-1016.142,558.983Zm-2.785,3.276c-.019,1.611-.044,3.761,1.195,4.945a.884.884,0,0,0,1.493-.619c.15-1.69-1.3-3.268-2.363-4.461A.192.192,0,0,0-1018.926,562.258Zm-2.206,2.8,1.526,3.884a8.976,8.976,0,0,0,1.436,2.952c.383.423.987-.03.89-.518a8.711,8.711,0,0,0-1.469-2.795l-2.244-3.582C-1021.037,564.934-1021.165,564.98-1021.132,565.063Zm-1.316,5.227a.153.153,0,0,0-.239.184,30.534,30.534,0,0,0,1.745,3.228c.617.933.923,1.777,2.03,2.077a.537.537,0,0,0,.673-.514c-.016-.994-.424-1.293-1.1-2.032A35.272,35.272,0,0,0-1022.448,570.29Zm-1.3,4.558,2.81,3.184c.767.869,1.365,1.944,2.564,2.115a.579.579,0,0,0,.7-.7c-.273-1.093-1.093-1.454-1.993-2.088l-3.9-2.748C-1023.714,574.5-1023.857,574.725-1023.749,574.848Zm.016,4.949,3.091,2.012a33.933,33.933,0,0,0,3.583,2.387.761.761,0,0,0,.767-1.314,18.065,18.065,0,0,0-2.943-1.3c-1.486-.587-2.93-1.316-4.384-1.978A.114.114,0,0,0-1023.734,579.8Zm1.1,4.834,3.822,1.741a5.828,5.828,0,0,0,3.5.849.651.651,0,0,0,.285-1.081,5.509,5.509,0,0,0-3.178-1.2l-4.249-.727C-1022.7,584.173-1022.89,584.515-1022.637,584.63Zm2.248,4.331c-.165.009-.214.259-.04.3,1.435.328,2.87.655,4.3,1.01a4.085,4.085,0,0,0,3.055-.056.578.578,0,0,0,0-.986,3.9,3.9,0,0,0-2.843-.527C-1017.408,588.807-1018.9,588.884-1020.389,588.961Zm38.485,4.093c.311-1.851.487-4.564-1.019-5.943a.771.771,0,0,0-1.271.336c-.668,1.9.748,4.2,1.873,5.662C-982.217,593.244-981.941,593.274-981.9,593.054Zm3.6-8.55c-1.093-.942-2.211-2.153-3.755-1.8a.578.578,0,0,0-.341.838c.635,1.364,2.283,1.517,3.615,1.793C-978.338,585.422-977.9,584.851-978.3,584.5Zm-.815-4.2c-1.159-.805-2.518-1.8-4-1.35a.462.462,0,0,0-.2.763c1.037,1.138,2.717.972,4.12.87A.153.153,0,0,0-979.119,580.3Zm-3.461-5.359a6.193,6.193,0,0,0-2.8,1.08.344.344,0,0,0,.263.625,6.194,6.194,0,0,0,2.767-1.149A.306.306,0,0,0-982.58,574.945Zm-3.287-2.08a10.28,10.28,0,0,0-2.788,1.613c-.194.17.01.542.259.445a10.428,10.428,0,0,0,2.759-1.76C-985.455,573.019-985.687,572.786-985.867,572.866Zm-3.177-1.526a11.629,11.629,0,0,1-2.358,1.244c-.41.141-.5.452-.679.831a.5.5,0,0,0,.558.727c1.258-.281,1.828-1.606,2.71-2.5A.191.191,0,0,0-989.045,571.34Zm-5.422,1.542c-.124.452.414.945.838.645.829-.589.695-1.065,1.014-2.039.066-.2-.182-.292-.318-.185C-993.714,571.918-994.207,571.934-994.466,572.882Zm-1.158.831c-.1-1.051-.384-1.285-1.245-1.969-.223-.178-.691-.1-.649.269a2.51,2.51,0,0,0,1.035,2.192A.573.573,0,0,0-995.625,573.713Zm-4.02,1.134c.383,1.195.555,2.629,1.55,3.457.233.194.67.092.649-.269-.077-1.323-1.1-2.292-1.852-3.334C-999.416,574.536-999.715,574.629-999.644,574.847ZM-929.57,589.5c1.547,1.051,3.552.934,5.339,1.29a.1.1,0,0,0,.054-.2c-1.711-.638-3.353-1.79-5.226-1.709A.332.332,0,0,0-929.57,589.5Zm1.619-1.467a9.064,9.064,0,0,0,3.791.681c.238.01.263-.328.054-.4a8.912,8.912,0,0,0-3.729-.708C-928.041,587.626-928.174,587.928-927.951,588.034Zm5.056-19.167a8.076,8.076,0,0,0-3.766-.073.255.255,0,0,0,0,.489,8.072,8.072,0,0,0,3.766-.073A.179.179,0,0,0-922.9,568.867ZM-935.621,584a10.946,10.946,0,0,0,3.831.442.331.331,0,0,0,.078-.6,10.938,10.938,0,0,0-3.8-.637C-935.968,583.161-936.069,583.92-935.621,584Zm.083-3.128a9.447,9.447,0,0,0,4.144.171.255.255,0,0,0,0-.489,9.445,9.445,0,0,0-4.144.171A.076.076,0,0,0-935.538,580.875Zm-.013-2.79a8.551,8.551,0,0,0,4.157.122.255.255,0,0,0,0-.489,8.551,8.551,0,0,0-4.157.122A.127.127,0,0,0-935.551,578.085Zm3.852-2.537a.308.308,0,0,0,0-.525c-1.314-.654-2.973-.129-4.309.266a.357.357,0,0,0,.094.7C-934.577,576.142-932.849,576.386-931.7,575.548Zm-4.654-2.37c1.425.6,3.391.71,4.318-.761a.281.281,0,0,0-.241-.42c-1.37,0-2.719.747-4.077.985C-936.465,573-936.434,573.144-936.353,573.178Zm3.617-3.924a.383.383,0,0,0-.43-.559,21.852,21.852,0,0,0-3.265,1.4c-.167.076-.108.326.048.37A3.089,3.089,0,0,0-932.737,569.254Zm-3.631-11.572a.127.127,0,0,0,.123.211c1.7-.56,3.742-1.5,4.374-3.326.119-.344-.284-.559-.559-.43C-933.96,554.861-935.136,556.541-936.368,557.682Zm.578-4.611c-.743.709-1.53,1.4-2.3,2.081a.255.255,0,0,0,.247.424c1.538-.455,4.258-1.675,4.3-3.551a.334.334,0,0,0-.417-.317C-934.8,551.861-935.181,552.49-935.79,553.071Zm-1.059-2.346a7.617,7.617,0,0,1-2.432,1.905.23.23,0,0,0,.115.425c1.87.071,4.569-1.378,4.2-3.571a.456.456,0,0,0-.67-.273A7.332,7.332,0,0,0-936.849,550.725Zm-3.939.532a.1.1,0,0,0,.1.17c1.741-.47,3.775-1.807,3.568-3.861a.359.359,0,0,0-.606-.251C-938.977,548.389-939.62,550.07-940.788,551.256Zm-2.194-1.426c-.04.071.027.183.115.149,1.472-.573,3.083-1.888,3.073-3.6a.461.461,0,0,0-.779-.322C-941.656,546.955-942.3,548.615-942.982,549.831Zm-2.292-1.086a.026.026,0,0,0,.04.031c1.284-1,3.29-2.767,2.823-4.6a.436.436,0,0,0-.72-.19C-944.318,545.019-944.559,547.357-945.274,548.744Zm-1.324-2.031c1.214-.776,2.787-2.21,2.3-3.8a.383.383,0,0,0-.558-.227c-1.09.8-1.477,2.465-2.162,3.614A.306.306,0,0,0-946.6,546.713Zm-80.336,1.906a.356.356,0,0,0,.43-.557,7.282,7.282,0,0,0-2.468-2.148c-.354-.158-.86.194-.59.59A7.451,7.451,0,0,0-1026.934,548.62ZM-976.652,586a.2.2,0,0,0,.121.3,2.045,2.045,0,0,0,2.073-.529.485.485,0,0,0-.341-.822A2.077,2.077,0,0,0-976.652,586Zm.2-2.052c-.062.365.477.67.648.273a3.788,3.788,0,0,1,.691-1.226.2.2,0,0,0-.245-.319A1.64,1.64,0,0,0-976.455,583.947Zm.456-8.257c.056-.351-.348-.668-.636-.37a5.312,5.312,0,0,0-1.228,3c-.022.116.119.224.211.123A5.3,5.3,0,0,0-976,575.69Zm-1.247-1.882a.411.411,0,0,0-.678-.179c-.792.805-.712,1.968-1.16,2.979a.077.077,0,0,0,.1.1C-977.915,576.109-976.726,575.141-977.246,573.808Zm-3.8,1.174a.2.2,0,0,0,.1.378c1.288-.048,2.515-1.4,1.451-2.533a.409.409,0,0,0-.678.179C-980.385,573.724-980.277,574.489-981.046,574.982Zm-1.033-4.108a19.968,19.968,0,0,1-.876,1.99c-.206.352.225.852.589.59a2.074,2.074,0,0,0,.981-2.489C-981.48,570.688-981.934,570.548-982.08,570.874Zm-2.814-1.511a8.806,8.806,0,0,0-.011,2.92.3.3,0,0,0,.609,0,8.8,8.8,0,0,0-.011-2.92A.306.306,0,0,0-984.893,569.363Zm-1.481,1.7a16.34,16.34,0,0,0,.015-3.319.281.281,0,0,0-.538,0,16.376,16.376,0,0,0,.016,3.319A.254.254,0,0,0-986.375,571.067Zm-1.5-.414a4.764,4.764,0,0,0-.524-3c-.135-.25-.6-.227-.649.084a4.92,4.92,0,0,0,.558,3.084C-988.333,571.144-987.9,570.946-987.875,570.653Zm-10.983,12.4a5.4,5.4,0,0,0,2.575.073.306.306,0,0,0,0-.587,5.394,5.394,0,0,0-2.575.073A.23.23,0,0,0-998.858,583.05Zm-.608-3.323c.613.834,1.343,1.563,2.423,1.189a.513.513,0,0,0,.121-.927c-.646-.453-1.374-.4-2.093-.713C-999.279,579.16-999.684,579.429-999.465,579.728Zm8.389-11.985a.72.72,0,0,0-1.187.313,2.182,2.182,0,0,0,.784,2.536.464.464,0,0,0,.717-.092A2.226,2.226,0,0,0-991.076,567.742Zm-2.042,2.107a1.62,1.62,0,0,0-.33-1.093.567.567,0,0,0-.963,0,1.616,1.616,0,0,0-.329,1.093A.812.812,0,0,0-993.118,569.85Zm-33.71-6c.128.079.246-.094.154-.2-1.341-1.517-1.886-3.448-3.125-4.983-.194-.241-.55-.025-.562.233C-1030.464,561.049-1028.509,562.813-1026.828,563.846Zm.9-4.55c-.354-1.111-.664-2.244-1.118-3.319-.069-.162-.321-.044-.278.118.3,1.114.752,2.188,1.152,3.269C-1026.12,559.514-1025.881,559.454-1025.931,559.3Zm.4-6.453a19.468,19.468,0,0,0,1.375,4.895.127.127,0,0,0,.244-.068,19.493,19.493,0,0,0-1.147-4.955A.255.255,0,0,0-1025.536,552.843Zm3.806,2.406c-.24-1.823-.307-3.791-1.254-5.409a.332.332,0,0,0-.614.167c-.057,1.863.812,3.592,1.47,5.3C-1022.052,555.5-1021.7,555.494-1021.729,555.25Zm1.845-2.483c-.639-1.445-.353-3.1-1.082-4.53a.281.281,0,0,0-.52.141c.071,1.6,1.14,2.9,1.3,4.471A.161.161,0,1,0-1019.885,552.766Zm1.617-6.513c-.042-.233-.392-.167-.4.054a21.787,21.787,0,0,0,.354,3.694c.02.144.25.106.249-.034A21.956,21.956,0,0,0-1018.267,546.253Zm3.176,2.576a.127.127,0,0,0,.2-.154c-.5-1.087-.3-2.15-.58-3.255a.357.357,0,0,0-.648-.085C-1016.787,546.622-1016.039,547.9-1015.092,548.83Zm2.619-1.935a.153.153,0,0,0,.254-.067,6.268,6.268,0,0,0,.069-3.049.435.435,0,0,0-.788-.1A2.509,2.509,0,0,0-1012.472,546.895Zm4.025-.15a15.319,15.319,0,0,0-.512-3.353c-.08-.267-.515-.226-.5.067a15.488,15.488,0,0,0,.661,3.333C-1008.743,546.98-1008.432,546.949-1008.448,546.745Zm2.179-1.238a10.849,10.849,0,0,0-.513-3.691.2.2,0,0,0-.4.054,10.839,10.839,0,0,0,.513,3.691A.2.2,0,0,0-1006.269,545.507Zm2.492-4.538a.306.306,0,0,0-.587,0,11.022,11.022,0,0,0-.011,2.92.3.3,0,0,0,.608,0A11.027,11.027,0,0,0-1003.777,540.968Zm60.468,38.789a4.173,4.173,0,0,0,3.371.375.178.178,0,0,0-.047-.349,19.061,19.061,0,0,1-3.245-.212C-943.338,579.549-943.418,579.706-943.309,579.758Zm.445-2.447A3.5,3.5,0,0,0-939.84,577a.2.2,0,0,0-.156-.371,8.333,8.333,0,0,1-2.813.284C-943.042,576.887-943.079,577.252-942.864,577.31Zm2.509-5.277a5.3,5.3,0,0,0-3.252,1.21.077.077,0,0,0,.039.142,5.3,5.3,0,0,0,3.393-.691A.358.358,0,0,0-940.355,572.033Zm-4.227-2.8c-.232.1-.146.452.067.51,1.277.344,2.9-.03,3.241-1.471a.435.435,0,0,0-.53-.53C-942.8,568.056-943.609,568.819-944.582,569.232Zm-.6-2.875a5.924,5.924,0,0,0,3.068-1.964c.145-.209-.093-.469-.315-.41a5.836,5.836,0,0,0-2.852,2.2C-945.342,566.257-945.287,566.4-945.184,566.357Zm-1.037-3.689c-.187.094-.012.4.164.28,1.2-.795,2.267-1.167,2.385-2.8.02-.273-.34-.316-.473-.128C-944.739,560.864-945.253,562.181-946.221,562.668Zm.411-5.406c.013-.33-.4-.378-.567-.153a11.556,11.556,0,0,1-1.713,2.262c-.043.036,0,.093.049.085A2.394,2.394,0,0,0-945.809,557.261Zm-2.122-3.194c.05-.182-.209-.365-.339-.2-.612.784-1.093,1.644-1.644,2.469-.133.2.155.4.318.246A5.154,5.154,0,0,0-947.932,554.067Zm-4.439.3c1.412-.626,2.446-2.247,1.646-3.719a.306.306,0,0,0-.567.154c-.054,1.264-.192,2.344-1.386,3.04C-953.024,554.044-952.721,554.523-952.37,554.367ZM-955.01,552a.409.409,0,0,0,.756.2,4.58,4.58,0,0,0,.937-3.534.408.408,0,0,0-.678-.179A4.554,4.554,0,0,0-955.01,552Zm-2-5.458a5.363,5.363,0,0,0-.6,3.045.255.255,0,0,0,.472.128,5.351,5.351,0,0,0,.742-3.007A.332.332,0,0,0-957,546.538Zm-3.588,1.411a.357.357,0,0,0,.7.094,6.065,6.065,0,0,0,.426-3.41.306.306,0,0,0-.556-.072A6.064,6.064,0,0,0-960.593,547.949Zm-2.972-2.166c-.2.481.6.806.834.351a2.714,2.714,0,0,0,.241-2.777.256.256,0,0,0-.463.061C-963.222,544.2-963.246,545.013-963.565,545.783Zm-2.312-4.016a6.272,6.272,0,0,0-.064,2.122.406.406,0,0,0,.811,0,6.275,6.275,0,0,0-.064-2.122A.357.357,0,0,0-965.877,541.766Zm-58.445,50.135a4.424,4.424,0,0,0-2.849,1.191.077.077,0,0,0,.038.142,4.461,4.461,0,0,0,3.062-.726C-1023.811,592.293-1024.044,591.921-1024.322,591.9Zm-5.356-1.773c1.155.522,2.907.769,3.255-.826a.41.41,0,0,0-.6-.458c-.93.413-1.529,1.15-2.634,1.19C-1029.7,590.036-1029.726,590.106-1029.677,590.128Zm42.912-64.031a8.733,8.733,0,0,1,4.419,2.419c1.372,1.283,1.76,2.223,2.587-.37a5.252,5.252,0,0,1,2.519-2.629c3.166-1.855,9.114-2.128,12.646-1.463,5.158.972,12.111,5.089,12.656,10.739a6.045,6.045,0,0,1-.137,5.028,4.23,4.23,0,0,0,.62,1.168c.121-2.627,3.273-4.478,5.78-4.949,4.5-.847,9.49,2.724,12.838,5.281,4.44,3.391,7.152,9.809,4.979,14.506a6.784,6.784,0,0,1-1.6,3.563,9.989,9.989,0,0,1,3.247.6c7.9,2.05,11.244,12.283,7.636,19.109a6.284,6.284,0,0,1-1.874,2.658,8.308,8.308,0,0,1-1.209,1.282c5.189,2.1,8.218,10.87,7.3,15.648a15.467,15.467,0,0,1-8.663,11.063.932.932,0,0,1-.178.075,12.057,12.057,0,0,1-2.05.659c5.673,2.736,4.512,12.892,1.72,17.772-2.313,4.043-6.972,7.8-11.589,7.749,1.508,3.265,1.554,8,.3,10.431a20.476,20.476,0,0,1-9.139,9.022,28.166,28.166,0,0,1-6.21,2.221c-1.042.23-3.263-.073-4.823.316a20.314,20.314,0,0,1-.158,13.506c-.846,2.459-6.19,5.7-8.361,7.027-3.542,2.172-7.675,4.4-11.959,4.441-2.245.022-15.444-3.711-15.916-1.449a.683.683,0,0,1-.479.542,14.885,14.885,0,0,1-4.834,10.075c-6.044,12.969-28.1,10.23-30.743-3.7-.02-.059-.048-.117-.066-.176-.671,4.122-5.252,8.465-8.4,9.927a28.438,28.438,0,0,1-13.906,2.284,18.427,18.427,0,0,1-3.135-.158,17.936,17.936,0,0,1-7.241-2.668,10.586,10.586,0,0,1-7.184-9.888c-4.11,7.511-13.91,12.291-22.235,9.511-5.828-1.946-15.716-9.965-16.139-17.532-7.666,7.5-23.3,7.211-31.156.125-3.22-2.905-2.676-9.5-6.258-11.8-4.006-2.57-9.737.247-14.137-.946-11.377-3.085-22.577-12.813-19.694-25.832-.255,1.149-8.873-1.567-9.7-1.926a25.938,25.938,0,0,1-8.68-6.214c-3.2-3.482-9.8-13.976-4.685-18.2l.523-.293c-1.162.651-5.029-.6-6.188-1.077a14.5,14.5,0,0,1-4.855-3.118c-2.646-2.706-4.851-6.891-4.794-10.753.086-5.732,4.532-6.114,6.634-9.383a.829.829,0,0,1,.725-.429c4.365.148,7.546,3.662,9.272,7.913a3.851,3.851,0,0,1,1.948-.195,7.923,7.923,0,0,1-.81-.982c-4.016-2.953-7.439-9.119-4.359-13.892a8.6,8.6,0,0,1,.669-.9c1.032-1.635,3.4-2.752,5.03-3.542a14.843,14.843,0,0,1,5.582-1.8.23.23,0,0,1,.115.425,32.469,32.469,0,0,1-3.17,1.586,10.48,10.48,0,0,1,3.1,1.306c1.467-.185,2.924-.352,4.4-.512a.191.191,0,0,1,.1.355,24.573,24.573,0,0,1-3.036,1.162,14.626,14.626,0,0,1,1.971,1.887,35.744,35.744,0,0,0,4.949-.63c.326-.074.551.389.234.555a18.306,18.306,0,0,1-4.049,1.641c.064.111.14.224.2.333a11.539,11.539,0,0,1,.643,1.573,23.716,23.716,0,0,0,4.729-.892c.2-.06.347.261.147.347a22.093,22.093,0,0,1-4.6,1.475,13.464,13.464,0,0,1,.288,1.506c.078,0,.159.013.236.014a18.113,18.113,0,0,0,5.46-.768.305.305,0,0,1,.234.556,18.928,18.928,0,0,1-5.479,1.805c-.1.018-.221.026-.328.042a11.884,11.884,0,0,1-.1,1.757c.678.011,1.354.03,2.036-.025.047,0,.077.025.117.037a9.8,9.8,0,0,1,1.983-1.541c2.478-2.478,7.241-3.391,10.491-4.127a.114.114,0,0,1,.061.22c-1.473.541-2.912,1.17-4.326,1.853a14.679,14.679,0,0,1,3.569.692c.725-.153,1.448-.333,2.161-.5a.609.609,0,0,1,.323,1.173c-.14.043-.281.086-.423.128a24.168,24.168,0,0,1,2.355,1.235c.15-.009.3-.016.457-.03a11.614,11.614,0,0,1,3.183-.1.192.192,0,0,1,.045.347,7.656,7.656,0,0,1-2.131.8,18.392,18.392,0,0,1,1.561,1.248c2.066.06,4.195.4,6.177.567a.19.19,0,0,1,0,.38c-1.529.13-3.144.357-4.752.488a14.388,14.388,0,0,1,1.4,1.864c.406.027.808.055,1.2.064l4.583.109c.124,0,.162.2.03.224l-5.119.75-.068.012c.106.215.233.416.328.639a24.422,24.422,0,0,1,.866,2.406,30.073,30.073,0,0,1,7.692.2c.312.065.268.5,0,.587a28.242,28.242,0,0,1-7.226,1.036,15.936,15.936,0,0,1,.333,2.65,27.891,27.891,0,0,0,6.046-.259c.187-.016.184.238.04.3a23.82,23.82,0,0,1-6.117,1.241,12.217,12.217,0,0,1-.325,2.21c.59.106,1.178.187,1.759.237a10.47,10.47,0,0,1,1.747-1.417.393.393,0,0,1,.143-.436c3-2.005,6.648-4.113,10.256-3.663l.119-.028c3.811-.884,8.391-2.266,12.3-1.583a.115.115,0,0,1,.027.209c-2.719,1.483-6.047,1.9-9.184,2.582.607.385,1.2.8,1.792,1.239.351-.068.7-.135,1.031-.222a37.067,37.067,0,0,1,4.981-.992c.2-.025.245.264.1.354a20.66,20.66,0,0,1-4.636,2.026c.753.636,1.473,1.316,2.164,2.028a16.3,16.3,0,0,0,4.447-1.253.076.076,0,0,1,.076.131,18.11,18.11,0,0,1-3.794,1.9q.672.746,1.287,1.536a8.32,8.32,0,0,0,1.023.017,15.563,15.563,0,0,0,4.606-.964c.325-.12.538.4.234.556a18.281,18.281,0,0,1-4.878,1.727q.5.729.941,1.486a8.6,8.6,0,0,0,1.106-.033,35.25,35.25,0,0,0,5.358-1.086.344.344,0,0,1,.264.626,16.164,16.164,0,0,1-5.416,1.984c-.155.027-.316.057-.478.088.034.07.075.137.108.207.061.131.111.258.169.388,1.046-.024,2.172.308,3.268.385,1.835.128,3.643.109,5.468.358.038,0,.034.065,0,.073-1.995.487-4.03.614-6.034,1.055-.586.129-1.175.32-1.756.454.169.471.318.941.453,1.409.557-.064,1.117-.119,1.681-.187a41.131,41.131,0,0,1,5.239-.206.267.267,0,0,1,.071.523,46.8,46.8,0,0,1-5.861,1.23c-.261.035-.513.073-.766.11.09.43.168.862.225,1.3.17-.006.354-.024.51-.022a10.763,10.763,0,0,1,2.652.18,11.043,11.043,0,0,1,1.659.856.23.23,0,0,1-.054.417,15.047,15.047,0,0,1-1.857.6c-.9.09-1.78.256-2.669.416-.035.006-.068.017-.1.024a17.052,17.052,0,0,1-.144,1.995,11.074,11.074,0,0,1,3.153.566c.191.069.243.4,0,.44-1.138.192-2.324.394-3.463.684-.027.119-.041.234-.07.354a8.276,8.276,0,0,1-.709,1.792c1.144-.241,2.319-.4,3.411-.613a15.67,15.67,0,0,1,2.98-4.1c4.246-6.394,12.285-10.774,19.884-8.489a.153.153,0,0,1-.04.3,17.09,17.09,0,0,0-5.026.839,19.432,19.432,0,0,1,5.427,1.219c.068.025.126.067.193.094a24.486,24.486,0,0,1,4.922-.416.229.229,0,0,1,.061.448c-1.081.272-2.174.531-3.263.807a13.175,13.175,0,0,1,2.041,1.567c.785-.183,1.564-.389,2.341-.584a.114.114,0,0,1,.061.22c-.668.249-1.347.485-2.016.742a16.739,16.739,0,0,1,1.577,1.78c.942-.144,1.889-.261,2.786-.413a.3.3,0,0,1,.162.587c-.7.274-1.426.6-2.162.912.24.361.471.728.689,1.1a9.888,9.888,0,0,1,3.453-.062.153.153,0,0,1,.036.278,15.178,15.178,0,0,1-2.8,1.08q.567,1.133,1.016,2.29c.206-.062.414-.122.616-.19a39.274,39.274,0,0,1,4.278-1.061c.2-.045.344.24.147.347a40.577,40.577,0,0,1-4.06,2.034c-.165.067-.332.144-.5.218.117.357.238.716.339,1.069.348-.046.71-.07,1.082-.1a14.891,14.891,0,0,0,4.1-.905c.216-.08.31.231.147.348-1.048.745-3.105,2.306-4.864,2.655a19.865,19.865,0,0,1,.286,2.178,13,13,0,0,0,1.388-.314c1.595-.481,3.125-1.086,4.714-1.548a.23.23,0,0,1,.222.381,12.518,12.518,0,0,1-4.548,2.572c-.56.193-1.151.4-1.75.572a15.633,15.633,0,0,1-.18,2.059c.039-.01.078-.012.116-.023a18.085,18.085,0,0,0,3.958-1.612c.293-.163.642.25.369.478a14.073,14.073,0,0,1-3.971,2.427c-.272.1-.551.219-.83.327a10.906,10.906,0,0,1-3.757,5.76,30.117,30.117,0,0,0,2.946-1.267.609.609,0,0,1,.614,1.051c-3.6,2.121-8.225,4.116-12.627,4.07a18.159,18.159,0,0,1-2.568.2.14.14,0,0,1-.089.13,34.767,34.767,0,0,1-3.753,1.454c.252.2.511.4.751.608.64-.158,1.3-.263,1.916-.354a37.708,37.708,0,0,1,5.081-.282c.181,0,.272.273.1.354a35.778,35.778,0,0,1-4.619,1.952c-.2.064-.428.13-.643.2.13.151.262.3.387.454a15.045,15.045,0,0,1,3.3-.6,13.656,13.656,0,0,1,4.731-.17.191.191,0,0,1,.045.347,34.764,34.764,0,0,1-5.017,1.387c-.62.184-1.256.438-1.9.622.127.195.254.388.372.586,2.513-.861,5.681-.162,8.107.479.1.027.115.2,0,.22-1.551.236-3.065.633-4.625.793-.853.087-1.7.26-2.538.336.037.083.068.169.1.252.221.4.42.806.611,1.216a9.45,9.45,0,0,1,2.484-.314,41.922,41.922,0,0,1,4.742.207c.165.006.216.268.041.3-1.544.269-3.02.828-4.555,1.171-.661.147-1.319.378-1.974.467.133.391.279.78.38,1.173a9.025,9.025,0,0,1,5.332.257.115.115,0,0,1,0,.22c-1.67.4-3.374.678-5.025,1.153a12.28,12.28,0,0,1,.117,1.905,7.715,7.715,0,0,1,4.255.116,17.616,17.616,0,0,1,1.66-2.07,8.434,8.434,0,0,1,4.9-3.242c.226-.5.445-1,.675-1.514.582-1.293,1.072-2.741,1.786-4.008a11.1,11.1,0,0,1-.676-1.873c-1.877-7.506,1.887-12.771,6.615-17.586a10.789,10.789,0,0,1,3.968-3.859l.028-.027a.152.152,0,0,1,.122-.045,11.034,11.034,0,0,1,2.962-1.129c.038-.065.066-.135.107-.2a.393.393,0,0,1,.712.092c.3-.039.591-.1.89-.115.2-.009.395.017.595.017a3.445,3.445,0,0,1,.152-.456.537.537,0,0,1,.92,0,2.273,2.273,0,0,1,.208.492c.319.027.629.085.941.133a4.616,4.616,0,0,1,.4-1,.484.484,0,0,1,.756-.1,2.328,2.328,0,0,1,.536,1.453c.423.116.845.235,1.255.384a2.82,2.82,0,0,1,.379-.623.485.485,0,0,1,.756.1,2.218,2.218,0,0,1,.3,1.141c.435.2.861.428,1.282.665a4.151,4.151,0,0,1,.387-1.007.51.51,0,0,1,.876,0,2.781,2.781,0,0,1,.13,1.854c.082.055.162.113.244.168a2.44,2.44,0,0,1,1.011-1.364.486.486,0,0,1,.659.173,2.961,2.961,0,0,1-.028,2.4c.32.254.643.5.956.771a3.683,3.683,0,0,1,1.02-1.682c.234-.2.7-.165.763.2a5.485,5.485,0,0,1-.405,2.72c.025.023.051.045.076.068a13.406,13.406,0,0,1,1.024,1.12,2.938,2.938,0,0,1,1.314-1.671.537.537,0,0,1,.8.459,5.329,5.329,0,0,1-1,2.732,13.683,13.683,0,0,1,.829,1.533c.565-1.465,1.151-2.921,1.8-4.368a.268.268,0,0,1,.5.135c-.27,2.681-.688,5.294-1.154,7.945.965,5.9-1.656,12.248-7.222,14.9a13.207,13.207,0,0,1-1.333.986,15.715,15.715,0,0,1-7.751,2.548.427.427,0,0,1,.123.411,2.994,2.994,0,0,1-.2.575q.6.484,1.147,1.02a10.814,10.814,0,0,1,1.257-1.959.357.357,0,0,1,.606.251,3.791,3.791,0,0,1-1.134,2.462c.261.293.516.589.753.9a5.412,5.412,0,0,1,2.192-2.47.333.333,0,0,1,.484.372,7.774,7.774,0,0,1-1.562,2.442c-.156.2-.294.422-.446.629.26.4.5.812.715,1.233a8.965,8.965,0,0,1,1.881-2.642.332.332,0,0,1,.551.321,10.13,10.13,0,0,1-1.95,3.329,14.017,14.017,0,0,1,.567,1.605c.458-.844.945-1.667,1.45-2.428a.533.533,0,0,1,.92.538,29.37,29.37,0,0,1-2.012,3.512c.049.311.1.622.129.935.676-1.5,1.281-3.05,2.073-4.455a.458.458,0,0,1,.834.352c-.624,2.316-1.355,4.619-2.06,6.918a2.418,2.418,0,0,1,1.95.98c.555-1.238,1.288-2.439,1.777-3.484,1.228-2.621,2.31-5.715,4.265-7.876.131-.145.322.013.3.173a38.17,38.17,0,0,1-2.806,8.41,16.017,16.017,0,0,1,3.42-2.947c.34-.625.8-1.207,1.1-1.877a33.317,33.317,0,0,0,1.441-3.762.178.178,0,0,1,.349.047,8.769,8.769,0,0,1-.531,4.3c.594-.269,1.2-.517,1.822-.727.231-1.732,1.414-3.322,2.212-4.809a.153.153,0,0,1,.284.077,26.708,26.708,0,0,1-.435,4.158c.64-.142,1.287-.246,1.937-.324l.22-.355a8.539,8.539,0,0,0,1.079-2.756c.032-.145.242-.1.249.034a12.961,12.961,0,0,1-.119,2.979c.359-.016.716-.039,1.074-.035.174-.478.363-.951.509-1.4a7.142,7.142,0,0,1,1.059-2.218,12.8,12.8,0,0,1-7.644-8.86,11.865,11.865,0,0,1,.2-9.93c.817-4.694,5.2-9.425,9.011-11.314.2-.1.421.153.246.318a32.943,32.943,0,0,0-4.646,5.176,11.513,11.513,0,0,1,.979-.629c.042-.024.084-.04.125-.063a14.633,14.633,0,0,1,4.035-2.24,9.459,9.459,0,0,1,3.91-1.935c.162-.036.276.195.117.278a14.969,14.969,0,0,0-1.6.988,14.606,14.606,0,0,1,3.969-.184c.269-.067.546-.139.784-.192a.077.077,0,0,1,.074.127c-.043.049-.094.1-.139.153a12.608,12.608,0,0,1,6.544,2.941c.277-.3.547-.583.77-.8.085-.084.259,0,.212.123-.156.412-.269.835-.387,1.257a12.328,12.328,0,0,1,1.04,1.185,10.554,10.554,0,0,1,1.556-1.761.127.127,0,0,1,.2.154,10.758,10.758,0,0,0-.945,2.77,16.8,16.8,0,0,1,1.1,2.032,12.247,12.247,0,0,0,1.21-1.3.1.1,0,0,1,.175.1c-.312.685-.619,1.446-.981,2.171a14.492,14.492,0,0,1,.774,2.914,11.685,11.685,0,0,1,2.166-.771c.324-.082.556.405.234.556a8.492,8.492,0,0,0-2.26,1.524,13.464,13.464,0,0,1-.166,2.911c.458-.3.919-.6,1.364-.9.145-.1.306.12.184.239-.593.58-1.17,1.215-1.792,1.79a14.149,14.149,0,0,1-1.359,3.445c.113-.055.23-.108.341-.164a13.79,13.79,0,0,1,2.9-1.25.314.314,0,0,1,.2.021,15.318,15.318,0,0,1,1.793-9.5c.2-.333.823-.222.779.212-.5,4.951-.509,9.92,2.765,14a9.575,9.575,0,0,1,1.774,3,17.059,17.059,0,0,0,9.894.422c4.643-1.205,7.291-3.37,10.649-6.532-.239-1.763.073-3.675-.272-5.448a43.746,43.746,0,0,0-2.3-8.832c-.078-.18.154-.416.3-.231,2.064,2.646,3.757,5.02,4.328,8.422.374,2.237,1.088,5.2.008,7.313a1.551,1.551,0,0,1-.112,1.375c-2.806,4.181-10.543,7.452-16.923,7.118a.55.55,0,0,1-.381.674c-2.04.653-4.224.214-6.291.969a13.189,13.189,0,0,0-5.447,3.873c-.064.073-.208,0-.169-.1a10.219,10.219,0,0,1,4.974-5.3c.849-.413,1.87-.746,2.624-1.143-1.253.66-4.577-2.427-5.247-3.252a12.984,12.984,0,0,1-2.65-6.489,16.765,16.765,0,0,1-3.169,1.925c-.569.3-1.108.621-1.675.865a16.3,16.3,0,0,1-1.128,1.3c-.125.17-.266.326-.4.49a23.365,23.365,0,0,1,4.148-1.972c.03-.01.041.03.02.047-1.351,1.007-2.784,1.862-4.172,2.815a26.367,26.367,0,0,1-4.13,2.857.4.4,0,0,1-.34-.011,11.981,11.981,0,0,1-2.4.962,14.1,14.1,0,0,1-5.767.309,28.719,28.719,0,0,1-.786,3.224,15.045,15.045,0,0,1,2.307.851c.576-1.039,1.473-1.966,2.087-2.935.1-.163.4-.059.325.137-.4,1.073-.608,2.367-1.094,3.464.4.238.8.487,1.175.764.264-.419.574-.821.834-1.23a17.9,17.9,0,0,0,1.807-3.408.076.076,0,0,1,.146.04c-.266,1.564-.6,4-1.722,5.464.313.271.611.558.9.853a41.762,41.762,0,0,1,3.656-5.5c.08-.107.28-.049.231.1a22.7,22.7,0,0,1-3.028,6.315c.3.344.591.692.858,1.057a1.868,1.868,0,0,1,.687.173,18.144,18.144,0,0,0,1.88-3.537c.377-1.012.406-2.478,1.351-3.093a.233.233,0,0,1,.313.082c.739,1.026-.118,2.81-.524,3.874a18.231,18.231,0,0,1-1.908,3.654,8.56,8.56,0,0,1,1.429,2.151,9.134,9.134,0,0,0,1.081-3c.241-1.578-.086-3.245.291-4.764a.269.269,0,0,1,.445-.117c2.009,1.731,2.412,5.531,1.972,8.776a4.289,4.289,0,0,1,.682.141,12.632,12.632,0,0,1,2.768-6.047c.18-.22.5.02.445.259-1.078,4.623.722,13.845,5.442,16.064a14.148,14.148,0,0,0,4.116,1.036,22.821,22.821,0,0,0,4.22.283c4.629-.224,10.918-3.874,13.267-7.96,1.175-2.045,2.558-7.7,1.024-9.918-.374-.541-.212-1.107-.461-1.832a5.538,5.538,0,0,0-1.63-2.45c-.189-.158-.4-.272-.6-.409-.02-.007-.03-.023-.048-.032a10.915,10.915,0,0,0-1.832-1.008c-.1.125-.194.254-.3.377-.177.2-.57-.012-.466-.271.048-.121.125-.227.182-.343-.8-.31-1.609-.588-2.416-.895-.051-.02-.047-.1.014-.1a17.262,17.262,0,0,1,2.778.307,10.706,10.706,0,0,1,2.353-2.338c.251-.194.609.136.359.359a15.462,15.462,0,0,0-1.916,2.168,12.053,12.053,0,0,1,1.443.465,5.64,5.64,0,0,1,3.9-2.588.178.178,0,0,1,.095.342,6.834,6.834,0,0,0-3.062,2.643,7.772,7.772,0,0,1,1.276.827,6.266,6.266,0,0,1,3.3-2.262.331.331,0,0,1,.254.6,13.068,13.068,0,0,0-2.213,1.749c-.208.234-.376.465-.551.686a5.835,5.835,0,0,1,.5.695,3.224,3.224,0,0,1,3.675-.493,4.4,4.4,0,0,0-1.84,3.1,4.673,4.673,0,0,1,2.1-1.519.356.356,0,0,1,.186-.654,12.408,12.408,0,0,1,1.293.169c.247-7.121,7.23-13.075,13.563-16.047a20.28,20.28,0,0,1-8.561-.138,12.109,12.109,0,0,1-2.044-.607c-.036-.015-.068-.035-.1-.049a8.883,8.883,0,0,1-1.725-.966c-.269-.167-.575-.278-.83-.464a.093.093,0,0,1,.069-.168,6.46,6.46,0,0,1-1.942-3.769,3.942,3.942,0,0,1-1.407-2.876,8.919,8.919,0,0,1-.058-4.175.128.128,0,0,1,.231-.03,13.34,13.34,0,0,1,1.59,3.1,9.909,9.909,0,0,1,4.377-4.829,6.715,6.715,0,0,1-1.645-3.075c-.018-.057.062-.086.093-.039a22.105,22.105,0,0,0,2.5,2.583c.1-.053.2-.113.3-.163.372-.186.778-.372,1.2-.556a5.279,5.279,0,0,1-1.853-2.977c-.044-.161.18-.317.3-.173.819,1.008,1.989,1.683,2.835,2.63.41-.157.832-.307,1.264-.453a7.231,7.231,0,0,1-2.314-3.24c-.049-.155.147-.242.254-.148a17.03,17.03,0,0,0,2.957,2.092,10.289,10.289,0,0,1,1.211.647c.763-.206,1.528-.375,2.286-.517-1.2-.688-2.335-1.668-3.389-2.386a.127.127,0,0,1,.127-.219c1.543.672,3.583,1.234,4.938,2.356a15.241,15.241,0,0,1,2.006-.1,11.657,11.657,0,0,1-2.995-2.928c-.016-.023.014-.044.035-.034,1.92.856,4.46,1.795,5.939,3.335a9.741,9.741,0,0,1,2.694,1.1,8.138,8.138,0,0,0-1.335-1.665,12.586,12.586,0,0,0-4.515-2.442.152.152,0,0,1,.081-.294,12.238,12.238,0,0,1,5.469,2.188c1.117.828,2.868,1.869,2.83,3.415a.534.534,0,0,1-.547.54,7.053,7.053,0,0,1,1.055,1.807c1.08,2.768.988,6.6-1.292,8.833-.234.229-.515.425-.769.64a.406.406,0,0,1,.544.138c.7,1.416.119,2.882-.247,4.327a.153.153,0,0,1-.293,0c-.359-1.416-.911-2.852-.272-4.242a16.778,16.778,0,0,1-2.065,1.433.332.332,0,0,1,.392.24,4.166,4.166,0,0,1-.147,2.582.2.2,0,0,1-.391,0,4.169,4.169,0,0,1-.146-2.582c.01-.046.044-.07.069-.1a19.645,19.645,0,0,1-1.859.925,10.845,10.845,0,0,1-.29,2.23c-.146.61-1.045.348-.929-.256a10.271,10.271,0,0,1,.47-1.636,22.085,22.085,0,0,1-2.241.737c-2.808,1.942-5.984,3.266-8.492,5.672a12.123,12.123,0,0,0-3.885,10.309A3.6,3.6,0,0,1-985.8,675.9a.653.653,0,0,1,.03.413c.179.062.36.092.536.17a28.067,28.067,0,0,0,3.567,1.285,13.806,13.806,0,0,0,1.417.146c.357.016.721,0,1.082-.006a10.925,10.925,0,0,0,5.394-.129c8.094-2.37,20.1-8.066,13.116-18.424a1.079,1.079,0,0,1,.137-1.353c-.032-.012-.072-.012-.083-.054-.382-1.433-.75-4.009,1.194-4.443a.512.512,0,0,1,.642.489c-.148,1.452-1.488,2.264-1.564,3.81a1.129,1.129,0,0,1,1.3-.158,1.73,1.73,0,0,1,1-1.2c.1-.191.182-.392.288-.58a6.3,6.3,0,0,0,.712-.979,1.524,1.524,0,0,0-.462-2.047c.185-.042.369-.063.553-.092a3.314,3.314,0,0,1-1.4-2.2,32.807,32.807,0,0,1-3.173-2.774.051.051,0,0,1,.061-.079c1.106.585,2.18,1.16,3.192,1.826a7.24,7.24,0,0,1-.531-2.565,6.652,6.652,0,0,1-2.173-2.233c-.118-.177.108-.37.278-.277.639.349,1.346.613,2.023.923a5.928,5.928,0,0,1,.415-1.227,6.234,6.234,0,0,1-1.455-.83.53.53,0,0,1-.209-.551,4.357,4.357,0,0,1-.763.055.671.671,0,0,1-.592.253,3.509,3.509,0,0,1-2.189-1.157c-.161-.028-.32-.059-.483-.086a1.592,1.592,0,0,1-1.182-1.553c.006-.13.027-.255.035-.385-.018-.022-.035-.045-.052-.067-1.317-1.634-2.816-3.139-4.219-4.7a.419.419,0,0,1,.592-.592c1.308,1.049,2.6,2.121,3.929,3.152.083-.517.169-1.033.285-1.536-.6-.626-.885-1.415-1.458-2.065a6.112,6.112,0,0,0-2.405-1.605c-.146-.061-.095-.29.067-.244A12.464,12.464,0,0,1-964,634.161q.263-.8.581-1.563a13.009,13.009,0,0,1-3.4-2.656.1.1,0,0,1,.1-.169,13.363,13.363,0,0,1,4.023,1.282c.242-.474.506-.933.781-1.385-.961-.571-1.854-1.353-2.816-1.844-.081-.041-.022-.156.059-.139a20.888,20.888,0,0,1,3.549.777c.249-.353.5-.706.766-1.043a7.561,7.561,0,0,1-2.507-2.232.2.2,0,0,1,.246-.319c1.047.541,2.365.664,3.336,1.3.317-.339.656-.658.995-.976a8.431,8.431,0,0,1-3.078-2.79.23.23,0,0,1,.258-.335c1.008.374,1.976.735,2.954,1.187.476.219.972.381,1.425.605.37-.286.753-.556,1.143-.818a6.556,6.556,0,0,1-3.279-2.749.2.2,0,0,1,.277-.278,16.79,16.79,0,0,0,2.973,1.4c.654.2,1.333.239,1.954.465.274-.146.548-.293.829-.428a9.24,9.24,0,0,1-2.331-2.832.2.2,0,0,1,.319-.246,13.533,13.533,0,0,0,2.736,1.944c.292.162.589.295.88.431a22.86,22.86,0,0,1,2.328-.748l-.386-.441a26.916,26.916,0,0,1-2.358-3.862.191.191,0,0,1,.26-.26,26.947,26.947,0,0,1,3.89,2.33l1.844,1.586c.046-.006.089-.017.135-.022.34.326.694.659,1.066.969a26.073,26.073,0,0,1-.418-3.113c-1.669.436-3.4-1.74-4.262-2.955-.074-.1.07-.242.173-.173a7.334,7.334,0,0,0,2.932,1.241,3.623,3.623,0,0,1,1.06.259c-.005-.451.029-.892.049-1.336-1.24.155-2.555-1.131-3.333-1.987a.1.1,0,0,1,.1-.169,13.767,13.767,0,0,1,3.325.649c.047-.448.119-.892.189-1.336a8.9,8.9,0,0,1-2.48-.947.46.46,0,0,1,.23-.851,8.844,8.844,0,0,1,2.535.25c.1-.472.205-.945.331-1.416a14.134,14.134,0,0,1-1.827-.885.332.332,0,0,1,.167-.614,13.069,13.069,0,0,1,2.1.058c.153-.482.3-.964.475-1.445-.464-.246-.921-.516-1.383-.727-.094-.043-.044-.191.052-.189.561.01,1.143-.045,1.714-.059.253-.644.518-1.293.806-1.943-.457-.2-.907-.443-1.382-.656-.178-.08-.065-.316.09-.331.627-.062,1.232-.174,1.832-.2.084-.181.158-.359.245-.54.141-.292.293-.6.439-.9-.621-.212-1.237-.459-1.805-.607a.332.332,0,0,1,0-.635,6.965,6.965,0,0,1,2.656-.42c.169-.317.337-.631.517-.944a20.9,20.9,0,0,0-2.33-.974.2.2,0,0,1,0-.391,5.864,5.864,0,0,1,3.412-.328c.27-.383.547-.758.845-1.108a10.461,10.461,0,0,0-2.263-1.049.2.2,0,0,1,.054-.4c1.156-.073,2.612-.422,3.685.007a7.7,7.7,0,0,1,1.989-1.124,18.252,18.252,0,0,1-4.474-2.4.652.652,0,0,1,.327-1.2c1.211-.072,5.412-.278,6.69,1.143.036,0,.064-.006.1,0a6.388,6.388,0,0,1,4.673,2.9c.695.268,1.366.582,2.067.93.13.064.039.273-.1.232-.543-.166-1.065-.317-1.574-.494,1.639,3.663.085,9.408-1.9,14.506.192.115.385.225.571.352a7.659,7.659,0,0,0,.958-.093,1.882,1.882,0,0,0,.166.093,19.862,19.862,0,0,0,3.05-1.843c2.636-4.134,4.616-11.683,2.746-16.1a10.213,10.213,0,0,0-1.246-1.535,21.742,21.742,0,0,0-1.662-1.428,6.849,6.849,0,0,0-2.85-.488,1.714,1.714,0,0,0-.34-.6,2.833,2.833,0,0,1-.46-.736,2.828,2.828,0,0,1-.252.316c-2.509,2.009-4.745.929-7.529-.263-.026-.011-.007-.054.02-.046,7.413,2.376,6.323-10.623,5.58-14.113a23.738,23.738,0,0,0-2.8-7.472,5.8,5.8,0,0,0-.858-1.16,5.3,5.3,0,0,0-1.062-.867c0-.031.012-.065.012-.1a4.838,4.838,0,0,0-4.058-1.036c-1.174.224-1.684-1.51-.5-1.809a7.426,7.426,0,0,1,4.713.263c.993-1.47,2.454-2.62,2.372-4.764-.133-3.466-2.4-6.146-4.765-8.476-1.348-1.331-3.068-3.325-5.015-4.406a7.17,7.17,0,0,0-3.794-.575c-2.481.671-2.925,2.878-4.981,4.081a3.237,3.237,0,0,1-4.948-1.919.507.507,0,0,1-.344-.141c-.547-.616-1.234-1.242-.96-2.159.135-.449.281-.881.418-1.306a2.108,2.108,0,0,1-.291-.644,20.553,20.553,0,0,0-1.915-5.468,10.515,10.515,0,0,0-2.57-1.4c-2.96-1-10.828-2.836-14.377-.379-.71,1.174-1.295,2.732-2.122,3.853-.951,3.063-4.975,3.306-6.486-.113a8.9,8.9,0,0,1-.826-.766,7.588,7.588,0,0,1-.845-2.7c-3.258-4.282-9.676-2.846-14.088.457a3.129,3.129,0,0,0-.593.616c-.182.346-.363.694-.539,1.037a.761.761,0,0,1-.113.4,22.637,22.637,0,0,1-.529,3.346c-.691,2.549-3.99,3.015-6.332,1.869-2.159-1.057-1.369-4.329-3.256-5.3a6.292,6.292,0,0,0-3.3-.431,6.038,6.038,0,0,0-3.881.379,3.955,3.955,0,0,0-1.143.781c-.087.081-.162.174-.243.262a5.178,5.178,0,0,0-.539.729,4.769,4.769,0,0,0-.493.832,5.1,5.1,0,0,0-.349,1.3c-.008.061,0,.12,0,.18a5.53,5.53,0,0,0,.218,1.871,6.741,6.741,0,0,0,.628,1.5,3.979,3.979,0,0,1-.9,3.079c-.975,1.106-2.794.941-3.924.23-.886-.558-1.76-1.641-2.736-2.317a1.086,1.086,0,0,1-.921.3c-5.264-.613-8.236,2.866-9.05,7.309a2.887,2.887,0,0,1,.793,1.055,1.344,1.344,0,0,1,.107.513,12.71,12.71,0,0,1,1.54,2.72,4.261,4.261,0,0,1,.914,3.708,1.923,1.923,0,0,1-1.739,1.813,6.946,6.946,0,0,0-1.276-.274c-1.284.27-2.609-.293-3.828,1.107a11.4,11.4,0,0,0-2.141,11.107.214.214,0,0,1,0,.071,2.317,2.317,0,0,0,1.262.772,3.385,3.385,0,0,0,1.26-.083c.032-.008.049-.028.079-.036a6.667,6.667,0,0,1,.829.184,4.987,4.987,0,0,1,2.147,1.611,3.272,3.272,0,0,1-.384,4.756.648.648,0,0,1-.389.9c-1.478.5-3.077.341-4.236,1.6-1.831,1.994-1.706,4.557-.817,7,.59,1.621,1.32,4.272,2.779,5.432,1.955,1.555,4.409-1.228,6.143-1.634a7.543,7.543,0,0,1,1.28-.195,1.76,1.76,0,0,1,2.836,1.158,5.2,5.2,0,0,1,.424.574,1.587,1.587,0,0,1,.077.223,1.477,1.477,0,0,1,.427,1.933,6.137,6.137,0,0,1-2.036,2.159c-3.228,2.346-.315,5.856,1.761,7.811,1.171,1.1,3.729,3.535,5.6,2.151a20.408,20.408,0,0,0,1.813-1.475,4.748,4.748,0,0,1,1.868-1.243c4.283-.871,3.459,2.416,1.968,5.055a2.72,2.72,0,0,0,.1.767,4.135,4.135,0,0,0,2.76,2,14.052,14.052,0,0,0,4.8.875c1.885-.105,4.134-.837,4.984-2.743.511-1.145.235-1.743.953-2.681a.927.927,0,0,1,1.272-.279,1.093,1.093,0,0,1,1.407.26c2.632,3.03,5.946,1.327,8.773-.352,1.932-1.147,4.278-2.6,2.7-5.1a1.43,1.43,0,0,1,1-2.193c.936-1.164,3.333-1.053,4.7-.6,3.052,1,7.314-2.086,7.853-5.327a2.784,2.784,0,0,0,.019-.846c-1.485-.516-2.477-2.617-2.959-3.895a1.416,1.416,0,0,1,.246-1.347.58.58,0,0,1-.168-.025,5.705,5.705,0,0,1-3.047-3.018.649.649,0,0,1,.795-.795,5.705,5.705,0,0,1,3.032,3.033.6.6,0,0,1,.04.263,1.436,1.436,0,0,1,.659-.156,9.308,9.308,0,0,0,3.654-.326,2.178,2.178,0,0,1-1.76-.292.2.2,0,0,1,.1-.378,15.03,15.03,0,0,0,2.089-.383c.332-.04.435.4.251.606a1.614,1.614,0,0,1-.218.164,3.14,3.14,0,0,0,.573-.35c.793-.714.494-1.973.731-2.943.017-.07.082-.118.122-.18a3.979,3.979,0,0,0-.119-.543,5.294,5.294,0,0,0-1.078-1.883,17.256,17.256,0,0,0-2-.627c-.306-.123-.581-.512-.341-.838a1.909,1.909,0,0,1,.481-.435,3.425,3.425,0,0,1,.615-2.952c1.194-1.6,2.5-3.968.009-5.293-1.728-.918-3.429-.581-5.266-.856-1.19-.177-.9-1.792,0-2.127.095-.035.2-.044.292-.074.021-.078.04-.156.06-.233a7.05,7.05,0,0,0-4.025-2.251c-1.916-.3-3.2.346-4.919.992a1.275,1.275,0,0,1-1.589-1.229c-6.34.931-15.581,7.319-12.7,14.25a6.627,6.627,0,0,0,7.319,4.19,6.5,6.5,0,0,0,5.592-1.676,5.986,5.986,0,0,0,.692-.838c.054-.078.112-.151.162-.234a6.183,6.183,0,0,0,.614-1.279,1.441,1.441,0,0,0,.031-.253,1.4,1.4,0,0,0-1.018-1.629,5.317,5.317,0,0,1-1.717.879,4.674,4.674,0,0,0-.529.349c-.012.021-.023.044-.033.067l-.023-.03a12.745,12.745,0,0,0-1.846,1.533.191.191,0,0,1-.21.036c.012.047.012.086.026.134a.255.255,0,0,1-.423.247,5.033,5.033,0,0,1-.714-5.754c-.805-1.19.118-1.559,1.776-1.329a1.473,1.473,0,0,1,1.064.205c4.279,1.032,11.208,4.854,9.376,8.944-6.56,14.64-21.844,14.753-30.129,2.031-9.029-13.864,9.056-31.455,20.71-35.98,14.067-5.462,29.444,6,34.261,25.077,4.134,16.371-14.647,40.355-28.462,47.362-21.3,10.8-47.9,6.685-69.449-1.32a106.871,106.871,0,0,1-11.8-5.277c-13.127-6.78-25.032-15.668-38.175-22.418-2.761-1.419-5.8-2.281-8.476-3.724a79.315,79.315,0,0,0-9.432-4.765c-7.9-3.006-15.794-5.192-23.687-8.234a146.812,146.812,0,0,0-27.08-7.554,130.066,130.066,0,0,1,47.283,8.275c14.855,5.581,29.16,13.706,42.869,21.542,4.912,2.808,9.75,5.744,14.668,8.541,9.78,5.561,20.005,10.647,31.113,12.885,25.841,5.205,49.775,3.2,66.33-19.578,8.063-11.1,11.657-20.591,6.634-34.125-7.258-19.552-26.37-14.4-35.744-4.838-9.247,6.984-11.99,24.354,1.04,29.743,6.853-1.448,9.777-3.433,10.412-5.746a12.438,12.438,0,0,1-6.122,2.34c-4.273.236-8.406-1.813-9.939-6-1.57-4.293-.775-8.932,2.854-11.9,3.488-2.849,8.448-5.788,13.073-4.8a.972.972,0,0,1,.181-.218c3.581-2.849,9.665-1.065,11.909,2.644a.9.9,0,0,1,.067.657,7.073,7.073,0,0,1,6.505,3.951,4.4,4.4,0,0,1-.12,3.888c-.791,1.224-2.055,2.018-2.457,3.347a5.169,5.169,0,0,1,3.889,1.891c2.02,2.952.658,6.421-.877,9.282a1.222,1.222,0,0,1-1.38.561c-.048-.015-.093-.01-.141-.023a7.971,7.971,0,0,1-3.293.571c1.032.411,2.163.936,2.338,1.893.435,2.385-.425,4.209-2.028,5.984-1.345,1.49-3.525,4.163-5.855,3.859-1.255-.164-4.337-1.938-6.259-2.053,3.638,3.381-.685,7.656-3.833,9.2-2.158,1.061-5.031,2.418-7.5,1.559a7.269,7.269,0,0,1-2.568-1.465s-.2-.33-.472-.7c.32,2.267-2.314,5.123-4.162,5.9-4.261,1.8-8.163.269-11.974-1.822a4.382,4.382,0,0,1-1.922-1.409,4.474,4.474,0,0,1-.839-3.769c-.141.2-.276.411-.43.605a5.936,5.936,0,0,1-3.038,1.546c-2.465.493-5.26-1.352-6.943-2.949-2.271-2.154-4.03-4.438-4.254-7.613a8.523,8.523,0,0,1,.879-5.323q-.5.393-1.009.784a6.057,6.057,0,0,1-2.008,1.186c-1.124.253-2.592.482-3.607-.3-2.966-2.274-4.46-6.226-5.27-9.774-.709-3.1.212-7.138,3.19-8.8a8.9,8.9,0,0,1,2.021-.819c.13-.122.279-.224.4-.357,1.217-1.364-.509-.623-1.31-.865-8.691-2.626-4.225-20.784,5.438-18.786a1.01,1.01,0,0,1,.2-.763l-1.248-1.48a6.955,6.955,0,0,1-1.7-2.837c-1.362-6.183,7.006-11.611,11.953-13.114a3.093,3.093,0,0,1,2.109-.075c1.115.486,1.627,2.094,2.843,2.156-2.079-.106,2.536-8.286,3.129-8.772,3.341-2.738,9.7-3.7,12.6.13.915,1.207,1.739,2.9,3.254,2.893,1.417-4.674,6.024-7.722,10.71-9.1.593-.174,1.2-.328,1.806-.452A12.666,12.666,0,0,1-986.765,526.1Zm-7.623,53.344c-.023.053-.039.106-.06.159C-994.427,579.548-994.411,579.495-994.388,579.442Zm.251-.488c-.057.1-.105.194-.154.292C-994.242,579.148-994.193,579.049-994.136,578.954Zm-29.816-36a2.01,2.01,0,0,0,.654.235.81.81,0,0,0,.1,0,2.89,2.89,0,0,1-.249-.147A4.3,4.3,0,0,1-1023.953,542.959Zm-1.828-.953c.049.011.095.027.145.036a1.706,1.706,0,0,1,.327.125,1.28,1.28,0,0,1-.124-.149A1.429,1.429,0,0,1-1025.78,542.006Zm-1.3-.433c0,.005,0,.011,0,.017l.347.128C-1026.852,541.674-1026.962,541.619-1027.08,541.573Zm2.8-1.056c0,.015,0,.03-.005.045.024,0,.045.009.068.012Zm17.894-6.576c.005.017.01.034.016.052a6.066,6.066,0,0,0,.559.241C-1006,534.141-1006.2,534.044-1006.386,533.942Zm31.3,121.406a.815.815,0,0,1,.5.061c.707-.4,1.406-.824,2.094-1.266,2.66-1.708,5.382-3.795,4.278-7.406-1-3.267-3.381-4.241-6.67-4.22-4.523.029-12.748,1.517-14.115,6.79C-991.2,657.8-979.769,656.673-975.088,655.348Zm-55.569,5.8a13.8,13.8,0,0,0,1.308-5.627,3.378,3.378,0,0,0-.127-.4,9.432,9.432,0,0,0-.691-3.55c-3.4-8.365-13.989-7.885-19.761-2.54-6.257,5.794-3.261,15.459,4.411,17.954A12.755,12.755,0,0,0-1030.656,661.149Zm-15.08,11.679c.162-.37.329-.735.475-1.086a7.041,7.041,0,0,1,1.26-1.908,14.6,14.6,0,0,1-1.866-.511,9.129,9.129,0,0,1-.5,2.915c-.043.15-.076.3-.113.457C-1046.229,672.725-1045.986,672.787-1045.737,672.828Zm-29.521-6.268c-.1.028-.209.057-.315.081.1.066.211.122.31.191a3.021,3.021,0,0,1,.264-.272C-1075.085,666.56-1075.171,666.563-1075.258,666.56Zm-16.884-2.9a18.759,18.759,0,0,1,2.173-.266,7.8,7.8,0,0,1,1.006-1.78,13.934,13.934,0,0,1-1.184-1.576c-.524,1.025-1.146,2.021-1.659,2.992C-1091.918,663.241-1092.031,663.446-1092.142,663.658Zm3.463-.316c.5,0,.994,0,1.492.025-.309-.258-.6-.53-.89-.811C-1088.288,662.812-1088.494,663.07-1088.679,663.343Zm13.613,1.369a14.871,14.871,0,0,0,8.753-4.53,21.281,21.281,0,0,0,4.177-6.894,5.264,5.264,0,0,1,.887-1.581,14.143,14.143,0,0,0-4.848-9.805c-6.967-5.6-12.7-5.494-19.331.419a.46.46,0,0,1-.763-.444c.025-.13.081-.25.112-.378-2.8,4-4.865,8.706-3.49,12.862C-1087.276,661.284-1081.316,662.954-1075.066,664.711Zm-38.427-12.776c-.421.148-.847.278-1.275.405.52.289,1.018.6,1.5.932,1.285-.288,2.62-.458,3.906-.673A20.8,20.8,0,0,1-1113.493,651.935Zm-21.251-5.274a.077.077,0,0,1,.038.142,12.078,12.078,0,0,1-4.844,1.791c-.357.058-.731.135-1.111.2.121.456.225.907.3,1.354.4.059.806.12,1.21.158,1.24.118,2.461.324,3.691.52a.153.153,0,0,1,0,.294c-1.434.23-2.853.441-4.3.578-.148.014-.286.035-.429.054a9.312,9.312,0,0,1-.02,1.28c1.108.137,2.22.4,3.059.514a16.628,16.628,0,0,1,13.328-3.829c1.616-.16,3.276.159,4.948-.022a16.994,16.994,0,0,1-8.3-10.532,12.172,12.172,0,0,1-.15-4.7c-1.049.611-2.292.917-3.384,1.453-1.328.652-2.641,1.347-3.925,2.079a1.778,1.778,0,0,1-2.29-.276,9.29,9.29,0,0,1-7.318-.391.29.29,0,0,1,.022.436,8.835,8.835,0,0,1-1.862,1.109c.261.287.523.611.785.936a8.92,8.92,0,0,0,1.035.127,22.676,22.676,0,0,0,5.486-.508.306.306,0,0,1,.234.557,16.329,16.329,0,0,1-5.15,2.08c.2.32.411.635.605.97.55.016,1.1.034,1.646.025a31.046,31.046,0,0,0,5.433-.573.266.266,0,0,1,.141.513,28.273,28.273,0,0,1-6.272,1.835c.343.71.642,1.433.911,2.161a13.574,13.574,0,0,0,1.462-.009C-1138.054,646.856-1136.452,646.7-1134.744,646.66Zm-9.744-9.4a21.188,21.188,0,0,1-4.939-2.238c-.384.183-.8.364-1.236.535a29.366,29.366,0,0,1,2.6,1.539c.224.152.46.354.695.551A26.757,26.757,0,0,1-1144.488,637.26Zm28.622,13.907a21.635,21.635,0,0,1-2.74-1.307.21.21,0,0,1-.1.261c-.335.151-.674.308-1.014.465a13.662,13.662,0,0,1,2.851.765C-1116.534,651.285-1116.2,651.209-1115.866,651.167Zm-4.681-6.587a14.662,14.662,0,0,0,3.794,2.333,17.651,17.651,0,0,0,6.622,3.131.065.065,0,0,1,.071-.057c11.332,1.478,17.128-8.694,12.174-18.428a18.5,18.5,0,0,0-1.791-2.863,13.313,13.313,0,0,0-13.705-4.526C-1121.827,626.508-1128.956,637.44-1120.547,644.58Zm-6.56-11.253a12.985,12.985,0,0,1,.621-1.833,37.416,37.416,0,0,1-3.81,1.081c-.179.247-.379.478-.581.706A8.9,8.9,0,0,1-1127.107,633.327Zm-30.668-13.468a15,15,0,0,0,5.861,9.541,3.079,3.079,0,0,0,.736,1.156,16.064,16.064,0,0,0,6.729,4.224,11.164,11.164,0,0,0,1.646.322c.069.008.135.021.2.028a10.07,10.07,0,0,0,1.829.028,3.193,3.193,0,0,0,1.77-.727,7.965,7.965,0,0,0,.812-.383,7.638,7.638,0,0,0,2.146-1.462,6.655,6.655,0,0,0,.414-.556c.016-.012.032-.021.049-.032a8.675,8.675,0,0,0,1.774-5.584c.811-1.9.094-4.122.018-6.154a31.574,31.574,0,0,0-2.8-4.952c-.494-.725-1.017-1.54-1.558-2.363a17.349,17.349,0,0,0-7.19-3.777C-1152.694,607.3-1158.818,612.22-1157.775,619.859Zm-7.314,10.853a.114.114,0,0,1,.03.224c-1.988.658-3.954,1.418-5.971,1.98-.764.213-1.466.476-2.158.634a12.017,12.017,0,0,1-.613,1.049,5.992,5.992,0,0,1,1.131-.052l.206.011c2.68-2.433,6.472-3.044,10.41-2.636a40.217,40.217,0,0,0,5.393-2.154.038.038,0,0,1,.038.065c-1,.727-2.222,1.572-3.539,2.36.613.112,1.222.243,1.832.4a14.247,14.247,0,0,0,1.713-.182c.944-.19,1.89-.429,2.831-.677a21.2,21.2,0,0,1-4.944-6.529,15.906,15.906,0,0,1-.6-10.775,11.757,11.757,0,0,1-2.32.355,11.12,11.12,0,0,1-2.12.065,12.017,12.017,0,0,1-1.2.138,6.821,6.821,0,0,1-6.27.248.41.41,0,0,1-.258.438,13.749,13.749,0,0,1-3.309.72c.115.158.224.317.333.478.836-.075,1.7-.075,2.478-.157a22.877,22.877,0,0,1,5.818-.064c.508.071.354.732,0,.88a25.813,25.813,0,0,1-6.331,1.5c-.231.035-.462.079-.691.125.164.356.328.711.462,1.079.752-.037,1.516-.028,2.263-.1a36.537,36.537,0,0,1,5.735-.508.383.383,0,0,1,.192.708,15.33,15.33,0,0,1-5.674,1.676c-.615.1-1.269.225-1.926.324.108.508.212,1.015.288,1.525.653-.044,1.313-.061,1.956-.125a34.836,34.836,0,0,1,4.778-.213c.173.006.28.273.1.354a22.389,22.389,0,0,1-4.659,1.445c-.646.133-1.306.305-1.968.437.03.49.026.977.018,1.463q.633-.01,1.288.037c1.743.122,3.484.226,5.229.3a.191.191,0,0,1,.05.374c-1.659.469-3.312,1.093-4.987,1.489-.637.15-1.24.32-1.835.416-.056.305-.133.6-.21.9.257,0,.516-.006.776-.019C-1169.253,630.613-1167.165,630.714-1165.089,630.712Zm13.333,4.286a12.049,12.049,0,0,0,1.864-.251,27.026,27.026,0,0,1-2.829-2.079,12,12,0,0,1-1.91,1.087C-1153.633,634.135-1152.67,634.552-1151.756,635Zm-23.4-20.908c.081,0,.151.006.229.006a18.43,18.43,0,0,1-2.619-1.347,5.073,5.073,0,0,1-.546.152q.728.616,1.4,1.3A12.64,12.64,0,0,1-1175.156,614.09Zm17.881-3.841a4.362,4.362,0,0,1-.7.185c-.22.04-.436.066-.654.1a11.954,11.954,0,0,1-1.081,2.078c.339.009.674.037,1.006.077A12.66,12.66,0,0,1-1157.275,610.248Zm-18.8-17.371a4.48,4.48,0,0,0-1.02.191,9.325,9.325,0,0,0-1.559.571,4.288,4.288,0,0,1-.411.21,8.791,8.791,0,0,0-1.421.894c-2.228,1.764-2.3,4.919-1.9,7.435.423,2.69,2.354,4.992,4.314,6.751,2.225,2,4.954,3.755,8.012,3.951.164.01.3-.02.463-.02l.4.171c2.013-.029,4.041-.149,5.492-1.865a7.785,7.785,0,0,0,1.588-6.48c-.421-3.232-1.861-5.542-3.729-8.072a16.222,16.222,0,0,0-1.565-1.3A12.088,12.088,0,0,0-1176.077,592.877Zm-3.433,18.915c.131-.047.266-.106.392-.138a18.4,18.4,0,0,1-1.979-1.773q-.38.215-.779.4c.018.01.042.019.06.029A23.442,23.442,0,0,1-1179.511,611.792Zm-16.109-1.745c.006-.007.007-.017.013-.024a4.8,4.8,0,0,1,.406-.326c-.9.047-1.915.18-2.9.2a6.723,6.723,0,0,1-.753,1.333,14.95,14.95,0,0,1,1.66.321A9.426,9.426,0,0,1-1195.62,610.047Zm-1.711-3.3a12.369,12.369,0,0,1-.294,1.749c.856.047,1.721.168,2.5.2a.466.466,0,0,1,.449.576c.109-.076.2-.181.31-.249a.415.415,0,0,1,.133-.449c1.54-1.337,3.8-1.488,5.764-1.753a22.96,22.96,0,0,1,4.9-.118,14.243,14.243,0,0,1-1.771-4.727,12.8,12.8,0,0,1-.175-3.028c-1.487.334-3.518,1.113-5.065.725a6.4,6.4,0,0,1-5.049-1.065,20.383,20.383,0,0,1-2.6.575c.083.258.16.515.233.775.937-.041,1.91.262,2.861.257,1.213-.007,2.41.154,3.624.139a.191.191,0,0,1,.1.354c-1.573.789-4.158,1.646-6.135,1.165.062.344.111.686.154,1.028,1.647-.046,3.466.477,5.061.268.185-.024.263.28.1.354a10.065,10.065,0,0,1-5.022,1.18q.015.531,0,1.046a36.144,36.144,0,0,0,4.16.368.191.191,0,0,1,.051.374A11.264,11.264,0,0,1-1197.331,606.75Zm9.418,1.53a19.636,19.636,0,0,1,3.233.8,3.694,3.694,0,0,1,2.2-.8q-.411-.543-.773-1.115C-1184.806,607.545-1186.359,607.9-1187.913,608.28Zm4.366-14.972a8.867,8.867,0,0,1-1.5.462c-.051.153-.089.315-.149.463-.125.314-.249.588-.372.851.317.07.621.147.911.229A10.421,10.421,0,0,1-1183.547,593.308Zm-9.231,4.271c2.513-.19,3.569-1.579,3.663-4.05.13-3.418-.827-7.3-3.634-9.549-3.658-2.935-8.47-.964-7.94,4,.312,2.921,2.163,5.365,3.418,7.979A6.181,6.181,0,0,0-1192.777,597.579Zm5.35.273c.709.182,1.391.384,1.982.512a11.39,11.39,0,0,1,.384-1.944,11.88,11.88,0,0,1-1.527.3,4.415,4.415,0,0,1-.485.48A3.959,3.959,0,0,1-1187.427,597.852Zm-15.532,14.132a2.961,2.961,0,0,1,1.039-.587c2.8-2.915,2.074-10.029.585-12.729-1.478-2.682-3.432-4.03-5.507-5.68-1.091.76-2.413,1.044-3.329,2.126A7.175,7.175,0,0,0-1212,601.4C-1210.962,605.38-1207.262,610.968-1202.959,611.983Zm19.284,24.722a10.243,10.243,0,0,0,4.977-1.247,4.746,4.746,0,0,0,2.418-3.009c.028-.1.03-.2.052-.3a10.6,10.6,0,0,0,.968-5.251c-.327-3.478-1.533-7.245-4.075-9.778-2.88-2.871-6.72-4.99-10.919-4.863-.767.023-1.391.061-1.986.074-1.7,1.522-3.464,2.893-3.9,5.451a13.111,13.111,0,0,0,1.7,9.316C-1192.27,630.645-1188.153,635.2-1183.675,636.706Zm33.358,23.878h0a9.639,9.639,0,0,0,4.432-2.533c.081-.087.148-.185.225-.276a.522.522,0,0,1,.037-.474l.31-.5a.24.24,0,0,1,.362-.042c.092-.162.171-.335.251-.508a11.278,11.278,0,0,0,.611-3.812,4.914,4.914,0,0,0-.5-1.65c-.01-.234.027-.46-.005-.7a12.3,12.3,0,0,0-1.55-4.466q-.236-.386-.5-.757c-.084-.127-.176-.248-.263-.372-.278-.368-.57-.728-.888-1.073a24.944,24.944,0,0,0-9.346-5.851c-3.075-1.026-6.22-1.958-9.413-.627-2.362.985-4.225,2.554-6.388,3.754a8.335,8.335,0,0,0-.622,1.463c-2.224,7.626,3.55,14.777,10.256,17.636A21.42,21.42,0,0,0-1150.317,660.583Zm9.639-5.729a5.174,5.174,0,0,1-.634,1.133,7.494,7.494,0,0,1,1.876.523,10.739,10.739,0,0,1,1.847-2.513A31.947,31.947,0,0,1-1140.677,654.854Zm.208,2.363a1.463,1.463,0,0,1,.47.651c.078-.224.147-.452.239-.668C-1140,657.207-1140.235,657.227-1140.47,657.218Zm12.607,21a14.827,14.827,0,0,0,10.968,1.97,10.938,10.938,0,0,0,8-7.4c1.815-6.644-2.1-15.009-8.01-18.355a13.7,13.7,0,0,0-5.732-1.308,16.243,16.243,0,0,0-6.1.287c-.861.267-7.457,1.638-7.16,3.122a6.977,6.977,0,0,0-.854,1.138c-.073.12-.153.236-.219.362s-.109.245-.164.368c-.081.182-.163.361-.229.554-.034.1-.059.207-.089.31a7.114,7.114,0,0,0-.177.72c-.016.085-.025.175-.039.262a8.471,8.471,0,0,0-.088.875c0,.074,0,.151-.005.226a10.135,10.135,0,0,0,.03,1.019,12.916,12.916,0,0,0,.319,2.045,2.926,2.926,0,0,0,.225.481c0,.039-.006.078,0,.118.579,4.593,3.625,8.933,7.327,11.822A20.46,20.46,0,0,0-1127.863,678.214Zm25.354-6.584c.022.661.054,1.325.094,1.988.013.008.027.014.04.023s.018.017.029.024a21.522,21.522,0,0,1,1.783-3.569c-.8.123-1.625.108-2.426.294-.494.115-.972.271-1.451.413a9.851,9.851,0,0,1-.513,1.872c.021-.01.044-.008.065-.017A4.746,4.746,0,0,1-1102.509,671.63Zm30.132,16.482c3.142-4.88.792-11.646-2.145-16.118-2.187-3.33-5.848-5.2-9.682-6.073-4.143-.945-8.847-.3-11.992,2.553a15.527,15.527,0,0,0-4.126,6.967c-.465,1.58-.554,5.6.2,7.039.053.1.093.2.15.3,2.367,4.222,4.942,8.075,9.707,9.744a18.571,18.571,0,0,0,9.783.875,13.332,13.332,0,0,0,6.131-3A11.047,11.047,0,0,0-1072.377,688.112Zm37.125-.034a9.448,9.448,0,0,0,.361-1.451c.023-.137.039-.273.055-.41a8.269,8.269,0,0,0,.056-1.3c0-.1,0-.206-.007-.309a7.479,7.479,0,0,0-.3-1.616c0-.012-.01-.023-.013-.035a7.355,7.355,0,0,0-.664-1.483c-.046-.081-.1-.16-.146-.239a7.985,7.985,0,0,0-1.041-1.328,10.4,10.4,0,0,0-2.992-2.122c-7.605-3.662-17.02-1.6-21.977,5.189a18.147,18.147,0,0,0-1.612,2.669c1.918,6.709,6.73,11.67,14.523,10.961a24.263,24.263,0,0,0,10.253-3.436l.018-.015c.1-.094.208-.174.3-.271a12.633,12.633,0,0,0,1.213-1.306c.094-.116.181-.235.27-.354a11.938,11.938,0,0,0,.716-1.067c.1-.166.2-.331.29-.5a10.65,10.65,0,0,0,.479-1.059C-1035.4,688.423-1035.31,688.254-1035.252,688.079Zm77.428-44.689a11.407,11.407,0,0,1,.857-1.206,7.885,7.885,0,0,1,1.724-1.421c-.551.327-1.118.63-1.675.907-.171.085-.354.174-.541.263a1.315,1.315,0,0,1-.972.486c-.065.005-.128,0-.193,0-.091.033-.181.065-.272.1A5.527,5.527,0,0,1-957.824,643.39Zm16.229,3.245c-.807.92-1.573,1.761-2.176,2.473-.03.036-.065.072-.1.108A12.5,12.5,0,0,0-941.595,646.635Zm.917-11.014a18.968,18.968,0,0,0-2.715.44,19.583,19.583,0,0,0-5.439,2.384,19.586,19.586,0,0,0-7.539,8.56,7.152,7.152,0,0,0,.6,3.43c5.429,3.015,11.753-.317,14.789-5.124a15.637,15.637,0,0,0,1.532-2.329c.313-2.679-.546-6.111-4.525-4.482a17.975,17.975,0,0,0-5.868,4.015,18.334,18.334,0,0,0-2.392,2.778q-1.625,1.887.294,4.419c.026.012.007.055-.02.046-3.118-1.009-1.061-4.633.232-6.339,2.273-3,5.315-5.91,9.139-6.624a3.719,3.719,0,0,1,4.373,2.678c.02-.144.064-.293.075-.435.005-.076.006-.151.009-.226a5.8,5.8,0,0,0-.055-.961,5.079,5.079,0,0,0-1.018-1.142C-939.854,636.184-940.284,635.9-940.678,635.621Zm-13.136,4.132c.334-.275.652-.522.976-.765-.174.1-.351.189-.526.287a5.762,5.762,0,0,1-.782.723C-954.036,639.916-953.916,639.837-953.814,639.753Zm8.762-7.458a21.366,21.366,0,0,1-3.164,3.427,24.538,24.538,0,0,1,2.782-1.4c-.044-.006-.088,0-.131,0a.127.127,0,0,1-.088-.156,3.212,3.212,0,0,1,.952-1.531A3.593,3.593,0,0,1-945.052,632.3Zm-.686-8.827c-.083-.058-.2-.079-.263-.153l-.379-.433a17.52,17.52,0,0,0-14.809,13.127,5.522,5.522,0,0,0-1.24,2.214,1.976,1.976,0,0,0,.28,1.439c.19.138.384.273.558.425a5.041,5.041,0,0,0,1.189.351,6.39,6.39,0,0,0,2.315-.768,17.7,17.7,0,0,1,4.318-2.015C-948.977,634.045-944.865,629.866-945.738,623.468Zm4.512.315a3.48,3.48,0,0,1-1.143-.8,11.116,11.116,0,0,1,.1,2.057,3.616,3.616,0,0,0-.327,2.3c-.076.3-.214.571-.312.86a2.319,2.319,0,0,1,.439-.337,2.709,2.709,0,0,0,.471.8.334.334,0,0,1,.1,0c.573.195,1.133.434,1.691.681a10.338,10.338,0,0,1-.621-2.48.273.273,0,0,1-.153-.052,7,7,0,0,1-1.217-1.217.254.254,0,0,1,.359-.359,7.22,7.22,0,0,1,.954.92c-.011-.195-.044-.385-.046-.581a15.055,15.055,0,0,1,.055-1.981A2.715,2.715,0,0,0-941.226,623.783ZM-930.5,614.2a7.8,7.8,0,0,1-1.648,3.243c-.075.086-.184.051-.262-.019a15.975,15.975,0,0,1-3.661,4.707,1.5,1.5,0,0,0-.184.115,8.183,8.183,0,0,1-.759.614,7.906,7.906,0,0,1-1.3.752c-.135-.038-.25-.057-.4-.1l-.025-.005a9.938,9.938,0,0,0-1.009,2.236,7.063,7.063,0,0,0,.408,3.987,19.218,19.218,0,0,0,2.235.87l-.482-.312c.18.014.358,0,.537,0a1.406,1.406,0,0,0,1.124.408c6.406-.347,12.687-11.46,6.826-16.156A1.627,1.627,0,0,0-930.5,614.2Zm-2.647-5.194c1.183-3.064,5.935-11.926,2.443-15.41a1.214,1.214,0,0,1-.229.073c-3.061.41-5.263,2.881-6.94,5.727.012.019.028.029.039.048a.54.54,0,0,1-.318.782c-.066.022-.137.006-.2.022-.355.654-.684,1.318-.992,1.975a.621.621,0,0,1-.32.7c-.323.714-.623,1.409-.9,2.06a2.593,2.593,0,0,1,.471.356.435.435,0,0,1-.19.72,2.506,2.506,0,0,1-.79.109q-.353.819-.693,1.637c.011.011.025.014.036.024a.436.436,0,0,1-.19.72c-.052.017-.1.005-.153.018q-.4,1-.76,2.005a.533.533,0,0,1-.261.849c-.012,0-.023,0-.034,0a25.937,25.937,0,0,0-1.135,4.874.6.6,0,0,1-.075.576,18.471,18.471,0,0,0,0,3.5c.2.167.428.3.646.444v0c.16.106.306.239.474.328a1.649,1.649,0,0,0,.549.164c.008,0,.017.006.025.007a2.343,2.343,0,0,0,2.707.319,1.976,1.976,0,0,1,.394-.242C-936.276,619.169-933.726,610.5-933.15,609.006Zm10.844-30.33a6.761,6.761,0,0,1-3.466.27c0,.794-.025,1.589-.1,2.36.053-.016.106-.032.158-.049a7.209,7.209,0,0,0,1.067-.455,6.543,6.543,0,0,0,.643-.348,6.106,6.106,0,0,0,1.2-.55c.075-.265.15-.53.226-.794C-922.47,578.974-922.4,578.82-922.306,578.676Zm1.059-2.889a12.594,12.594,0,0,1-4.6.692c.026.417.043.863.059,1.315a7.557,7.557,0,0,1,3.814.343,7.444,7.444,0,0,0,.481-1.177A8.763,8.763,0,0,0-921.247,575.787Zm-3.308-9.919a22.909,22.909,0,0,1-2.886,1.308,27.268,27.268,0,0,1,1.233,5.155,33.157,33.157,0,0,0,3.622-.231.2.2,0,0,1,.108.391,6.107,6.107,0,0,1-3.637.593c.032.292.065.588.085.867.028.4.071.945.115,1.543a13.187,13.187,0,0,1,4.747-.08c.022-.181.029-.367.041-.55a11.3,11.3,0,0,0,0-1.529c-.008-.11-.005-.219-.016-.329a13.272,13.272,0,0,0-.336-1.874c-.037-.148-.078-.294-.119-.44a14.468,14.468,0,0,0-.657-1.879,13.374,13.374,0,0,0-1.1-2A9.591,9.591,0,0,0-924.555,565.868Zm-3.569-1.651c-.153.037-.295.084-.454.116-.047.01-.068-.034-.1-.054a20.691,20.691,0,0,1,.89,1.978,17.512,17.512,0,0,1,2.723-.7A15.1,15.1,0,0,0-928.124,564.217Zm-.725-.233c.029.053.061.1.089.157,0-.045-.007-.092.042-.123C-928.761,564.007-928.806,564-928.849,563.984Zm-87.924,70.163c1.494-.654.181-3.062-1.305-2.233-2.635,1.47-5.267,2.945-7.912,4.4-2.594,1.425-5.653,2.612-7.8,4.67-.12.115.008.276.148.254,2.575-.408,4.963-1.843,7.335-2.9Q-1021.547,636.221-1016.773,634.147Zm-9.375-2.757c-4.044,2.53-7.947,5.254-12.019,7.746a.114.114,0,0,0,.115.2c4.285-2.137,8.677-4.01,12.978-6.1C-1023.848,632.633-1024.972,630.654-1026.148,631.39Zm-4.276.657a.765.765,0,0,0-.656-1.145c-2,.106-3.516,1.622-5.13,2.721-2.245,1.528-4.521,2.994-6.814,4.449a.038.038,0,0,0,.038.066c2.43-1.1,4.861-2.187,7.325-3.21C-1033.812,634.161-1031.641,633.7-1030.424,632.047Zm-5.595.419a1.07,1.07,0,0,0-.821-1.946,18.192,18.192,0,0,0-4.745,2.457c-1.909,1.2-3.824,2.369-5.77,3.5-.109.064-.036.254.088.208q2.756-1,5.536-1.913A21.343,21.343,0,0,0-1036.019,632.467Zm-5.936-2.825c-3.8,1.881-7.6,3.764-11.431,5.592-.118.056-.034.245.088.209,4.083-1.232,8.181-2.4,12.28-3.577C-1039.341,631.385-1040.344,628.845-1041.955,629.642Zm-17.418,4.387c-.08.036-.022.162.058.139,4.521-1.272,9.441-2.149,13.769-3.964,1.179-.495.759-2.378-.546-1.98C-1050.64,629.608-1055.028,632.1-1059.373,634.029Zm-5.907-1.579c-.221.054-.1.393.125.3,4.589-1.966,9.963-2.785,14.791-4.027,1.312-.337.653-2.476-.546-1.98C-1055.561,628.666-1060.39,631.257-1065.28,632.45Zm-7.586-1.129c-.219.091-.142.435.1.367,6.068-1.69,12.271-3.143,18.226-5.194,1.475-.508.841-2.859-.647-2.347C-1061.182,626.212-1067,628.9-1072.866,631.321Zm-9.15-1.874c-.166.036-.131.317.04.3,7.3-.794,15.327-2.521,21.58-6.552a1.142,1.142,0,0,0-1.151-1.97C-1068.316,624.586-1074.534,627.847-1082.016,629.447Zm-6.867-1.265c-.08.035-.022.164.059.139,7.486-2.319,15.067-4.449,22.456-7.063,1.526-.54.833-3-.667-2.42C-1074.415,621.693-1081.622,625.038-1088.883,628.182Zm-4.353-2.221c-.12.053-.034.246.088.209,7.081-2.189,15.4-3.742,21.875-7.382a.879.879,0,0,0-.674-1.6C-1079.144,618.676-1086.526,623-1093.236,625.96Zm-1.2-3.023c-.119.052-.034.248.088.209,3.734-1.222,7.459-2.471,11.206-3.649,2.933-.923,6.227-1.327,8.61-3.334a.727.727,0,0,0-.511-1.233c-3.089.088-5.874,2-8.643,3.278C-1087.237,619.85-1090.851,621.367-1094.436,622.938Zm-1.649-3.392c-.133.053-.083.264.061.22l8.732-2.674c2.928-.9,5.943-1.232,8.823-2.344,1.433-.553.873-2.833-.647-2.347C-1084.914,614.252-1090.419,617.283-1096.085,619.546Zm-3.363-2.39c-.118.055-.035.248.088.208,5.522-1.769,11.03-3.58,16.542-5.38a1.174,1.174,0,1,0-.908-2.155C-1088.97,612.266-1094.219,614.69-1099.448,617.156Zm-3.791-3.228c-.2.092-.057.41.147.348,5.676-1.743,11.534-3.272,17.059-5.448,1.436-.566.835-2.9-.647-2.347C-1092.324,608.587-1097.775,611.394-1103.239,613.928Zm-2.688-2.128c-.113.059-.032.258.088.209,5.1-2.112,10.357-3.781,15.445-5.905a1.326,1.326,0,1,0-1.026-2.433C-1096.336,606.234-1101.011,609.22-1105.926,611.8Zm-4.807-3.089a.191.191,0,0,0,.147.347c5.17-1.827,10.722-3.3,15.638-5.738a1.069,1.069,0,0,0-.821-1.946C-1100.932,603.243-1105.836,606.235-1110.733,608.711Zm-4.909-2.293c-.119.054-.034.248.088.208l7.943-2.589c2.618-.853,5.772-1.369,7.995-3.023.453-.337.387-1.276-.326-1.205-2.505.249-4.748,1.665-7.026,2.693Zm4.689-5.767c-2.879,1.589-6.011,2.823-8.991,4.208-.117.055-.034.252.088.209l8.2-2.9c2.843-1.007,5.79-1.53,8.543-2.8,1.212-.558.344-2.6-.908-2.155A48.194,48.194,0,0,0-1110.953,600.651Zm-13.4,1.722c-.176.072-.113.349.081.293,6.065-1.77,13.206-2.894,18.793-5.852.886-.47.242-1.7-.645-1.529C-1112.269,596.435-1118.554,600.007-1124.348,602.373Zm113.139,31.267c.31-.393.043-1.179-.555-.954-2.061.777-3.769,2.554-5.448,3.948l-6.322,5.245c-.067.056.02.166.092.12l6.158-3.965C-1015.263,636.733-1012.711,635.545-1011.209,633.639Zm-.708,1.684c-1.484,1.687-2.748,3.624-4.1,5.419-.111.147.116.289.239.184,1.7-1.451,3.421-2.886,5.1-4.36,1.586-1.388,3.762-3.176,4.724-5.054a.881.881,0,0,0-1.2-1.2C-1009.046,631.435-1010.469,633.676-1011.917,635.323Zm9.588-4.661a.614.614,0,0,0-.894-.687c-1.717,1.022-2.61,3.226-3.635,4.889q-1.942,3.15-3.882,6.3c-.156.253.227.562.418.322q2.3-2.878,4.591-5.757C-1004.541,634.24-1002.7,632.567-1002.329,630.663Zm3.8-1.081a.575.575,0,0,0-.953-.555c-1.633,1.286-2.323,3.672-3.208,5.509q-1.551,3.216-3.139,6.413a.114.114,0,0,0,.2.115q1.962-2.978,3.956-5.934C-1000.536,633.439-998.819,631.639-998.531,629.582Zm-1.379,10.2a.115.115,0,0,0,.209.088c1.066-2.064,2.223-4.1,3.156-6.232.73-1.665,1.919-3.475,1.79-5.323a.538.538,0,0,0-.909-.377c-1.364,1.275-1.694,3.373-2.313,5.1C-998.764,635.23-999.285,637.54-999.91,639.785Zm5.723-8.621c-.472,2.27-.809,4.559-1.276,6.828-.041.2.255.354.347.147.924-2.069,1.965-4.077,2.886-6.149.675-1.518,1.668-2.981.913-4.587a.765.765,0,0,0-1.041-.273C-993.824,627.938-993.868,629.63-994.187,631.164Zm3.676,4.7c-.065.319.4.564.556.235.838-1.816,1.753-3.615,2.512-5.464.618-1.506,1.638-3.175.951-4.747a.61.61,0,0,0-.833-.218c-1.334.76-1.411,2.343-1.833,3.732C-989.791,631.484-990.075,633.73-990.511,635.862Zm4.773-3.264a.229.229,0,0,0,.448.061c.325-1.581,1.028-3.192,1.468-4.766.33-1.181.757-2.756-.008-3.8a.779.779,0,0,0-1.195-.154c-1.075.882-.86,2.369-.953,3.661C-986.1,629.273-985.659,630.95-985.739,632.6Zm5.309-2.149c.059.223.349.15.373-.051a37.98,37.98,0,0,0,.447-4.992c-.014-1.244.243-2.65-.791-3.523a.578.578,0,0,0-.807,0c-.926,1.026-.523,2.241-.362,3.523A38.4,38.4,0,0,0-980.43,630.45Zm2.631-6.042a35.557,35.557,0,0,0,.936,4.48c.111.489.782.333.822-.111a38.777,38.777,0,0,0,.322-4.992c-.049-1.3.223-2.664-.764-3.631a.736.736,0,0,0-1.135.146C-978.483,621.422-977.923,623.083-977.8,624.408Zm4.669.69a.382.382,0,0,0,.747-.1l-.2-4.13c-.054-1.082-.008-2.039-.827-2.79a.615.615,0,0,0-.956.123c-.545,1-.2,1.821.085,2.9C-973.924,622.436-973.515,623.765-973.13,625.1Zm4.549-3.372c-.206-1.932-.14-4.856-1.573-6.319a.537.537,0,0,0-.89.235c-.478,2,1.074,4.467,1.9,6.238A.306.306,0,0,0-968.581,621.726Zm3.228-3.058a.23.23,0,0,0,.381-.222,19.018,19.018,0,0,0-1.665-3.546c-.6-1.043-1-2.2-2.091-2.769a.5.5,0,0,0-.744.427c.057,1.245.894,2.072,1.6,3.066A19.081,19.081,0,0,0-965.353,618.668Zm2.738-4.1c-.662-1.855-1.262-4.931-3.156-5.9a.616.616,0,0,0-.916.526c-.1,2.13,2.276,4.17,3.563,5.667A.306.306,0,0,0-962.615,614.57Zm1.158-3.53c.139.117.4.055.39-.161-.1-1.473-.684-6.692-3.13-6.019C-966.916,605.608-962.207,610.409-961.457,611.041Zm3.726-3.063c-.539-1.147-1.089-2.289-1.593-3.452a4.674,4.674,0,0,0-1.623-2.362.688.688,0,0,0-1.03.591c.251,2.075,2.433,3.957,3.654,5.569A.343.343,0,0,0-957.731,607.977Zm1.878-1.885a.23.23,0,0,0,.389-.162,30.642,30.642,0,0,0-.769-4.437c-.359-1.307-.55-2.682-2.06-2.968a1.056,1.056,0,0,0-1.159.472c-.816,1.342.018,2.35.779,3.525A30.6,30.6,0,0,0-955.854,606.092Zm3.84-5.564-2.293-3.794c-.681-1.128-1.165-2.335-2.515-2.689a.613.613,0,0,0-.77.586c.059,1.212.761,1.791,1.618,2.594l3.721,3.487A.153.153,0,0,0-952.014,600.529Zm2.053-4.231c.128.1.4.014.318-.185a24.732,24.732,0,0,0-1.965-3.931c-.793-1.255-1.463-2.665-2.933-3.175a.725.725,0,0,0-.915.7c.086,1.368.981,2.248,1.868,3.227A27.971,27.971,0,0,0-949.961,596.3Zm-68.259-2.232a.267.267,0,0,0-.071.523c2.805.686,5.929.827,8.14-1.39a1.294,1.294,0,0,0,.2-1.516,1,1,0,0,0-.449-.449,1.249,1.249,0,0,0-1.263,0C-1013.76,592.475-1015.652,594.044-1018.219,594.066Zm2.817,4.154a.114.114,0,0,0,.088.208l4.809-1.22c1.367-.347,2.979-.64,3.824-1.827a.649.649,0,0,0-.386-.95c-1.308-.248-2.328.492-3.5,1.041C-1012.23,596.247-1013.809,597.314-1015.4,598.22Zm5.352,2.588a.191.191,0,0,0,.185.318c1.384-.557,2.767-1.108,4.128-1.721,1.232-.555,2.39-.8,2.927-2.091.178-.428-.257-.775-.623-.818-1.28-.151-2.119.825-3.1,1.55C-1007.731,598.936-1008.888,599.872-1010.05,600.808Zm12.482-4.678a.688.688,0,0,0-.842-.478c-1.2.469-1.539,1.868-2.345,2.824a10.444,10.444,0,0,1-3.936,3.2.114.114,0,0,0,.061.22,10.512,10.512,0,0,0,4.766-1.849C-998.828,599.207-997.11,597.577-997.568,596.13Zm2.022,3.7c.813-1.116,2.125-3.069,1.125-4.394a.7.7,0,0,0-1.075-.138c-.931.73-.892,2.168-1.371,3.2a11.8,11.8,0,0,1-2.5,3.235.306.306,0,0,0,.3.509A6.081,6.081,0,0,0-995.546,599.832Zm1.453.683c-.143.194.092.452.3.391a5.218,5.218,0,0,0,3.461-3,7.271,7.271,0,0,0,.588-1.5c-.023.339-.052.673-.073,1.02a.306.306,0,0,0,.567.154,20.734,20.734,0,0,0,1.552-3.491c.325-1.071.775-1.833.246-2.858a.5.5,0,0,0-.677-.178c-.973.606-.972,1.5-1.239,2.576a12.627,12.627,0,0,0-.251,1.514,2.338,2.338,0,0,0-.557-1.4.617.617,0,0,0-.956.123c-.691.9-.622,2.228-.984,3.29A13.923,13.923,0,0,1-994.093,600.516Zm8.018-5.175a.345.345,0,0,0,.626.082c.779-1.486,1.753-3.811.836-5.386a.69.69,0,0,0-1.075-.139C-986.948,591.258-986.517,593.69-986.074,595.341Zm45.153,23.749a1.429,1.429,0,0,0-.674-.748,5.009,5.009,0,0,1-.85-.592,2.092,2.092,0,0,1-.014-.78,47.984,47.984,0,0,1,9.69-21.624,1.177,1.177,0,0,1,2,.827,31,31,0,0,1-8.088,19.957c-.053.435-.123.863-.163,1.3A1.692,1.692,0,0,1-940.921,619.09Zm2.266-4.57a34.547,34.547,0,0,0,5.232-14.065A38.561,38.561,0,0,0-938.654,614.52Zm-165.74,17.863a6.279,6.279,0,0,1-1.772,10.008,5.747,5.747,0,0,1-5.617-.427c-.191-.133-.388-.274-.581-.42a3.164,3.164,0,0,1-2.865-1.73,5.5,5.5,0,0,1,.373-5.613C-1112.5,631.083-1107.552,629.023-1104.395,632.383Zm-8.126,3.837c-.757,1.666.354,2.88,1.368,4.064a4.291,4.291,0,0,0,4.751-1.025c1.282-1.583,1.274-4.169-.767-5.179A4.253,4.253,0,0,0-1112.521,636.22Zm42.574,13.708a4.408,4.408,0,0,1,1.1,4.155c-.216,1.146-1.021,3.225-2.3,3.578a5.854,5.854,0,0,1-4.183-.652.821.821,0,0,1-.3.129c-1.284.164-2.159-1.327-2.362-2.435a5.22,5.22,0,0,1,.795-4.058A5.07,5.07,0,0,1-1069.947,649.928Zm-5.576,3.167a5.882,5.882,0,0,0,.5,2.6,2.374,2.374,0,0,0,.792.111c.7-.023,1.982.075,2.3-.564.534-1.09,1.013-2.959-.376-3.565A2.247,2.247,0,0,0-1075.522,653.1Zm-38.166-28.246c8.406-1.291,13.886,5.19,15.163,12.97.678,4.133-1.177,9.207-4.915,10.542-2.25,1.334-5.111.218-7.509-.516-3.611-1.106-7.907-2.621-9.895-6.141C-1124.062,636.007-1120.874,625.952-1113.689,624.849Zm-.818,1.679c-6,2.5-9.1,11.9-3.9,16.689,2.138,1.967,7.975,5.478,12.212,5.434a7.6,7.6,0,0,1-1.227-.253.025.025,0,0,1,.013-.049,6.608,6.608,0,0,0,3.731-.308,3.761,3.761,0,0,0,.571-.376c.048-.041.092,0,.143.008,4.14-2.559,3.639-10.687,1.521-14.638C-1103.821,628.6-1109.119,624.285-1114.507,626.528Zm21.382,43.523c6.354-3.108,15.842-2.688,19.313,4.407,1.937,3.957.6,11.5-3.834,13.317-3.191,4.305-13.247,2.266-16.611-.4C-1100.057,682.775-1100.593,673.7-1093.124,670.051Zm-.89,3.493c-5.836,6.632-.135,14.192,7.64,14.542,3.588.162,5.966-1.31,9.151-2.456,3.013-3.924,3.365-10.785-1.409-13.4C-1083.037,669.81-1090.346,669.375-1094.014,673.543Zm7.25,2.729a3.675,3.675,0,0,1,4.975,2.7c.3,1.927-.536,4.251-2.813,4.363a3.673,3.673,0,0,1-3.387-1.722.585.585,0,0,1-.489.082C-1091.2,680.74-1088.292,676.931-1086.764,676.273Zm.028,2.592c-.539.688-.439,1.606-.845,2.293,1.6,1.765,5.267.639,3.691-2.033A1.633,1.633,0,0,0-1086.736,678.865Zm6.842-39.142c5.523-2.232,16.587,1.912,16.321,9.009-.195,5.2-2.06,9.691-6.053,11.7-5.276,4.47-13.828.706-17.392-4.494C-1091.258,649.746-1086.22,642.279-1079.893,639.723Zm-.277,2.793c-4.783,3.339-9.3,9.445-3.561,14.459,4.051,3.536,9.2,6.022,14.181,2.677a.262.262,0,0,1,.4.191c3.425-2.619,5.1-8.128,3.586-12.067C-1067.53,642.676-1075.633,639.349-1080.17,642.516Zm29.765,35.813c4.358-.937,15.537,1.821,13.046,8.6a10.287,10.287,0,0,1-7.736,6.571c-2.158,1.928-5.967,1.063-8.608.716-3.115-.409-5.838-1.121-7.711-3.729C-1065.439,684.881-1054.234,679.153-1050.406,678.33Zm-7.053,4.952a13.074,13.074,0,0,0-2.3,2.694l.259.528a3.913,3.913,0,0,0-.136,2.227,3.782,3.782,0,0,0,2.573,2.732l.483.981c3.7,1,8.25,2.092,11.732.008a.256.256,0,0,1,.368.275,11.929,11.929,0,0,0,4-3.089c6.539-7.975-6.187-10.9-10.748-9.6A14.413,14.413,0,0,0-1057.459,683.281Zm4.852,3.125c.7-2.4,3.1-3.017,5.139-1.748,3.185,1.98.865,5.194-1.5,5.438C-1050.948,691.261-1053.157,688.282-1052.607,686.407Zm1.986,1.1c.074.893.676,1.094,1.3,1.359,1.1-.376,1.854-1.55.69-2.224C-1049.383,686.2-1050.726,686.224-1050.62,687.507Zm12.684-23.029a.585.585,0,0,1-.4.3c-5.237,1.183-11.911-1.213-13.158-6.906-1.071-4.894,5.031-9.033,9.016-10.031,5.123-1.285,11.52,1.019,11.12,7.386C-1031.607,659.234-1034.15,663.193-1037.937,664.478Zm0-.628c3.632-1.944,6.368-6.717,4.872-10.6-2.074-5.384-7.7-5.8-12.159-3.084-3.369,2.052-7.447,6.857-3.234,10.473,2.826,2.426,6.305,3.095,9.939,2.792A.561.561,0,0,1-1037.933,663.85Zm-.446-5.423a3.156,3.156,0,0,1-3.378.447c-1.432,0-2.01-2.37-1.622-3.5a2.837,2.837,0,0,1,4.173-1.737C-1037.52,654.736-1036.718,656.916-1038.38,658.427Zm-2.706-.146a2.136,2.136,0,0,0,1.406-.662,1.407,1.407,0,0,0-.624-2.353,1.239,1.239,0,0,0-1.4,1.767C-1041.538,657.481-1041.226,657.825-1041.086,658.281Zm34.458,14.9c7.138.616,10.746,6.455,6.877,12.879-2.013,3.342-6.682,5.972-11.113,6.426-5.637,2.761-11.769-4.382-11.035-9.8C-1020.938,675.6-1013.115,672.625-1006.627,673.186Zm-2.231,1.525c-4.621.436-11.475,2.287-11.472,8.193,0,3.088,1.232,6.3,4.31,7.618a19.842,19.842,0,0,0,4.053,1A17.237,17.237,0,0,0-1001.74,686c2.617-3.292,3.279-9.293-1.868-10.75A14.3,14.3,0,0,0-1008.859,674.711Zm2.708,5.789a.924.924,0,0,1,.669.878,4.419,4.419,0,0,1-3.94,3.792c-.021.039,0,.089-.032.121-1.606,1.392-3.894-1.019-3.273-2.79C-1011.7,679.578-1008.644,679.491-1006.151,680.5Zm-3.778,1.35c-.705.278-2.075,1.339-.871,2.276a5.265,5.265,0,0,0,1.145.4c.024.006.026.039.048.049a3.57,3.57,0,0,0,2.2-2.586A3.9,3.9,0,0,0-1009.929,681.849Zm11.8-26.155c.793,3.943-1.78,7.122-5.091,8.61-4.094,3.649-11.365,2.887-15.221-.849-4.47-4.333-.418-11.23,4.061-13.428C-1009.152,647.464-999.419,649.276-998.127,655.695Zm-16.263-3.29c-3.924,2.56-5.79,9.049-.335,11.384,4.216,1.8,8.33.863,12.34-.966a6.364,6.364,0,0,0,.68-.666c1.608-2.061,3.312-6.357.556-8.538C-1004.381,651.061-1010.836,650.085-1014.39,652.4Zm7.173,3.858c1.78.268,1.3,2.817.594,3.767a2.893,2.893,0,0,1-1.117.869c.077.029.153.052.232.088.344.158.246.607,0,.788-1.689,1.243-3.415-1.116-3.287-2.689A3.178,3.178,0,0,1-1007.217,656.262Zm-2.007,3.948a2.229,2.229,0,0,0,.8.452c1.307-.493,2.454-1.712,1.531-3.025C-1008.1,655.919-1010.916,658.689-1009.224,660.21Zm8-15.791c-.458,2.1.678,4.55,1.767,6.3a.127.127,0,0,0,.219-.128,13.51,13.51,0,0,1-1.072-2.98c-.249-1.058-.145-2.141-.376-3.193A.281.281,0,0,0-1001.223,644.419Zm-1.34,4.568c.059.214.425.178.4-.054-.162-1.437.106-3.191-.43-4.525a.307.307,0,0,0-.587,0C-1003.615,645.825-1002.941,647.6-1002.563,648.987Zm-2.885-4.535a9.243,9.243,0,0,0,.775,3.331c.06.184.357.161.349-.047a9.362,9.362,0,0,0-.462-3.464C-1004.937,643.923-1005.431,644.134-1005.448,644.452Zm-1.579,2.94c.052.083.215.085.232-.03a4.528,4.528,0,0,0-.307-3.16.486.486,0,0,0-.9.243A4.485,4.485,0,0,0-1007.027,647.392Zm-2.424-.39c.284-1.084.133-2.43-1.1-2.762a.359.359,0,0,0-.437.437c.167.83.758,1.479.953,2.325A.306.306,0,0,0-1009.451,647Zm-2.514.838c.119.187.449.069.37-.156a8.915,8.915,0,0,0-1.115-2.55.306.306,0,0,0-.556.234A8.918,8.918,0,0,0-1011.965,647.84Zm-2.526.692c-.333-1.142-.515-2.324-1.465-3.113-.24-.2-.731-.1-.692.287.127,1.28.986,2.092,1.777,3.049C-1014.722,648.935-1014.429,648.741-1014.49,648.532Zm-2.764.45a4.186,4.186,0,0,0-1.256-3.076.333.333,0,0,0-.563.233,4.184,4.184,0,0,0,1.343,3.039A.281.281,0,0,0-1017.254,648.982Zm-2.746-1.145a.434.434,0,0,0-.736.3,22.306,22.306,0,0,0,.6,2.891.23.23,0,0,0,.417.055A2.876,2.876,0,0,0-1020,647.838Zm-1.132,3.951v.811a.025.025,0,0,0,.051,0v-.811A.025.025,0,0,0-1021.133,651.789Zm51,9.1c2.623-.523,6.374-1.161,8.239,1.387,1.654,2.26,1.225,4.2-.239,6.44a17.08,17.08,0,0,1-10.7,7.016c-.013.008-.014.022-.028.029-4.245,2.22-12.651,1.1-11.956-5.039C-984.117,664.623-974.985,661.86-970.128,660.892Zm-2.473,13.984c.126-.046.246-.106.371-.155-.147.017-.294.036-.442.048A1.069,1.069,0,0,1-972.6,674.875Zm5.95-11.87a29.894,29.894,0,0,0-5.332,1.012,22.381,22.381,0,0,0-5.771,2.215c-.787.488-8.719,6.394-2.71,7.573,2.5.491,5.022-.1,7.443.661a.606.606,0,0,1,.29.212,22.207,22.207,0,0,0,2.467-.858,14.515,14.515,0,0,0,3.449-2.443,16.271,16.271,0,0,0,2.316-2.611Q-962.009,665.951-966.651,663.006Zm-5.721,5.015c.829-.039,3.073.091,3.111,1.288a3.079,3.079,0,0,1-3.577,3.047,3.682,3.682,0,0,1-2.934-.842.862.862,0,0,1-.3-1.157A4.575,4.575,0,0,1-972.372,668.021Zm-1.66,2.536c.7.312,1.44.5,2.154.816.008,0,.006.016.014.02a2.261,2.261,0,0,0,1.084-1.558A3.11,3.11,0,0,0-974.032,670.557Zm-4.053-17.388c-1.279,1.838-3.755-.642-3.623-2.281.2-2.431,2.484-3.828,4.784-3.806a2.99,2.99,0,0,1,2.8,4.268c-.826,1.564-2.383,1.843-3.935,1.632C-978.069,653.045-978.046,653.112-978.085,653.169Zm-.244-.754a2.7,2.7,0,0,0,1.9-.788c.707-.822,1.227-2.523-.494-2.529-1.029,0-2.86.3-3.053,1.622C-980.152,651.927-979.056,651.983-978.329,652.415Zm-11.774-7.533a.463.463,0,0,0,.687-.394c.084-1.152-.873-1.8-1.767-2.411a.051.051,0,0,0-.076.044C-991.2,643.205-991.137,644.357-990.1,644.881Zm27.266,13.843a.153.153,0,0,0,.3-.04c.194-1.731,1.3-3.171,1.474-4.861a.409.409,0,0,0-.61-.35C-963.473,654.506-963.333,656.99-962.838,658.724Zm-2.574-.044a.255.255,0,0,0,.5.067c.565-1.593,1.4-3.336,1.043-5.05a.46.46,0,0,0-.834-.109C-965.607,655.056-965.4,657.019-965.411,658.68Zm16.964-11.861c-1.705-1.758.542-4.162,2.045-4.985a2.735,2.735,0,0,1,2.577-.123c.849.5.548,1.3.257,2.1a5.336,5.336,0,0,1-.744,1.365c.008.033.041.049.042.084C-944.167,647.408-947.079,648.23-948.447,646.819Zm2.1-1.127a2.671,2.671,0,0,1,1.364-.857c.066-.162.125-.317.174-.456.151-.425.969-2-.052-1.878a3.347,3.347,0,0,0-2,1.025,2.288,2.288,0,0,0-.86,1.912Zm-9.1-10.4c-1.839-.1-2.262-2.553-1.548-3.938,1.082-2.1,3.547-2.271,5.653-2.156a.684.684,0,0,1,.649.852c-.416,1.835-2.043,4.568-4.171,4.774A.566.566,0,0,1-955.441,635.294Zm.349-1.215a11,11,0,0,0,1.664-1.395,5.92,5.92,0,0,0,1.173-2.142,4.616,4.616,0,0,0-2.734.689C-956.146,632.111-955.895,633.171-955.092,634.079Zm24.074-13.122a.935.935,0,0,1,.671.882,5.536,5.536,0,0,1-2.466,4.9c0,.017.011.029.006.046a1.778,1.778,0,0,1-2.049,1.291,2.126,2.126,0,0,1-1.453-2.547C-936.079,623.091-933.7,619.994-931.018,620.956Zm-1.208,1.741a3.052,3.052,0,0,0-2.331,1.9,3.357,3.357,0,0,0-.327,1.36l.564.405a.862.862,0,0,1,.2-.346.565.565,0,0,1,.63-.256l.139.054c.039.015.055.054.091.072A7.268,7.268,0,0,0-932.226,622.7Zm9.505-29.667c-.76,1.478-.332,3.273-.4,4.909-.083,2-.321,3.963-.325,5.961a.026.026,0,0,0,.047.012,13.872,13.872,0,0,0,2.054-5.733c.251-1.65.742-3.68-.195-5.15A.691.691,0,0,0-922.721,593.031Zm-100.133,11.488a3.653,3.653,0,0,0-1.9,2.309c-.021.068.052.155.125.125a3.7,3.7,0,0,0,2.148-2.148C-1022.392,604.581-1022.677,604.43-1022.854,604.519Zm-.736-.895c.117-.295-.275-.557-.521-.4a7.482,7.482,0,0,0-2.124,2.582c-.206.325.25.65.518.4A7.459,7.459,0,0,0-1023.59,603.624Zm-1.6-1.735a.409.409,0,0,0-.756-.2c-.4.516-.657,1.105-1.084,1.608a.407.407,0,0,0,.492.637A1.959,1.959,0,0,0-1025.194,601.889Zm-.607-1.655c-.023-.27-.393-.52-.606-.251a9.816,9.816,0,0,1-1.7,2.116c-.124.091-.106.352.09.331C-1026.833,602.3-1025.686,601.57-1025.8,600.234Zm-1.445-1.565a.306.306,0,0,0-.519-.215,14.471,14.471,0,0,0-1.605,2.5c-.061.09.055.181.139.139C-1028.17,600.558-1027.31,599.932-1027.246,598.669Zm-1.236-1.447a.382.382,0,0,0-.6-.461,6.637,6.637,0,0,0-1.751,2.053.407.407,0,0,0,.637.492A6.643,6.643,0,0,0-1028.483,597.222Zm13.863,11.338a.459.459,0,0,0-.788,0,13.772,13.772,0,0,0-.682,2.179c-.08.231.189.37.372.286A1.742,1.742,0,0,0-1014.62,608.56Zm2.324-.757a.358.358,0,0,0-.649.085c-.326,1.217-.393,2.459-.632,3.692a.179.179,0,0,0,.3.173A3.057,3.057,0,0,0-1012.3,607.8Zm2.607.5a.384.384,0,0,0-.7-.091,4.681,4.681,0,0,0-.386,3.881.2.2,0,0,0,.371.049A4.681,4.681,0,0,0-1009.689,608.3Zm.859-.352a17.243,17.243,0,0,0,.5,3.318.179.179,0,0,0,.324.042,3.056,3.056,0,0,0-.172-3.63C-1008.4,607.4-1008.826,607.644-1008.83,607.947Zm2.438.763a3.8,3.8,0,0,0,.073,2.17.23.23,0,0,0,.44,0,3.8,3.8,0,0,0,.073-2.17A.306.306,0,0,0-1006.392,608.71Zm6.527-2.438c-.07-.157-.339-.044-.278.117a6.22,6.22,0,0,1,.49,2.8.025.025,0,0,0,.05.007A4.736,4.736,0,0,0-999.865,606.272Zm5.268-.973c-.253-.131-.6.148-.416.416a1.525,1.525,0,0,1,.224,1.477c-.063.106.066.246.173.174C-993.767,606.794-993.573,605.83-994.6,605.3Zm1.1-1.773a7.27,7.27,0,0,0,1,3.382c.188.4.7.088.649-.274a7.1,7.1,0,0,0-.99-3.288A.358.358,0,0,0-993.5,603.526Zm9.475-6.843c-.273-.209-.643.079-.649.372a6.285,6.285,0,0,0,.553,2.491.334.334,0,0,0,.6.079A2.068,2.068,0,0,0-984.025,596.683Zm.842-.43a6.242,6.242,0,0,0,1.854,2.824.128.128,0,0,0,.212-.123,6.237,6.237,0,0,0-1.6-2.972A.28.28,0,0,0-983.183,596.253Zm2.721-.664a5.369,5.369,0,0,0,1.151,1.877.128.128,0,0,0,.212-.123,5.417,5.417,0,0,0-.925-2.01A.254.254,0,0,0-980.462,595.589Zm1.219-1.318a1.376,1.376,0,0,0,1.534,1.115.358.358,0,0,0,.179-.661c-.4-.289-.772-.6-1.191-.854A.358.358,0,0,0-979.243,594.271Zm-39.027,6.046a3.142,3.142,0,0,0-2.226.968.281.281,0,0,0,.2.476,3.148,3.148,0,0,0,2.28-.838A.357.357,0,0,0-1018.27,600.318Zm-2.145-2.8a6.07,6.07,0,0,0-2.049,1.4c-.181.169.049.406.246.318a6.052,6.052,0,0,0,2.05-1.3C-1020,597.771-1020.169,597.418-1020.416,597.516Zm-1.87-3.015a.385.385,0,0,0-.636-.168c-.52.472-.937,1.153-1.778,1.086-.289-.023-.363.383-.141.52C-1023.716,596.628-1021.818,596.081-1022.286,594.5Zm6.231,9.606a5.431,5.431,0,0,0,1.755-2.022c.177-.322-.255-.679-.518-.4a5.472,5.472,0,0,0-1.387,2.307C-1016.23,604.074-1016.128,604.161-1016.055,604.108Zm1.39.581c-.1.058-.065.253.064.236a3.159,3.159,0,0,0,2.755-1.616.407.407,0,0,0-.637-.492A14.6,14.6,0,0,1-1014.665,604.689Zm5.632-1.089c.107-.279-.252-.511-.484-.372a7.947,7.947,0,0,0-2.5,3c-.188.306.227.591.478.369A8.006,8.006,0,0,0-1009.033,603.6Zm1.687-.584a7.12,7.12,0,0,0-.424,1.821c0-.019-.429,1.69-.678,1.058-.048-.122-.266-.12-.249.034.05.448.04.221.315.646a.4.4,0,0,0,.442.179,2.482,2.482,0,0,0,1.272-3.917A.411.411,0,0,0-1007.346,603.016Zm2.927,2.595a.077.077,0,0,0,.13.054,2.981,2.981,0,0,0,.888-2.626.28.28,0,0,0-.51-.067A8.958,8.958,0,0,0-1004.42,605.611Zm4.259-2.248a.332.332,0,0,0-.614.167,7.853,7.853,0,0,1-.265,1.516c-.174.343.282.751.557.43C-999.906,604.8-999.622,604.136-1000.161,603.362Zm2.013,1.047a.613.613,0,0,0,.349.966.242.242,0,0,0-.034.134c.113.961.41,1.9.443,2.868.005.16.257.263.331.089a2.731,2.731,0,0,0-.15-3.107.72.72,0,0,0,.287-.233,4.282,4.282,0,0,0,.728-1.411.511.511,0,0,0-.745-.573A4.84,4.84,0,0,0-998.148,604.409Z" transform="translate(1224.357 -523.725)" fill="#0ce3c6"/>
</svg>
