<?xml version="1.0" encoding="utf-8"?>
<svg xmlns="http://www.w3.org/2000/svg" width="50" height="50" viewBox="0 0 50 50">
  <g id="Groupe_3266" data-name="Groupe 3266" transform="translate(-360 -470)">
    <g id="Groupe_1773" data-name="Groupe 1773" transform="translate(374.398 480.192)">
      <path id="Tracé_6082" data-name="Tracé 6082" d="M865.2,417.1h-8.066a.638.638,0,0,1,0-1.275H865.2a.638.638,0,1,1,0,1.275Z" transform="translate(-850.429 -390.503)" fill="#07a4e8"/>
      <path id="Tracé_6083" data-name="Tracé 6083" d="M869.287,431.046h-4.172a.638.638,0,0,1,0-1.275h4.172a.638.638,0,1,1,0,1.275Z" transform="translate(-856.464 -401.046)" fill="#07a4e8"/>
      <g id="Groupe_1771" data-name="Groupe 1771" transform="translate(0 0)">
        <g id="Groupe_1770" data-name="Groupe 1770">
          <g id="Groupe_1769" data-name="Groupe 1769">
            <path id="Tracé_6084" data-name="Tracé 6084" d="M842.356,313.275a9.375,9.375,0,0,1,9.465,9.261,7.465,7.465,0,0,1-1.674,5.272c-.4.431-.817.82-1.217,1.2a9.1,9.1,0,0,0-3.252,5.1h-6.644a9.09,9.09,0,0,0-3.239-5.091c-.4-.377-.812-.766-1.212-1.2a8.083,8.083,0,0,1-1.685-5.283,9.371,9.371,0,0,1,9.457-9.261m0-1.275a10.635,10.635,0,0,0-10.732,10.536,9.329,9.329,0,0,0,2,6.119c1.973,2.133,3.976,3.07,4.316,6.726h8.84c.342-3.656,2.342-4.593,4.326-6.726a8.7,8.7,0,0,0,1.995-6.119A10.642,10.642,0,0,0,842.356,312Z" transform="translate(-831.624 -312)" fill="#07a4e8"/>
          </g>
        </g>
      </g>
      <path id="Tracé_6085" data-name="Tracé 6085" d="M873.668,376.875a.637.637,0,0,1-.638-.638v-8.646a.638.638,0,0,1,1.275,0v8.646A.638.638,0,0,1,873.668,376.875Z" transform="translate(-862.931 -353.551)" fill="#07a4e8"/>
      <g id="Groupe_1772" data-name="Groupe 1772" transform="translate(7.023 10.322)">
        <path id="Tracé_6086" data-name="Tracé 6086" d="M864.125,358.676a.636.636,0,0,1-.452-.188l-3.071-3.082a.638.638,0,0,1,.9-.9l3.071,3.082a.638.638,0,0,1-.451,1.088Z" transform="translate(-860.417 -354.319)" fill="#07a4e8"/>
        <path id="Tracé_6087" data-name="Tracé 6087" d="M873.69,358.676a.638.638,0,0,1-.452-1.088l3.071-3.082a.638.638,0,0,1,.9.9l-3.071,3.082A.636.636,0,0,1,873.69,358.676Z" transform="translate(-869.971 -354.319)" fill="#07a4e8"/>
      </g>
    </g>
  </g>
</svg>
