<svg xmlns="http://www.w3.org/2000/svg" width="55.079" height="25" viewBox="0 0 55.079 25">
  <g id="Groupe_1833" data-name="Groupe 1833" transform="translate(-20 -20)">
    <g id="Groupe_1671" data-name="Groupe 1671" transform="translate(20 20)">
      <g id="Groupe_1669" data-name="Groupe 1669">
        <path id="path10374" d="M85.645,223.474a12.554,12.554,0,0,0-9.484-4.328H74.637a12.5,12.5,0,0,0,0,25h1.525a12.558,12.558,0,0,0,9.47-4.32H77.424a8.471,8.471,0,0,1-1.261.087H74.637a8.268,8.268,0,0,1,0-16.535h1.525a8.461,8.461,0,0,1,1.275.1Z" transform="translate(-62.137 -219.146)" fill="#fff"/>
        <g id="Groupe_1668" data-name="Groupe 1668" transform="translate(31.571)">
          <path id="path10376" d="M165.946,223.474a12.554,12.554,0,0,1,9.484-4.328h1.525a12.5,12.5,0,0,1,0,25h-1.526a12.559,12.559,0,0,1-9.47-4.32h8.209a8.475,8.475,0,0,0,1.261.087h1.525a8.268,8.268,0,1,0,0-16.535h-1.525a8.457,8.457,0,0,0-1.275.1Z" transform="translate(-165.946 -219.146)" fill="#fff"/>
        </g>
        <path id="path10378" d="M117.275,246.97c-2.868-.016-5.491,1.914-5.491,4.038s2.623,4.052,5.491,4.038h14.01c2.844-.016,5.418-1.933,5.418-4.038s-2.574-4.024-5.418-4.038Z" transform="translate(-96.685 -238.508)" fill="#07a4e8"/>
      </g>
    </g>
  </g>
</svg>
