<svg xmlns="http://www.w3.org/2000/svg" width="164.703" height="30" viewBox="0 0 164.703 30">
  <g id="Groupe_1672" data-name="Groupe 1672" transform="translate(-20 -20)">
    <g id="Groupe_1671" data-name="Groupe 1671" transform="translate(20 20)">
      <g id="Groupe_1669" data-name="Groupe 1669">
        <path id="path10374" d="M90.2,224.312a14.985,14.985,0,0,0-11.32-5.166h-1.82a14.921,14.921,0,0,0,0,29.842h1.821a14.99,14.99,0,0,0,11.3-5.156h-9.8a10.112,10.112,0,0,1-1.505.1H77.058a9.869,9.869,0,0,1,0-19.738h1.821a10.1,10.1,0,0,1,1.523.115Z" transform="translate(-62.137 -219.146)" fill="#050800"/>
        <g id="Groupe_1668" data-name="Groupe 1668" transform="translate(37.685)">
          <path id="path10376" d="M165.946,224.312a14.986,14.986,0,0,1,11.32-5.166h1.821a14.921,14.921,0,0,1,0,29.842h-1.821a14.991,14.991,0,0,1-11.3-5.156h9.8a10.116,10.116,0,0,0,1.505.1h1.821a9.869,9.869,0,1,0,0-19.738h-1.821a10.094,10.094,0,0,0-1.522.115Z" transform="translate(-165.946 -219.146)" fill="#050800"/>
        </g>
        <path id="path10378" d="M118.338,246.97c-3.423-.019-6.554,2.285-6.554,4.82s3.131,4.837,6.554,4.82h16.723c3.394-.019,6.467-2.307,6.467-4.82s-3.073-4.8-6.467-4.82Z" transform="translate(-93.761 -236.869)" fill="#00a0de"/>
      </g>
      <g id="Groupe_1670" data-name="Groupe 1670" transform="translate(73.626 0.042)">
        <path id="Tracé_5789" data-name="Tracé 5789" d="M285.778,219.262v20.7l-15.966-20.648h-4.861V249.22h5.213V229.157l15.648,20.063h5.2V234.175Z" transform="translate(-264.952 -219.262)" fill="#050800"/>
        <path id="Tracé_5790" data-name="Tracé 5790" d="M471.779,238.327a6.009,6.009,0,0,0-1.21-2.008,7.729,7.729,0,0,0-1.87-1.474,15.041,15.041,0,0,0-2.4-1.09,11.467,11.467,0,0,0,1.589-1.025,6.615,6.615,0,0,0,1.357-1.389,6.989,6.989,0,0,0,.932-1.837,7.4,7.4,0,0,0,.361-2.414V227a6.742,6.742,0,0,0-2-4.956q-2.645-2.649-7.8-2.649h-8.192l-5.2,14.921v14.987h13.819a17.888,17.888,0,0,0,4.522-.534,10.662,10.662,0,0,0,3.5-1.56,7.041,7.041,0,0,0,2.239-2.563,7.662,7.662,0,0,0,.789-3.546v-.085A7.786,7.786,0,0,0,471.779,238.327ZM452.55,224.056h7.537a6.433,6.433,0,0,1,3.9,1,3.3,3.3,0,0,1,1.342,2.8v.086A3.4,3.4,0,0,1,463.791,231a7.366,7.366,0,0,1-4.088,1H452.55Zm14.441,16.492a3.454,3.454,0,0,1-1.533,3.076,7.517,7.517,0,0,1-4.218,1.026h-8.69v-8.2h8.307a8.2,8.2,0,0,1,4.622,1.047,3.4,3.4,0,0,1,1.513,2.97Z" transform="translate(-381.127 -219.349)" fill="#050800"/>
        <path id="Tracé_5791" data-name="Tracé 5791" d="M370.229,219.262l-7.484,22-7.262-22h-4.616l-7.263,22-7.484-22h-5.273l10.364,29.946h5.015l6.863-21.491,7.025,21.491h4.853l10.364-29.946Z" transform="translate(-306.926 -219.262)" fill="#050800"/>
      </g>
    </g>
  </g>
</svg>
