<?xml version="1.0" encoding="utf-8"?>
<svg xmlns="http://www.w3.org/2000/svg" width="50" height="50" viewBox="0 0 50 50">
  <g id="Groupe_3262" data-name="Groupe 3262" transform="translate(-542 -470)">
    <g id="Groupe_1766" data-name="Groupe 1766" transform="translate(555.442 480.222)">
      <path id="Tracé_6074" data-name="Tracé 6074" d="M989.544,340.308c-.111-.818-.922-7.108-.93-7.171a1.383,1.383,0,0,0-.238-.615c-.122-.173-12.177-17.344-13.144-18.726a2.806,2.806,0,0,0-2.336-1.2,2.865,2.865,0,0,0-1.667.52l-3.8,2.741a2.919,2.919,0,0,0-.672,4L979.9,338.591a1.38,1.38,0,0,0,.5.436c.053.027,5.282,2.683,6.37,3.243a2.616,2.616,0,0,0,1.176.33,1.574,1.574,0,0,0,1.109-.465l.044-.039A1.958,1.958,0,0,0,989.544,340.308ZM969.756,322l-.086-.122-1.9-2.713a1.679,1.679,0,0,1,.38-2.3c.032-.024,3.233-2.351,3.8-2.738a1.76,1.76,0,0,1,.987-.305,1.549,1.549,0,0,1,1.3.687l1.907,2.717.084.119-.118.085-6.22,4.487Zm10.565,15.052-.086-.123-9.688-13.8-.084-.119.118-.085,6.22-4.487.121-.087.086.122,9.687,13.8.084.119-.118.085-6.219,4.487Zm7.9,4.182a.451.451,0,0,1-.332.133,1.089,1.089,0,0,1-.532-.179l-6.04-3.074L981.1,338l.2-.142,5.913-4.266.2-.145.032.246.88,6.785A.846.846,0,0,1,988.222,341.233Z" transform="translate(-966.24 -312.6)" fill="#0ce3c6"/>
    </g>
  </g>
</svg>
