<?xml version="1.0" encoding="utf-8"?>
<svg xmlns="http://www.w3.org/2000/svg" width="50" height="50" viewBox="0 0 50 50">
  <g id="Groupe_3264" data-name="Groupe 3264" transform="translate(-931 -470)">
    <g id="Groupe_1764" data-name="Groupe 1764" transform="translate(946.157 480.421)">
      <path id="Tracé_6065" data-name="Tracé 6065" d="M1127.149,478h-12.318a3.713,3.713,0,0,1-3.709-3.709V451.709a3.713,3.713,0,0,1,3.709-3.709h12.318a3.731,3.731,0,0,1,3.6,2.831h.1l.015.63,0,22.831A3.713,3.713,0,0,1,1127.149,478Zm-12.318-28.741a2.453,2.453,0,0,0-2.45,2.45v22.582a2.453,2.453,0,0,0,2.45,2.45h12.318a2.452,2.452,0,0,0,2.45-2.45l-.01-22.78a2.46,2.46,0,0,0-2.439-2.252Z" transform="translate(-1111.122 -448)" fill="#07a4e8"/>
      <path id="Tracé_6066" data-name="Tracé 6066" d="M1146.247,547.377h-2.053a1.026,1.026,0,0,0,0,2.053h2.053a1.026,1.026,0,1,0,0-2.053Z" transform="translate(-1135.352 -523.139)" fill="#07a4e8"/>
    </g>
  </g>
</svg>
