<?xml version="1.0" encoding="utf-8"?>
<svg xmlns="http://www.w3.org/2000/svg" width="50" height="50" viewBox="0 0 50 50">
  <g id="Groupe_3263" data-name="Groupe 3263" transform="translate(-739 -470)">
    <g id="Groupe_1763" data-name="Groupe 1763" transform="translate(749.289 482.47)">
      <path id="Tracé_6063" data-name="Tracé 6063" d="M1118.148,324.057h-26.5a1.754,1.754,0,0,0-1.752,1.752v18.432a1.755,1.755,0,0,0,1.752,1.753h9.767v2.255h-1.7a.6.6,0,0,0,0,1.2h10.368a.6.6,0,1,0,0-1.2h-1.7v-2.255h9.768a1.754,1.754,0,0,0,1.752-1.753V325.809A1.754,1.754,0,0,0,1118.148,324.057Zm-26.5,1.176a.574.574,0,0,0-.407.169A.574.574,0,0,1,1091.652,325.233Zm-.407,19.415a.574.574,0,0,0,.407.169A.574.574,0,0,1,1091.245,344.648Zm15.934,3.6h-4.559v-2.255h4.559Zm11.52-14.375v10.368a.552.552,0,0,1-.552.552h-26.5a.552.552,0,0,1-.552-.552V325.809a.552.552,0,0,1,.552-.552h26.5a.552.552,0,0,1,.552.552Z" transform="translate(-1089.9 -324.057)" fill="#30b9d1"/>
      <path id="Tracé_6064" data-name="Tracé 6064" d="M1147.208,399.749h-2.3a.6.6,0,1,0,0,1.2h2.3a.6.6,0,0,0,0-1.2Z" transform="translate(-1131.055 -381.317)" fill="#30b9d1"/>
    </g>
  </g>
</svg>
